<svg width="20" height="22" viewBox="0 0 20 22" fill="none" xmlns="http://www.w3.org/2000/svg">
<path fill-rule="evenodd" clip-rule="evenodd" d="M7.75443 1.08429L7.03392 2.96214L4.55337 4.38271L2.57702 4.07786C2.24748 4.03307 1.91219 4.088 1.61358 4.23569C1.31496 4.38339 1.06644 4.61721 0.899463 4.90757L0.230306 6.09243C0.0591198 6.38768 -0.019701 6.72828 0.00418164 7.06955C0.0280642 7.41083 0.153535 7.73685 0.364137 8.00486L1.61997 9.57786V12.4221L0.398373 13.9951C0.187771 14.2631 0.0623002 14.5892 0.0384176 14.9304C0.014535 15.2717 0.0933558 15.6123 0.264542 15.9076L0.933699 17.0924C1.10068 17.3828 1.3492 17.6166 1.64781 17.7643C1.94643 17.912 2.28172 17.9669 2.61126 17.9221L4.58761 17.6173L7.03548 19.0379L7.75599 20.9173C7.87799 21.2345 8.0916 21.5074 8.36911 21.7004C8.64661 21.8935 8.97518 21.9979 9.31217 22H10.7205C11.0582 21.9984 11.3876 21.8941 11.6657 21.7007C11.9439 21.5073 12.1579 21.2337 12.2798 20.9157L13.0003 19.0379L15.4466 17.6173L17.423 17.9221C17.7525 17.9669 18.0878 17.912 18.3864 17.7643C18.685 17.6166 18.9336 17.3828 19.1005 17.0924L19.7697 15.9076C19.9409 15.6123 20.0197 15.2717 19.9958 14.9304C19.9719 14.5892 19.8465 14.2631 19.6359 13.9951L18.38 12.4221V9.57786L19.6032 8.00486C19.8138 7.73685 19.9393 7.41083 19.9631 7.06955C19.987 6.72828 19.9082 6.38768 19.737 6.09243L19.0679 4.90757C18.9009 4.61721 18.6524 4.38339 18.3537 4.23569C18.0551 4.088 17.7198 4.03307 17.3903 4.07786L15.4139 4.38271L12.9661 2.96214L12.2456 1.08271C12.1235 0.765252 11.9096 0.492225 11.6318 0.299132C11.354 0.106039 11.0251 0.00181089 10.6878 0L9.31217 0C8.97473 0.00193448 8.64569 0.106393 8.36786 0.299781C8.09003 0.493169 7.87628 0.766529 7.75443 1.08429ZM10 14.5357C10.4598 14.5357 10.9151 14.4443 11.3399 14.2666C11.7647 14.0889 12.1507 13.8284 12.4759 13.5001C12.801 13.1718 13.0589 12.782 13.2349 12.3531C13.4108 11.9241 13.5014 11.4643 13.5014 11C13.5014 10.5357 13.4108 10.0759 13.2349 9.64694C13.0589 9.21797 12.801 8.82819 12.4759 8.49987C12.1507 8.17155 11.7647 7.91111 11.3399 7.73343C10.9151 7.55574 10.4598 7.46429 10 7.46429C9.07137 7.46429 8.18077 7.8368 7.52413 8.49987C6.86749 9.16295 6.4986 10.0623 6.4986 11C6.4986 11.9377 6.86749 12.8371 7.52413 13.5001C8.18077 14.1632 9.07137 14.5357 10 14.5357Z" fill="#565656"/>
</svg>
