<svg width="20" height="20" viewBox="0 0 20 20" fill="none" xmlns="http://www.w3.org/2000/svg">
<path d="M10 1.25098C8.26942 1.25098 6.57769 1.76416 5.13876 2.72562C3.69983 3.68708 2.57832 5.05364 1.91606 6.6525C1.25379 8.25135 1.08051 10.0107 1.41813 11.708C1.75575 13.4054 2.58911 14.9645 3.81282 16.1882C5.03653 17.4119 6.59563 18.2452 8.29296 18.5828C9.9903 18.9205 11.7496 18.7472 13.3485 18.0849C14.9473 17.4227 16.3139 16.3011 17.2754 14.8622C18.2368 13.4233 18.75 11.7316 18.75 10.001C18.75 7.68033 17.8281 5.45474 16.1872 3.81379C14.5462 2.17285 12.3206 1.25098 10 1.25098ZM10 17.501C8.51664 17.501 7.0666 17.0611 5.83323 16.237C4.59986 15.4129 3.63856 14.2415 3.07091 12.8711C2.50325 11.5007 2.35473 9.99266 2.64411 8.5378C2.9335 7.08294 3.64781 5.74657 4.6967 4.69768C5.7456 3.64878 7.08197 2.93448 8.53683 2.64509C9.99168 2.3557 11.4997 2.50422 12.8701 3.07188C14.2406 3.63954 15.4119 4.60083 16.236 5.8342C17.0601 7.06757 17.5 8.51762 17.5 10.001C17.5 11.9901 16.7098 13.8978 15.3033 15.3043C13.8968 16.7108 11.9891 17.501 10 17.501Z" fill="#565656"/>
<path d="M10 15.626C10.5178 15.626 10.9375 15.2062 10.9375 14.6885C10.9375 14.1707 10.5178 13.751 10 13.751C9.48223 13.751 9.0625 14.1707 9.0625 14.6885C9.0625 15.2062 9.48223 15.626 10 15.626Z" fill="#565656"/>
<path d="M10.625 5.00098H9.68751C9.31793 5.00016 8.95184 5.07234 8.61024 5.21339C8.26864 5.35444 7.95826 5.56158 7.69693 5.82291C7.4356 6.08424 7.22847 6.39461 7.08742 6.73621C6.94637 7.07781 6.87418 7.44391 6.87501 7.81348V8.12598H8.12501V7.81348C8.12501 7.39908 8.28963 7.00165 8.58265 6.70863C8.87568 6.4156 9.27311 6.25098 9.68751 6.25098H10.625C11.0394 6.25098 11.4368 6.4156 11.7299 6.70863C12.0229 7.00165 12.1875 7.39908 12.1875 7.81348C12.1875 8.22788 12.0229 8.62531 11.7299 8.91834C11.4368 9.21136 11.0394 9.37598 10.625 9.37598H9.37501V12.1885H10.625V10.626C11.3709 10.626 12.0863 10.3297 12.6137 9.80222C13.1412 9.27477 13.4375 8.5594 13.4375 7.81348C13.4375 7.06756 13.1412 6.35219 12.6137 5.82475C12.0863 5.2973 11.3709 5.00098 10.625 5.00098Z" fill="#565656"/>
</svg>
