<svg width="20" height="20" viewBox="0 0 20 20" fill="none" xmlns="http://www.w3.org/2000/svg">
<g clip-path="url(#clip0_3065_1364)">
<path d="M10 1.25098V5.00098" stroke="#565656" stroke-width="1.5" stroke-linecap="round" stroke-linejoin="round"/>
<path d="M7.5 13.751V14.376C7.5 15.039 7.76339 15.6749 8.23223 16.1437C8.70107 16.6126 9.33696 16.876 10 16.876C10.663 16.876 11.2989 16.6126 11.7678 16.1437C12.2366 15.6749 12.5 15.039 12.5 14.376V13.751" stroke="#565656" stroke-width="1.5" stroke-linecap="round" stroke-linejoin="round"/>
<path d="M6.875 5.62598C6.875 5.46022 6.94085 5.30125 7.05806 5.18403C7.17527 5.06682 7.33424 5.00098 7.5 5.00098H12.5C12.6658 5.00098 12.8247 5.06682 12.9419 5.18403C13.0592 5.30125 13.125 5.46022 13.125 5.62598V6.25098C14.6057 6.86793 15.8706 7.90936 16.7604 9.24404C17.6502 10.5787 18.125 12.1469 18.125 13.751H1.875C1.875 12.1469 2.34981 10.5787 3.23959 9.24404C4.12937 7.90936 5.39431 6.86793 6.875 6.25098V5.62598Z" stroke="#565656" stroke-width="1.5" stroke-linecap="round" stroke-linejoin="round"/>
</g>
<defs>
<clipPath id="clip0_3065_1364">
<rect width="20" height="20" fill="white" transform="translate(0 0.000976562)"/>
</clipPath>
</defs>
</svg>
