<svg width="18" height="19" viewBox="0 0 18 19" fill="none" xmlns="http://www.w3.org/2000/svg">
<path d="M6.62732 3.28944L7.20373 1.8379C7.30095 1.59214 7.47197 1.38074 7.69442 1.23141C7.91687 1.08207 8.18037 1.00175 8.4504 1.00098H9.5496C9.81963 1.00175 10.0831 1.08207 10.3056 1.23141C10.528 1.38074 10.6991 1.59214 10.7963 1.8379L11.3727 3.28944L13.3298 4.3879L14.9116 4.15252C15.175 4.11764 15.443 4.15994 15.6817 4.27403C15.9204 4.38812 16.1189 4.56886 16.2521 4.79328L16.7883 5.70867C16.9257 5.93666 16.989 6.19994 16.9698 6.46376C16.9507 6.72757 16.85 6.97952 16.681 7.18636L15.7025 8.40251V10.5994L16.7079 11.8156C16.8768 12.0224 16.9775 12.2744 16.9967 12.5382C17.0158 12.802 16.9525 13.0653 16.8151 13.2933L16.2789 14.2087C16.1458 14.4331 15.9472 14.6138 15.7085 14.7279C15.4699 14.842 15.2018 14.8843 14.9384 14.8494L13.3566 14.6141L11.3995 15.7125L10.8231 17.1641C10.7259 17.4098 10.5548 17.6212 10.3324 17.7705C10.1099 17.9199 9.84644 18.0002 9.57641 18.001H8.4504C8.18037 18.0002 7.91687 17.9199 7.69442 17.7705C7.47197 17.6212 7.30095 17.4098 7.20373 17.1641L6.62732 15.7125L4.6702 14.6141L3.08841 14.8494C2.82502 14.8843 2.55696 14.842 2.31827 14.7279C2.07958 14.6138 1.88106 14.4331 1.74791 14.2087L1.21171 13.2933C1.07432 13.0653 1.01101 12.802 1.03016 12.5382C1.0493 12.2744 1.15 12.0224 1.31895 11.8156L2.29752 10.5994V8.40251L1.29214 7.18636C1.12319 6.97952 1.02249 6.72757 1.00335 6.46376C0.984202 6.19994 1.04751 5.93666 1.1849 5.70867L1.7211 4.79328C1.85425 4.56886 2.05277 4.38812 2.29146 4.27403C2.53015 4.15994 2.79821 4.11764 3.0616 4.15252L4.64339 4.3879L6.62732 3.28944ZM6.31901 9.50098C6.31901 10.1946 6.60147 10.8599 7.10425 11.3503C7.60704 11.8408 8.28896 12.1164 9 12.1164C9.71104 12.1164 10.393 11.8408 10.8957 11.3503C11.3985 10.8599 11.681 10.1946 11.681 9.50098C11.681 8.80733 11.3985 8.1421 10.8957 7.65162C10.393 7.16114 9.71104 6.88559 9 6.88559C8.28896 6.88559 7.60704 7.16114 7.10425 7.65162C6.60147 8.1421 6.31901 8.80733 6.31901 9.50098Z" stroke="#565656" stroke-width="1.5" stroke-linecap="round" stroke-linejoin="round"/>
</svg>
