<svg width="16" height="16" viewBox="0 0 16 16" fill="none" xmlns="http://www.w3.org/2000/svg">
<path d="M13.0563 1V4.88893M15.0007 2.94447H11.1118M14.8942 6.7844C15.1527 8.25045 14.9372 9.76076 14.2788 11.096C13.6204 12.4311 12.5536 13.5217 11.2331 14.2091C9.9126 14.8966 8.40729 15.1452 6.93586 14.9187C5.46443 14.6923 4.10351 14.0026 3.05081 12.9499C1.99797 11.8973 1.30815 10.5364 1.08156 9.06499C0.854969 7.59355 1.10341 6.08819 1.79079 4.7676C2.47831 3.44702 3.56897 2.38004 4.90432 1.72166C6.23966 1.06329 7.75015 0.84782 9.21632 1.10656M10.4756 10.475C10.1505 10.8 9.7647 11.0578 9.34006 11.2337C8.91541 11.4096 8.46028 11.5001 8.00064 11.5001C7.541 11.5001 7.08587 11.4096 6.66122 11.2337C6.23658 11.0578 5.85073 10.8 5.52572 10.475M6.25062 6.25006C6.25062 6.57206 6.11995 6.8334 5.95895 6.8334C5.79795 6.8334 5.66728 6.57206 5.66728 6.25006C5.66728 5.92806 5.79795 5.66672 5.95895 5.66672C6.11995 5.66672 6.25062 5.92806 6.25062 6.25006ZM5.95895 6.25006H5.96517V6.26173H5.95895V6.25006ZM10.334 6.25006C10.334 6.57206 10.2033 6.8334 10.0423 6.8334C9.88133 6.8334 9.75066 6.57206 9.75066 6.25006C9.75066 5.92806 9.88133 5.66672 10.0423 5.66672C10.2033 5.66672 10.334 5.92806 10.334 6.25006ZM10.0423 6.25006H10.0486V6.26173H10.0423V6.25006Z" stroke="#565656" stroke-width="1.5" stroke-linecap="round" stroke-linejoin="round"/>
</svg>
