<svg width="20" height="22" viewBox="0 0 20 22" fill="none" xmlns="http://www.w3.org/2000/svg">
<path d="M10.5487 21.3576L10.5367 21.3596L10.4654 21.3948L10.4453 21.3988L10.4312 21.3948L10.3599 21.3586C10.3492 21.356 10.3411 21.358 10.3358 21.3647L10.3317 21.3747L10.3147 21.8047L10.3197 21.8248L10.3297 21.8379L10.4342 21.9122L10.4493 21.9162L10.4613 21.9122L10.5658 21.8379L10.5779 21.8218L10.5819 21.8047L10.5648 21.3757C10.5621 21.365 10.5568 21.359 10.5487 21.3576ZM10.814 21.2441L10.7999 21.2461L10.6151 21.3396L10.605 21.3496L10.602 21.3607L10.6201 21.7927L10.6251 21.8047L10.6331 21.8128L10.8351 21.9052C10.8478 21.9085 10.8575 21.9059 10.8642 21.8972L10.8682 21.8831L10.8341 21.2662C10.8307 21.2535 10.824 21.2461 10.814 21.2441ZM10.0956 21.2461C10.0912 21.2434 10.0859 21.2426 10.0809 21.2437C10.0758 21.2448 10.0714 21.2478 10.0685 21.2521L10.0625 21.2662L10.0283 21.8831C10.029 21.8951 10.0347 21.9032 10.0454 21.9072L10.0605 21.9052L10.2624 21.8118L10.2725 21.8037L10.2755 21.7927L10.2936 21.3607L10.2905 21.3486L10.2805 21.3386L10.0956 21.2461Z" fill="#565656"/>
<path d="M7.04525 3.46416C7.64605 1.70596 10.0754 1.65271 10.7877 3.30442L10.848 3.46517L11.6588 5.83623C11.8446 6.38 12.1448 6.8776 12.5393 7.29546C12.9338 7.71332 13.4133 8.04173 13.9454 8.25853L14.1635 8.33991L16.5345 9.14969C18.2927 9.75049 18.346 12.1798 16.6953 12.8921L16.5345 12.9524L14.1635 13.7632C13.6195 13.9489 13.1217 14.2491 12.7037 14.6436C12.2856 15.038 11.9571 15.5176 11.7401 16.0499L11.6588 16.2669L10.849 18.639C10.2482 20.3972 7.81886 20.4504 7.10754 18.7997L7.04525 18.639L6.23547 16.2679C6.04978 15.7239 5.74957 15.2261 5.3551 14.8081C4.96063 14.3901 4.48108 14.0615 3.9488 13.8446L3.73179 13.7632L1.36073 12.9534C-0.398481 12.3526 -0.45173 9.92329 1.19998 9.21198L1.36073 9.14969L3.73179 8.33991C4.27556 8.1541 4.77316 7.85383 5.19102 7.45937C5.60888 7.0649 5.93729 6.58541 6.15409 6.05324L6.23547 5.83623L7.04525 3.46416ZM16.9846 1.81534e-07C17.1726 -2.37078e-07 17.3568 0.0527243 17.5162 0.152182C17.6757 0.251639 17.8041 0.39384 17.8868 0.562625L17.9351 0.680173L18.2867 1.71098L19.3185 2.06262C19.5069 2.12662 19.672 2.24509 19.7929 2.40303C19.9139 2.56096 19.9853 2.75125 19.998 2.94978C20.0106 3.14831 19.9641 3.34614 19.8643 3.5182C19.7644 3.69026 19.6157 3.8288 19.4371 3.91627L19.3185 3.9645L18.2877 4.31614L17.9361 5.34795C17.8719 5.53626 17.7534 5.7013 17.5954 5.82215C17.4374 5.94301 17.2471 6.01425 17.0486 6.02684C16.85 6.03943 16.6522 5.9928 16.4802 5.89287C16.3082 5.79294 16.1698 5.6442 16.0824 5.4655L16.0342 5.34795L15.6825 4.31714L14.6507 3.9655C14.4624 3.90151 14.2972 3.78303 14.1763 3.6251C14.0553 3.46716 13.984 3.27687 13.9713 3.07834C13.9586 2.87981 14.0051 2.68198 14.105 2.50992C14.2048 2.33786 14.3535 2.19932 14.5322 2.11185L14.6507 2.06363L15.6815 1.71199L16.0332 0.680173C16.1009 0.481673 16.2291 0.309352 16.3997 0.187373C16.5703 0.0653941 16.7749 -0.000125869 16.9846 1.81534e-07Z" fill="#565656"/>
</svg>
