<svg width="23" height="15" viewBox="0 0 23 15" fill="none" xmlns="http://www.w3.org/2000/svg">
<path d="M6.2633 14.0041L0.353314 8.09411C0.224837 7.96563 0.134045 7.82645 0.0809411 7.67656C0.0269803 7.52667 0 7.36607 0 7.19476C0 7.02346 0.0269803 6.86286 0.0809411 6.71297C0.134045 6.56308 0.224837 6.4239 0.353314 6.29542L6.29542 0.353314C6.53096 0.117772 6.82004 0 7.16264 0C7.50525 0 7.80503 0.128478 8.06199 0.385433C8.29753 0.620976 8.41531 0.920759 8.41531 1.28478C8.41531 1.6488 8.29753 1.94858 8.06199 2.18413L4.33613 5.90999H21.2952C21.6592 5.90999 21.9642 6.0329 22.21 6.27872C22.4567 6.52539 22.58 6.83074 22.58 7.19476C22.58 7.55879 22.4567 7.86371 22.21 8.10953C21.9642 8.3562 21.6592 8.47954 21.2952 8.47954H4.33613L8.09411 12.2375C8.32965 12.4731 8.44742 12.7621 8.44742 13.1048C8.44742 13.4474 8.31895 13.7471 8.06199 14.0041C7.82645 14.2396 7.52667 14.3574 7.16264 14.3574C6.79862 14.3574 6.49884 14.2396 6.2633 14.0041Z" fill="black"/>
</svg>
