<svg width="20" height="20" viewBox="0 0 20 20" fill="none" xmlns="http://www.w3.org/2000/svg">
<path d="M4 4V14M8 4V7M12 4V11M16 4V9M1 1.6V18.4C1 18.5591 1.06321 18.7117 1.17574 18.8243C1.28826 18.9368 1.44087 19 1.6 19H18.4C18.5591 19 18.7117 18.9368 18.8243 18.8243C18.9368 18.7117 19 18.5591 19 18.4V1.6C19 1.44087 18.9368 1.28826 18.8243 1.17574C18.7117 1.06321 18.5591 1 18.4 1H1.6C1.44087 1 1.28826 1.06321 1.17574 1.17574C1.06321 1.28826 1 1.44087 1 1.6Z" stroke="#565656" stroke-linecap="round" stroke-linejoin="round"/>
</svg>
