<svg width="20" height="21" viewBox="0 0 20 21" fill="none" xmlns="http://www.w3.org/2000/svg">
<path fill-rule="evenodd" clip-rule="evenodd" d="M9.9995 0C7.96131 0 6.00659 0.797527 4.56537 2.21713C3.12415 3.63674 2.31448 5.56214 2.31448 7.56977V8.2574C2.31442 8.93808 2.10982 9.60352 1.72645 10.1699L0.589068 11.8528C-0.733748 13.8063 0.275717 16.4611 2.57528 17.0784C3.32428 17.2796 4.07923 17.4499 4.84013 17.5892L4.84211 17.5941C5.60367 19.5984 7.64144 21 9.9995 21C12.3576 21 14.3953 19.5984 15.1579 17.5941L15.1599 17.5892C15.9215 17.4491 16.6771 17.2786 17.4247 17.0784C19.7243 16.4611 20.7337 13.8063 19.4109 11.8528L18.2726 10.1699C17.8892 9.60352 17.6846 8.93808 17.6845 8.2574V7.56977C17.6845 5.56214 16.8749 3.63674 15.4336 2.21713C13.9924 0.797527 12.0377 0 9.9995 0ZM13.3472 17.8617C11.123 18.1231 8.87506 18.1231 6.65082 17.8617C7.35586 18.859 8.58248 19.5349 9.9995 19.5349C11.4165 19.5349 12.6422 18.859 13.3472 17.8617ZM3.8019 7.56977C3.8019 5.95071 4.45486 4.39797 5.61714 3.25313C6.77941 2.10828 8.3558 1.46512 9.9995 1.46512C11.6432 1.46512 13.2196 2.10828 14.3819 3.25313C15.5441 4.39797 16.1971 5.95071 16.1971 7.56977V8.2574C16.1971 9.2273 16.4886 10.1757 17.035 10.9825L18.1734 12.6654C18.3498 12.9257 18.4608 13.2235 18.4974 13.5343C18.5339 13.8451 18.4948 14.16 18.3834 14.453C18.272 14.746 18.0915 15.0088 17.8567 15.2195C17.6219 15.4302 17.3396 15.5829 17.033 15.665C12.4278 16.9021 7.57024 16.9021 2.96498 15.665C2.65861 15.5829 2.37644 15.4302 2.14176 15.2195C1.90708 15.0089 1.72661 14.7462 1.61523 14.4534C1.50384 14.1605 1.46474 13.8457 1.50115 13.535C1.53756 13.2243 1.64843 12.9266 1.82462 12.6664L2.96498 10.9825C3.5109 10.1754 3.80211 9.22722 3.8019 8.2574V7.56977Z" fill="#565656"/>
</svg>
