<svg width="20" height="22" viewBox="0 0 20 22" fill="none" xmlns="http://www.w3.org/2000/svg">
<path d="M5.94669 20.0662C6.43019 20.6714 7.0463 21.16 7.74847 21.495C8.45065 21.83 9.22054 22.0027 10 22C10.7795 22.0027 11.5493 21.83 12.2515 21.495C12.9537 21.16 13.5698 20.6714 14.0533 20.0662C11.3634 20.4266 8.63664 20.4266 5.94669 20.0662ZM17.4999 7.69999V8.47439C17.4999 9.40389 17.7666 10.3125 18.2688 11.0858L19.4999 12.9811C20.6233 14.7125 19.7655 17.0654 17.8111 17.6121C12.7041 19.0439 7.29589 19.0439 2.18894 17.6121C0.234512 17.0654 -0.62326 14.7125 0.500066 12.9811L1.73117 11.0858C2.23473 10.3061 2.50196 9.39983 2.50116 8.47439V7.69999C2.50116 3.4474 5.85892 0 10 0C14.1411 0 17.4999 3.4474 17.4999 7.69999Z" fill="#565656"/>
</svg>
