<svg width="40" height="40" viewBox="0 0 40 40" fill="none" xmlns="http://www.w3.org/2000/svg">
<rect width="40" height="40" rx="20" fill="#DBEAFE"/>
<path d="M17.3654 25.7694C17.6796 26.1546 18.0801 26.4655 18.5365 26.6787C18.9929 26.8918 19.4934 27.0017 20 27C20.5066 27.0017 21.0071 26.8918 21.4635 26.6787C21.9199 26.4655 22.3204 26.1546 22.6346 25.7694C20.8862 25.9987 19.1138 25.9987 17.3654 25.7694ZM24.875 17.9V18.3928C24.875 18.9843 25.0483 19.5625 25.3747 20.0546L26.175 21.2607C26.9051 22.3625 26.3476 23.8598 25.0772 24.2077C21.7577 25.1188 18.2423 25.1188 14.9228 24.2077C13.6524 23.8598 13.0949 22.3625 13.825 21.2607L14.6253 20.0546C14.9526 19.5584 15.1263 18.9817 15.1258 18.3928V17.9C15.1258 15.1938 17.3083 13 20 13C22.6917 13 24.875 15.1938 24.875 17.9Z" fill="#1E40AF"/>
</svg>
