<svg width="18" height="18" viewBox="0 0 18 18" fill="none" xmlns="http://www.w3.org/2000/svg">
<path d="M15.437 17.936H2.56299C1.89995 17.936 1.26406 17.6726 0.795221 17.2038C0.32638 16.7349 0.0629883 16.0991 0.0629883 15.436V2.56201C0.0629883 1.89897 0.32638 1.26309 0.795221 0.794245C1.26406 0.325404 1.89995 0.0620117 2.56299 0.0620117H15.437C16.1 0.0620117 16.7359 0.325404 17.2048 0.794245C17.6736 1.26309 17.937 1.89897 17.937 2.56201V15.436C17.937 16.0991 17.6736 16.7349 17.2048 17.2038C16.7359 17.6726 16.1 17.936 15.437 17.936ZM2.56299 1.06201C2.16516 1.06201 1.78363 1.22005 1.50233 1.50135C1.22102 1.78266 1.06299 2.16419 1.06299 2.56201V15.436C1.06299 15.8338 1.22102 16.2154 1.50233 16.4967C1.78363 16.778 2.16516 16.936 2.56299 16.936H15.437C15.8348 16.936 16.2163 16.778 16.4976 16.4967C16.779 16.2154 16.937 15.8338 16.937 15.436V2.56201C16.937 2.16419 16.779 1.78266 16.4976 1.50135C16.2163 1.22005 15.8348 1.06201 15.437 1.06201H2.56299Z" fill="#565656"/>
<path d="M9.49978 11.544C9.49978 11.6766 9.44711 11.8038 9.35334 11.8976C9.25957 11.9913 9.13239 12.044 8.99978 12.044C8.86718 12.044 8.74 11.9913 8.64623 11.8976C8.55246 11.8038 8.49978 11.6766 8.49978 11.544V3.54401C8.49978 3.4114 8.55246 3.28422 8.64623 3.19045C8.74 3.09668 8.86718 3.04401 8.99978 3.04401C9.13239 3.04401 9.25957 3.09668 9.35334 3.19045C9.44711 3.28422 9.49978 3.4114 9.49978 3.54401V11.544ZM13.7168 9.45301C13.7168 9.58561 13.6641 9.71279 13.5703 9.80656C13.4766 9.90033 13.3494 9.95301 13.2168 9.95301C13.0842 9.95301 12.957 9.90033 12.8632 9.80656C12.7695 9.71279 12.7168 9.58561 12.7168 9.45301V3.54401C12.7168 3.4114 12.7695 3.28422 12.8632 3.19045C12.957 3.09668 13.0842 3.04401 13.2168 3.04401C13.3494 3.04401 13.4766 3.09668 13.5703 3.19045C13.6641 3.28422 13.7168 3.4114 13.7168 3.54401V9.45301ZM5.27978 3.54401C5.27978 3.4114 5.22711 3.28422 5.13334 3.19045C5.03957 3.09668 4.91239 3.04401 4.77979 3.04401C4.64718 3.04401 4.52 3.09668 4.42623 3.19045C4.33246 3.28422 4.27979 3.4114 4.27979 3.54401V7.54401C4.27979 7.67661 4.33246 7.80379 4.42623 7.89756C4.52 7.99133 4.64718 8.04401 4.77979 8.04401C4.91239 8.04401 5.03957 7.99133 5.13334 7.89756C5.22711 7.80379 5.27978 7.67661 5.27978 7.54401V3.54401Z" fill="#565656"/>
</svg>
