<svg width="14" height="14" viewBox="0 0 14 14" fill="none" xmlns="http://www.w3.org/2000/svg">
<path d="M7 0C3.1402 0 0 3.1402 0 7C0 10.8598 3.1402 14 7 14C10.8598 14 14 10.8598 14 7C14 3.1402 10.8598 0 7 0ZM7 11.9C4.2987 11.9 2.1 9.702 2.1 7C2.1 4.298 4.2987 2.1 7 2.1C9.7013 2.1 11.9 4.298 11.9 7C11.9 9.702 9.7013 11.9 7 11.9Z" fill="#565656"/>
<path d="M7 3.5C5.0701 3.5 3.5 5.0701 3.5 7C3.5 8.9299 5.0701 10.5 7 10.5C8.9299 10.5 10.5 8.9299 10.5 7C10.5 5.0701 8.9299 3.5 7 3.5ZM7 8.4C6.2279 8.4 5.6 7.7721 5.6 7C5.6 6.2279 6.2279 5.6 7 5.6C7.7721 5.6 8.4 6.2279 8.4 7C8.4 7.7721 7.7721 8.4 7 8.4Z" fill="#565656"/>
</svg>
