<svg width="25" height="24" viewBox="0 0 25 24" fill="none" xmlns="http://www.w3.org/2000/svg">
<path fill-rule="evenodd" clip-rule="evenodd" d="M17.5092 8.97003C17.6496 9.11066 17.7285 9.30128 17.7285 9.50003C17.7285 9.69878 17.6496 9.88941 17.5092 10.03L13.5092 14.03C13.3685 14.1705 13.1779 14.2494 12.9792 14.2494C12.7804 14.2494 12.5898 14.1705 12.4492 14.03L8.44916 10.03C8.37547 9.96137 8.31637 9.87857 8.27538 9.78657C8.23438 9.69457 8.21234 9.59526 8.21057 9.49455C8.20879 9.39385 8.22731 9.29382 8.26503 9.20043C8.30276 9.10705 8.3589 9.02221 8.43012 8.95099C8.50134 8.87978 8.58617 8.82363 8.67956 8.78591C8.77295 8.74819 8.87298 8.72966 8.97368 8.73144C9.07438 8.73322 9.1737 8.75526 9.2657 8.79625C9.35769 8.83724 9.44049 8.89635 9.50916 8.97003L12.9792 12.44L16.4492 8.97003C16.5898 8.82958 16.7804 8.75069 16.9792 8.75069C17.1779 8.75069 17.3685 8.82958 17.5092 8.97003Z" fill="#707070"/>
</svg>
