<svg width="18" height="18" viewBox="0 0 18 18" fill="none" xmlns="http://www.w3.org/2000/svg">
<path d="M12.6743 9.2981L7.04932 14.9231C6.96935 14.9976 6.86357 15.0382 6.75428 15.0363C6.64498 15.0343 6.5407 14.9901 6.46341 14.9128C6.38611 14.8355 6.34184 14.7312 6.33991 14.6219C6.33798 14.5126 6.37855 14.4068 6.45307 14.3268L11.7792 8.99997L6.45307 3.6731C6.37855 3.59313 6.33798 3.48735 6.33991 3.37806C6.34184 3.26876 6.38611 3.16448 6.46341 3.08719C6.5407 3.00989 6.64498 2.96562 6.75428 2.96369C6.86357 2.96176 6.96935 3.00233 7.04932 3.07685L12.6743 8.70185C12.7533 8.78095 12.7977 8.88818 12.7977 8.99997C12.7977 9.11177 12.7533 9.219 12.6743 9.2981Z" fill="white"/>
</svg>
