<svg width="10" height="6" viewBox="0 0 10 6" fill="none" xmlns="http://www.w3.org/2000/svg">
<path d="M4.49644 5.50528C4.61944 5.62827 4.78309 5.70215 4.95669 5.71307C5.13028 5.72398 5.3019 5.67118 5.43934 5.56457L5.50648 5.50528L9.79241 1.21936L9.8517 1.15221L9.89027 1.09721L9.92884 1.02863L9.94099 1.00292L9.96027 0.955059L9.98313 0.877913L9.99027 0.840054L9.99742 0.797194L10.0003 0.756478L10.0017 0.714333L10.0003 0.672188L9.9967 0.630758L9.99027 0.587899L9.98313 0.550754L9.96027 0.473608L9.94099 0.425747L9.89098 0.331457L9.84455 0.267169L9.79241 0.209309L9.72526 0.15002L9.67026 0.111447L9.60168 0.0728736L9.57597 0.06073L9.52811 0.0414433L9.45096 0.0185852L9.4131 0.0114417L9.37024 0.00429821L9.32953 0.00144148L9.28738 1.28746e-05H0.715537C0.106936 1.28746e-05 -0.210936 0.704333 0.156224 1.15936L0.210513 1.21936L4.49644 5.50528Z" fill="#565656"/>
</svg>
