<svg xmlns="http://www.w3.org/2000/svg" version="1.1" xmlns:xlink="http://www.w3.org/1999/xlink" xmlns:svgjs="http://svgjs.dev/svgjs" viewBox="0 0 800 800"><defs><linearGradient x1="50%" y1="0%" x2="50%" y2="100%" id="ccchaos-grad"><stop stop-color="hsl(0, 0%, 30%)" stop-opacity="1" offset="0%"></stop><stop stop-color="hsl(0, 0%, 7%)" stop-opacity="1" offset="100%"></stop></linearGradient></defs><g stroke-width="2" stroke="url(#ccchaos-grad)" fill="none" stroke-linecap="round"><path d="M418.03 99.72C428.33 99.96 438.75 101.19 449.26 103.35 459.77 105.94 470.33 109.35 480.86 113.48 491.32 117.84 501.63 122.75 511.67 128.12 521.46 133.48 530.77 139.14 539.43 145.02 547.6 150.69 554.88 156.48 561.08 162.32 566.59 167.84 570.89 173.39 573.91 178.94 576.99 186.74 578.49 202.06 578.77 209.73 580.13 214.64 582.52 219.75 586.4 225.08 592.44 230.25 600.5 235.71 610.66 241.47 622.86 247.16 636.58 253.19 651.18 259.56 665.95 265.91 679.87 272.64 691.89 279.72 701.36 286.8 707.3 294.25 709.14 302.05 707.31 309.85 701.6 317.99 692.69 326.44 682.35 334.89 671.27 343.65 660.91 352.7 653.29 361.74 648.91 371.06 648.54 380.64 652.77 390.23 660.49 399.86 670.56 409.53 682.23 419.2 693.35 428.93 702.49 438.71 709.15 448.52 711.84 458.41 710.28 468.37 704.96 478.41 695.87 488.55 683.86 498.78 670.07 509.12 655.33 519.57 640.67 530.1 627.04 540.74 615.02 551.44 605.02 562.16 597.44 572.92 592.05 583.62 588.56 594.19 587.04 604.65 586.62 614.84 586.73 624.62 587.53 634.09 587.94 642.98 587.58 651.14 586.82 658.74 584.79 665.42 581.42 671.04 577.21 675.91 571.65 679.59 564.86 682.02 557.33 683.66 548.81 684.06 539.54 683.25 529.81 681.84 519.59 679.44 509.07 676.16 498.35 672.76 487.52 668.86 476.7 664.69 465.84 661.01 455.07 657.49 444.47 654.34 433.89 652.26 423.49 650.86 413.3 650.27 403.11 651.01 393.36 652.55 384 654.77 374.6 658.03 365.55 661.64 356.8 665.39 347.95 669.61 339.32 673.52 330.86 676.92 322.2 680.17 313.61 682.53 305.03 683.87 296.17 684.6 287.23 684.1 278.19 682.36 268.82 679.82 259.32 676.02 249.71 671.04 239.88 665.31 230.05 658.53 220.3 650.84 210.61 642.6 201.24 633.64 192.36 624.1 183.9 614.27 176.18 604.04 169.36 593.55 163.21 582.96 158.06 572.25 153.95 561.49 150.42 550.78 147.75 540.08 145.82 529.47 143.98 518.96 142.47 508.53 141.09 498.22 139.2 488.01 137.08 477.9 134.66 467.89 131.45 457.96 127.93 448.09 124.23 438.29 120.1 428.54 116.2 418.83 112.81 409.17 109.77 399.52 107.74 389.89 106.95 380.31 107.01 370.73 108.4 361.41 110.97 352.37 114.08 343.32 117.95 334.56 122.28 326.09 126.4 317.63 130.51 309.48 134.42 301.67 137.58 293.87 140.41 286.41 142.92 279.32 144.75 272.23 146.54 265.5 148.44 259.14 150.21 252.77 152.51 246.74 155.51 241.06 158.94 235.31 163.32 229.87 168.68 224.71 174.72 219.41 181.73 214.33 189.58 209.45 197.98 204.34 207.02 199.35 216.53 194.46 226.27 189.25 236.25 184.08 246.35 178.94 256.36 173.45 266.35 167.95 276.25 162.48 285.92 156.68 295.49 150.93 304.96 145.29 314.18 139.44 323.37 133.79 332.57 128.44 341.58 123.07 350.69 118.15 359.95 113.77 369.11 109.61 378.49 106.16 388.15 103.52 397.77 101.31 407.72 100.02 418.02 99.72" stroke-dasharray="3 3" transform="rotate(0, 400, 400)" opacity="0.68"></path><path d="M421.81 110.31C431.79 110.53 441.76 111.71 451.66 113.77 461.53 116.26 471.3 119.53 480.86 123.5 490.32 127.71 499.46 132.47 508.16 137.68 516.6 142.92 524.43 148.48 531.5 154.26 538.14 159.89 543.86 165.65 548.57 171.49 552.77 177.04 555.93 182.64 558.09 188.25 560.56 196.18 563.45 211.76 565.74 219.52 568.78 224.48 573.04 229.6 578.86 234.9 586.66 240.03 596.24 245.4 607.54 251.03 620.33 256.56 634.08 262.4 648.13 268.54 661.82 274.64 674.24 281.08 684.49 287.85 692.13 294.61 696.36 301.71 696.78 309.14 693.97 316.56 687.79 324.32 678.93 332.4 669.04 340.47 658.69 348.86 649.19 357.55 642.29 366.23 638.39 375.21 638.12 384.48 642.05 393.75 649.16 403.11 658.46 412.52 669.36 421.95 679.95 431.46 688.95 441.04 695.92 450.66 699.44 460.36 699.15 470.15 695.42 480 688.08 489.96 677.77 499.99 665.45 510.09 651.76 520.29 637.64 530.53 623.97 540.82 611.33 551.14 600.22 561.42 591.08 571.67 583.88 581.81 578.5 591.74 575.08 601.52 572.97 610.96 571.73 619.95 571.49 628.59 571.34 636.62 570.88 643.89 569.78 653.54 561.94 666.89 554.77 670.26 548.99 671.42 542.21 671.47 534.56 670.44 526.47 668.93 517.74 666.54 508.52 663.39 499.07 660.19 489.31 656.57 479.39 652.73 469.38 649.38 459.31 646.19 449.25 643.34 439.18 641.47 429.16 640.22 419.23 639.68 409.3 640.37 399.68 641.75 390.35 643.74 380.99 646.71 371.86 649.99 362.94 653.41 353.92 657.3 345.03 660.94 336.23 664.15 327.25 667.28 318.28 669.63 309.27 671.09 300.04 672.05 290.72 671.92 281.31 670.66 271.69 668.7 262 665.58 252.28 661.35 242.51 656.44 232.85 650.51 223.41 643.69 214.19 636.33 205.41 628.22 197.23 619.51 189.57 610.47 182.71 600.98 176.77 591.16 171.48 581.2 167.15 571.04 163.77 560.77 160.85 550.49 158.67 540.17 157.07 529.88 155.44 519.65 154.01 509.47 152.6 499.38 150.6 489.37 148.33 479.44 145.72 469.61 142.33 459.84 138.65 450.15 134.82 440.55 130.61 430.99 126.66 421.5 123.25 412.08 120.21 402.68 118.18 393.33 117.36 384.07 117.42 374.8 118.78 365.82 121.3 357.14 124.41 348.46 128.28 340.07 132.64 331.99 136.86 323.91 141.1 316.14 145.17 308.71 148.54 301.28 151.57 294.17 154.25 287.42 156.22 280.64 158.05 274.21 159.88 268.11 161.45 261.97 163.41 256.15 165.92 250.63 168.72 245.02 172.36 239.66 176.88 234.56 182.01 229.29 188.09 224.21 195.04 219.28 202.57 214.12 210.83 209.06 219.68 204.08 228.87 198.79 238.44 193.53 248.24 188.3 258.12 182.74 268.09 177.19 278.06 171.68 287.92 165.88 297.72 160.16 307.45 154.56 317.01 148.79 326.51 143.25 335.98 138.02 345.3 132.8 354.65 128.03 364.06 123.79 373.39 119.79 382.84 116.48 392.45 113.94 402.03 111.83 411.81 110.59 421.8 110.31" stroke-dasharray="4 10" transform="rotate(4.04, 400, 400)" opacity="0.09"></path><path d="M422.26 120.9C431.86 121.11 441.28 122.23 450.49 124.2 459.67 126.57 468.58 129.7 477.14 133.51 485.59 137.56 493.58 142.15 501.02 147.2 508.22 152.3 514.74 157.73 520.49 163.4 525.91 168.95 530.47 174.66 534.15 180.47 537.55 186.04 540.14 191.66 542.03 197.31 544.74 205.36 550.39 221.18 555.03 229.04 559.8 234.06 565.84 239.21 573.36 244.51 582.58 249.64 593.26 254.96 605.22 260.51 618.15 265.94 631.51 271.64 644.66 277.61 657.03 283.52 667.82 289.73 676.28 296.24 682.17 302.73 684.82 309.53 684 316.66 680.39 323.76 673.9 331.19 665.19 338.93 655.81 346.67 646.22 354.71 637.54 363.07 631.34 371.42 627.88 380.08 627.71 389.04 631.34 398 637.86 407.07 646.42 416.22 656.57 425.38 666.59 434.64 675.37 443.99 682.52 453.36 686.72 462.83 687.53 472.38 685.27 481.98 679.59 491.66 670.98 501.41 660.24 511.2 647.83 521.05 634.57 530.9 621.25 540.77 608.42 550.61 596.63 560.35 586.33 570.03 577.64 579.53 570.57 588.76 565.32 597.81 561.44 606.47 558.64 614.63 557.03 622.44 555.87 629.61 554.78 636.03 553.47 644.44 547.45 655.66 541.99 658.23 537.6 659 532.26 658.77 526.06 657.57 519.47 656 512.16 653.66 504.24 650.67 496.08 647.68 487.48 644.35 478.54 640.84 469.5 637.81 460.23 634.93 450.81 632.36 441.37 630.7 431.83 629.59 422.23 629.1 412.64 629.72 403.2 630.96 393.94 632.74 384.65 635.42 375.48 638.39 366.41 641.49 357.27 645.06 348.18 648.42 339.1 651.42 329.89 654.4 320.65 656.72 311.35 658.24 301.91 659.38 292.4 659.54 282.85 658.69 273.2 657.24 263.57 654.73 254.03 651.19 244.56 647.03 235.33 641.91 226.45 635.92 217.9 629.41 209.89 622.16 202.58 614.29 195.81 606.06 189.87 597.34 184.84 588.25 180.4 578.98 176.83 569.44 174.1 559.74 171.71 549.99 169.91 540.14 168.55 530.27 167.03 520.41 165.6 510.57 164.09 500.79 161.93 491.05 159.47 481.38 156.65 471.8 153.09 462.26 149.26 452.8 145.31 443.44 141.05 434.12 137.07 424.87 133.65 415.71 130.62 406.58 128.6 397.52 127.78 388.56 127.81 379.61 129.14 370.95 131.61 362.61 134.68 354.25 138.53 346.2 142.9 338.47 147.19 330.73 151.54 323.3 155.77 316.2 159.35 309.07 162.6 302.27 165.49 295.79 167.65 289.28 169.59 283.07 171.44 277.18 172.93 271.22 174.66 265.54 176.79 260.13 179.07 254.6 182.05 249.3 185.79 244.21 190.05 238.94 195.2 233.83 201.19 228.85 207.76 223.63 215.11 218.49 223.1 213.41 231.53 208.05 240.45 202.71 249.71 197.4 259.18 191.8 268.85 186.22 278.62 180.7 288.41 174.92 298.2 169.25 307.97 163.72 317.66 158.06 327.3 152.64 336.88 147.55 346.38 142.49 355.86 137.88 365.32 133.8 374.73 129.96 384.17 126.79 393.65 124.36 403.11 122.34 412.65 121.17 422.25 120.9" stroke-dasharray="11 6" transform="rotate(8.08, 400, 400)" opacity="0.54"></path><path d="M419.32 131.48C428.46 131.68 437.29 132.74 445.79 134.62 454.25 136.87 462.32 139.86 469.94 143.5 477.45 147.38 484.43 151.8 490.8 156.67 496.99 161.61 502.51 166.89 507.3 172.44 511.89 177.89 515.76 183.52 518.93 189.27 522.03 194.82 524.59 200.45 526.76 206.12 529.21 211.52 531.61 216.97 534.22 222.44 537.67 227.65 541.78 232.91 546.8 238.24 553.17 243.33 560.76 248.53 569.65 253.86 579.88 259 591.21 264.31 603.36 269.81 616 275.19 628.61 280.79 640.58 286.63 651.46 292.39 660.54 298.43 667.24 304.74 671.48 311.01 672.72 317.57 670.85 324.43 666.62 331.26 659.95 338.41 651.5 345.85 642.68 353.28 633.84 361.02 625.96 369.06 620.42 377.1 617.38 385.45 617.29 394.1 620.65 402.76 626.61 411.53 634.46 420.39 643.85 429.26 653.28 438.24 661.75 447.31 668.98 456.39 673.7 465.57 675.45 474.82 674.5 484.09 670.39 493.44 663.45 502.82 654.35 512.22 643.37 521.63 631.22 531.02 618.6 540.38 606 549.66 593.95 558.8 582.92 567.83 573.11 576.64 564.67 585.14 557.79 593.42 552.23 601.28 547.81 608.62 543.41 618.77 537.8 634.8 535.08 640.32 531.96 644.1 521.85 646.19 514.62 644.66 509.26 643.07 503.16 640.81 496.41 638 489.45 635.24 481.95 632.2 473.99 629.01 465.92 626.29 457.49 623.71 448.77 621.41 440.02 619.94 431.04 618.95 421.85 618.51 412.66 619.08 403.49 620.19 394.37 621.77 385.24 624.18 376.12 626.84 367.01 629.63 357.87 632.88 348.69 635.96 339.49 638.74 330.22 641.55 320.89 643.79 311.52 645.35 302.09 646.6 292.63 646.99 283.2 646.48 273.8 645.47 264.5 643.5 255.39 640.58 246.48 637.11 237.91 632.73 229.79 627.53 222.09 621.84 214.99 615.42 208.63 608.37 202.81 600.97 197.8 593.05 193.65 584.71 190 576.17 187.12 567.32 184.94 558.26 182.97 549.09 181.44 539.79 180.21 530.42 178.71 521.03 177.19 511.61 175.51 502.21 173.16 492.83 170.48 483.49 167.44 474.22 163.7 464.98 159.74 455.81 155.7 446.73 151.4 437.68 147.42 428.71 144.01 419.85 141.02 411 139.02 402.23 138.19 393.59 138.21 384.94 139.49 376.59 141.89 368.56 144.91 360.52 148.71 352.79 153.06 345.36 157.39 337.92 161.83 330.78 166.2 323.96 169.98 317.1 173.46 310.54 176.59 304.29 178.99 297.99 181.11 291.96 183.07 286.22 185.38 277.6 191.17 261.35 195.46 253.6 198.92 248.31 203.17 243.15 208.22 238.1 213.8 232.82 220.15 227.6 227.18 222.44 234.69 217.01 242.75 211.62 251.26 206.26 260.07 200.63 269.17 195.05 278.48 189.54 287.9 183.81 297.43 178.21 306.97 172.77 316.54 167.24 326.09 161.97 335.58 157.02 345.05 152.14 354.48 147.7 363.84 143.79 373.18 140.12 382.48 137.09 391.73 134.78 400.97 132.86 410.17 131.74 419.31 131.48" stroke-dasharray="6 1" transform="rotate(12.12, 400, 400)" opacity="0.38"></path><path d="M413.44 142.07C422.06 142.26 430.29 143.26 438.11 145.03 445.89 147.17 453.21 150.01 460.03 153.48 466.76 157.18 472.94 161.42 478.53 166.1 484.01 170.87 488.87 175.98 493.13 181.37 497.31 186.7 500.94 192.23 504.1 197.9 507.37 203.41 510.35 209 513.22 214.66 516.54 220.09 520.07 225.57 524.02 231.08 528.87 236.36 534.48 241.69 541.03 247.07 548.75 252.23 557.55 257.49 567.38 262.84 578.18 268.02 589.7 273.34 601.61 278.82 613.57 284.16 625.12 289.7 635.69 295.46 644.97 301.12 652.35 307.02 657.37 313.17 660.1 319.26 660.1 325.63 657.38 332.27 652.69 338.87 645.99 345.76 637.88 352.94 629.66 360.1 621.58 367.55 614.47 375.31 609.54 383.05 606.89 391.09 606.88 399.44 609.97 407.79 615.4 416.25 622.56 424.8 631.22 433.36 640.03 442.02 648.14 450.76 655.34 459.51 660.42 468.34 662.96 477.22 663.15 486.12 660.47 495.06 655.12 504 647.66 512.93 638.22 521.85 627.37 530.69 615.74 539.48 603.73 548.15 591.84 556.63 580.52 564.98 570.03 573.06 560.58 580.8 552.38 588.3 545.36 595.36 539.42 601.89 532.74 610.84 523.67 624.64 520.02 629.22 512 632.81 494.13 629.09 485.71 625.4 479.74 622.88 473.18 620.12 466.11 617.24 458.94 614.82 451.32 612.53 443.3 610.47 435.25 609.19 426.85 608.32 418.13 607.92 409.42 608.44 400.61 609.42 391.74 610.82 382.87 612.97 373.93 615.35 364.94 617.84 355.94 620.78 346.87 623.58 337.75 626.12 328.62 628.75 319.44 630.88 310.25 632.42 301.09 633.75 291.95 634.31 282.92 634.08 274.01 633.44 265.3 631.92 256.88 629.55 248.73 626.7 241.01 623.01 233.82 618.53 227.06 613.62 220.95 607.99 215.57 601.74 210.7 595.15 206.58 588.03 203.24 580.47 200.28 572.68 197.96 564.55 196.22 556.16 194.53 547.65 193.16 538.96 191.96 530.15 190.38 521.29 188.7 512.36 186.81 503.42 184.23 494.47 181.32 485.53 178.06 476.64 174.17 467.76 170.09 458.93 165.98 450.18 161.67 441.45 157.71 432.8 154.34 424.24 151.4 415.7 149.43 407.25 148.61 398.91 148.61 390.57 149.83 382.53 152.15 374.79 155.09 367.05 158.82 359.6 163.13 352.44 167.47 345.27 171.97 338.39 176.45 331.8 180.42 325.17 184.12 318.81 187.49 312.74 190.16 306.6 192.53 300.72 194.67 295.07 197.09 286.59 202.29 270.42 205.84 262.64 208.62 257.32 212.08 252.11 216.24 246.99 220.85 241.65 226.2 236.37 232.23 231.14 238.71 225.67 245.8 220.23 253.39 214.84 261.32 209.23 269.64 203.66 278.25 198.19 287.05 192.55 296.03 187.04 305.11 181.72 314.28 176.34 323.49 171.23 332.66 166.45 341.88 161.76 351.04 157.5 360.12 153.77 369.22 150.27 378.23 147.39 387.12 145.2 396.02 143.37 404.81 142.31 413.43 142.07" stroke-dasharray="4 7" transform="rotate(16.16, 400, 400)" opacity="0.47"></path><path d="M405.51 152.66C413.59 152.83 421.24 153.78 428.45 155.45 435.63 157.47 442.34 160.16 448.54 163.45 454.7 166.97 460.34 171.01 465.46 175.49 470.54 180.07 475.13 185 479.25 190.21 483.41 195.4 487.22 200.8 490.77 206.36 494.56 211.79 498.3 217.33 502.14 222.94 506.53 228.37 511.29 233.85 516.6 239.38 522.76 244.7 529.69 250.08 537.48 255.5 546.22 260.72 555.81 266.02 566.13 271.41 577.06 276.62 588.32 281.96 599.59 287.43 610.57 292.77 620.82 298.28 629.87 303.96 637.51 309.55 643.23 315.35 646.68 321.37 648.07 327.33 647.03 333.53 643.63 339.98 638.65 346.38 632.04 353.05 624.35 359.99 616.75 366.9 609.41 374.1 603.04 381.56 598.7 389.02 596.4 396.77 596.46 404.8 599.3 412.83 604.23 420.97 610.73 429.18 618.67 437.41 626.85 445.71 634.54 454.08 641.6 462.46 646.92 470.89 650.08 479.35 651.25 487.81 649.85 496.29 645.98 504.73 640.12 513.15 632.26 521.5 622.85 529.75 612.43 537.92 601.31 545.94 589.95 553.72 578.76 561.36 568.02 568.7 557.98 575.66 548.85 582.4 540.68 588.68 533.46 594.42 527.31 599.84 521.99 604.64 517.34 608.77 507.09 617.05 492.85 620.52 487.08 618.79 480.7 616.28 465.02 609.35 455.75 605.54 449.33 603.4 442.41 601.38 435.05 599.56 427.65 598.45 419.85 597.69 411.65 597.33 403.46 597.8 395.09 598.67 386.59 599.89 378.11 601.8 369.5 603.91 360.8 606.11 352.12 608.75 343.36 611.27 334.55 613.57 325.78 616 317 618 308.25 619.49 299.59 620.84 291.04 621.52 282.66 621.5 274.47 621.16 266.55 620.03 259 618.13 251.78 615.83 245.03 612.75 238.84 608.95 233.09 604.74 227.97 599.87 223.55 594.38 219.55 588.57 216.24 582.23 213.58 575.44 211.19 568.42 209.3 561.03 207.85 553.35 206.33 545.53 204.99 537.48 203.71 529.28 201.99 521.01 200.1 512.64 197.95 504.2 195.12 495.75 191.97 487.27 188.51 478.8 184.47 470.34 180.3 461.91 176.15 453.53 171.86 445.16 167.95 436.86 164.64 428.64 161.77 420.43 159.84 412.3 159.02 404.28 159 396.25 160.16 388.51 162.39 381.06 165.23 373.6 168.87 366.41 173.1 359.51 177.41 352.58 181.94 345.92 186.5 339.53 190.64 333.1 194.55 326.91 198.17 320.97 201.12 314.97 203.77 309.19 206.14 303.63 208.83 295.23 213.84 279.1 216.86 271.27 219.11 265.92 221.91 260.66 225.31 255.48 229.04 250.1 233.44 244.77 238.48 239.49 243.93 234 249.98 228.56 256.56 223.17 263.5 217.59 270.87 212.08 278.6 206.68 286.57 201.14 294.79 195.76 303.18 190.58 311.71 185.37 320.34 180.44 328.98 175.85 337.7 171.35 346.4 167.29 355.03 163.73 363.69 160.41 372.26 157.68 380.69 155.61 389.13 153.89 397.42 152.89 405.5 152.66" stroke-dasharray="6 7" transform="rotate(20.200000000000003, 400, 400)" opacity="0.89"></path><path d="M396.74 163.25C404.27 163.4 411.4 164.29 418.11 165.87 424.8 167.77 431.05 170.3 436.86 173.4 442.66 176.74 448.02 180.57 452.98 184.84 457.95 189.22 462.58 193.95 466.9 198.97 471.36 203.99 475.65 209.23 479.87 214.65 484.41 219.97 489.07 225.42 493.99 230.96 499.47 236.35 505.42 241.81 511.93 247.33 519.19 252.66 527.14 258.05 535.79 263.49 545.14 268.75 555.07 274.09 565.43 279.49 576.05 284.74 586.68 290.1 596.98 295.56 606.74 300.9 615.53 306.38 622.99 312.01 629.02 317.55 633.17 323.27 635.21 329.18 635.45 335.03 633.56 341.08 629.67 347.36 624.55 353.59 618.14 360.07 610.92 366.78 603.96 373.47 597.35 380.41 591.69 387.6 587.9 394.78 585.93 402.23 586.05 409.94 588.65 417.65 593.1 425.44 598.97 433.3 606.21 441.16 613.76 449.08 620.99 457.04 627.82 465.01 633.25 473 636.87 480.99 638.84 488.97 638.55 496.93 636.03 504.82 631.68 512.68 625.38 520.44 617.47 528.05 608.42 535.58 598.44 542.91 587.92 549.98 577.25 556.9 566.67 563.5 556.46 569.71 546.84 575.7 537.9 581.23 529.72 586.23 522.42 590.94 515.86 595.06 509.99 598.54 502.58 602.92 490.33 607.73 484.74 608.18 479.37 607.61 467.26 603.53 460.21 600.42 455.33 598.39 449.97 596.18 444.13 593.9 438.26 592.04 431.91 590.27 425.12 588.68 418.3 587.72 411.05 587.06 403.4 586.75 395.74 587.17 387.88 587.93 379.86 588.99 371.86 590.67 363.73 592.52 355.5 594.45 347.31 596.79 339.05 599.04 330.77 601.11 322.57 603.32 314.4 605.17 306.32 606.58 298.38 607.91 290.6 608.66 283.07 608.8 275.77 608.68 268.79 607.88 262.24 606.38 256.01 604.55 250.27 602.02 245.11 598.81 240.33 595.25 236.14 591.06 232.59 586.29 229.37 581.22 226.71 575.63 224.61 569.59 222.63 563.33 221.03 556.68 219.72 549.71 218.24 542.6 216.83 535.23 215.38 527.67 213.45 520.03 211.29 512.25 208.86 504.37 205.79 496.46 202.41 488.49 198.76 480.5 194.61 472.5 190.38 464.5 186.22 456.54 181.98 448.57 178.14 440.65 174.9 432.79 172.12 424.94 170.25 417.15 169.44 409.45 169.4 401.75 170.49 394.31 172.61 387.13 175.34 379.94 178.86 373.01 182.98 366.34 187.24 359.64 191.76 353.18 196.37 346.96 200.63 340.7 204.72 334.66 208.57 328.83 211.81 322.95 214.75 317.25 217.41 311.74 220.46 303.41 225.65 287.29 228.4 279.42 230.28 274.05 232.59 268.76 235.37 263.53 238.36 258.13 241.93 252.78 246.08 247.49 250.54 242.01 255.58 236.59 261.15 231.23 267.04 225.72 273.4 220.3 280.14 215 287.14 209.6 294.45 204.37 301.99 199.35 309.69 194.33 317.55 189.59 325.49 185.2 333.53 180.92 341.59 177.06 349.61 173.69 357.68 170.55 365.68 167.97 373.56 166.03 381.45 164.4 389.19 163.46 396.73 163.25" stroke-dasharray="4 9" transform="rotate(24.24, 400, 400)" opacity="0.60"></path><path d="M388.46 173.83C395.48 173.98 402.15 174.81 408.47 176.28 414.78 178.06 420.74 180.44 426.35 183.36 431.98 186.5 437.3 190.12 442.33 194.17 447.44 198.33 452.34 202.85 457.1 207.65 462.05 212.48 466.99 217.54 472 222.79 477.37 227.98 482.97 233.3 488.9 238.74 495.36 244.05 502.28 249.45 509.73 254.91 517.77 260.23 526.35 265.6 535.44 271.03 544.96 276.31 554.79 281.65 564.77 287.06 574.72 292.33 584.39 297.68 593.49 303.13 601.85 308.47 609.12 313.92 614.99 319.5 620.85 327.82 621.03 345.17 615.55 354.25 610.42 360.33 604.3 366.61 597.61 373.11 591.3 379.58 585.41 386.27 580.41 393.19 577.12 400.1 575.46 407.24 575.63 414.62 578 421.99 582 429.42 587.28 436.89 593.84 444.37 600.75 451.88 607.48 459.4 614.02 466.92 619.44 474.44 623.37 481.92 625.97 489.39 626.62 496.8 625.29 504.11 622.33 511.38 617.53 518.52 611.12 525.47 603.53 532.34 594.85 538.98 585.42 545.34 575.58 551.56 565.54 557.43 555.57 562.92 545.87 568.19 536.59 573.02 527.84 577.33 519.73 581.39 512.23 584.89 505.35 587.8 496.27 591.43 481.02 595.19 474.28 595.35 468.02 594.68 455.09 590.86 448.05 588.06 440.72 585.3 424.14 579.96 414.83 577.81 408.49 577 401.74 576.44 394.62 576.16 387.5 576.54 380.19 577.2 372.73 578.1 365.3 579.57 357.75 581.18 350.13 582.86 342.56 584.92 334.96 586.9 327.4 588.72 319.93 590.71 312.53 592.39 305.29 593.7 298.21 594.97 291.35 595.75 284.78 595.99 275.46 595.77 259.34 591.87 252.76 588.15 247.18 583.39 238.99 570.68 236.19 562.91 234.46 557.37 233 551.44 231.71 545.18 230.15 538.78 228.57 532.1 226.88 525.2 224.68 518.21 222.24 511.04 219.52 503.76 216.21 496.42 212.62 488.99 208.81 481.51 204.59 474.02 200.33 466.49 196.18 458.97 192.02 451.44 188.28 443.93 185.14 436.45 182.45 428.98 180.65 421.55 179.85 414.18 179.8 406.82 180.81 399.68 182.82 392.78 185.42 385.87 188.8 379.18 192.79 372.72 196.96 366.24 201.43 359.97 206.04 353.91 210.39 347.81 214.63 341.9 218.68 336.18 222.19 330.39 225.43 324.77 228.39 319.3 231.89 311.04 237.59 294.95 240.28 287.06 241.97 281.68 243.97 276.38 246.31 271.14 248.74 265.75 251.65 260.41 255.03 255.13 258.64 249.7 262.77 244.33 267.39 239.04 272.28 233.64 277.62 228.33 283.37 223.16 289.36 217.93 295.68 212.87 302.28 208.05 309.06 203.23 316.03 198.71 323.15 194.53 330.37 190.47 337.67 186.82 344.99 183.64 352.36 180.68 359.71 178.26 366.97 176.44 374.26 174.91 381.44 174.03 388.45 173.83" stroke-dasharray="10 6" transform="rotate(28.28, 400, 400)" opacity="0.25"></path><path d="M381.94 184.42C388.48 184.55 394.78 185.32 400.81 186.7 406.85 188.35 412.65 190.57 418.22 193.31 423.83 196.25 429.25 199.66 434.53 203.47 439.9 207.41 445.21 211.69 450.52 216.27 456.03 220.89 461.64 225.74 467.43 230.79 473.55 235.81 479.95 240.98 486.71 246.27 493.89 251.47 501.49 256.77 509.51 262.15 517.93 267.41 526.73 272.73 535.82 278.11 545.1 283.37 554.44 288.69 563.67 294.07 572.64 299.33 581.12 304.67 588.85 310.08 595.75 315.4 601.5 320.82 605.85 326.34 609.67 334.57 607.2 351.61 601.32 360.47 596.32 366.4 590.56 372.5 584.43 378.78 578.78 385.04 573.57 391.49 569.2 398.13 566.39 404.76 565 411.59 565.22 418.62 567.37 425.64 570.95 432.7 575.67 439.77 581.57 446.84 587.85 453.91 594.06 460.97 600.23 468.02 605.54 475.03 609.64 481.99 612.71 488.91 614.12 495.76 613.81 502.47 612.09 509.13 608.67 515.64 603.71 521.94 597.6 528.15 590.31 534.11 582.13 539.78 573.38 545.31 564.18 550.5 554.8 555.3 545.43 559.91 536.22 564.08 527.31 567.78 518.8 571.25 510.73 574.2 503.15 576.62 496.08 578.79 489.48 580.42 483.29 581.49 474.84 582.51 459.58 581.76 452.33 580.19 445.29 578.27 430.54 573.41 422.61 570.84 417.24 569.47 411.57 568.16 405.58 566.97 399.59 566.29 393.28 565.82 386.67 565.57 380.05 565.91 373.29 566.47 366.44 567.24 359.62 568.51 352.72 569.89 345.81 571.33 338.95 573.12 332.12 574.85 325.36 576.44 318.71 578.2 312.2 579.7 305.88 580.88 296.77 582.45 280.39 583.12 273.34 582.05 267.1 580.1 257.27 573.06 253.66 568.03 250.58 562.17 245.78 547.93 243.64 539.73 241.91 534.02 240.08 528.02 238.11 521.78 235.62 515.44 232.88 508.91 229.88 502.22 226.35 495.48 222.58 488.62 218.66 481.68 214.39 474.71 210.14 467.68 206.05 460.62 201.99 453.56 198.37 446.48 195.35 439.41 192.77 432.34 191.04 425.28 190.27 418.26 190.19 411.24 191.13 404.41 193.02 397.79 195.47 391.16 198.69 384.72 202.52 378.47 206.56 372.21 210.94 366.12 215.51 360.21 219.9 354.27 224.25 348.49 228.46 342.86 232.21 337.18 235.73 331.63 238.99 326.22 242.98 318.03 249.44 302.02 252.28 294.14 254.88 286.15 261.19 270.29 265.22 262.42 268.15 257.07 271.53 251.79 275.33 246.62 279.33 241.34 283.76 236.19 288.58 231.19 293.59 226.14 298.96 221.29 304.62 216.67 310.44 212.09 316.51 207.79 322.77 203.83 329.12 200 335.61 196.56 342.18 193.58 348.8 190.81 355.46 188.55 362.11 186.85 368.77 185.43 375.39 184.6 381.93 184.42" stroke-dasharray="4 2" transform="rotate(32.32, 400, 400)" opacity="0.44"></path><path d="M378.18 195.01C384.3 195.13 390.28 195.84 396.11 197.12 401.96 198.65 407.69 200.71 413.31 203.26 418.97 206 424.57 209.19 430.15 212.76 435.83 216.46 441.56 220.5 447.38 224.83 453.4 229.22 459.58 233.84 465.99 238.67 472.67 243.49 479.64 248.47 486.92 253.59 494.51 258.64 502.41 263.8 510.6 269.05 519.01 274.21 527.61 279.45 536.3 284.74 544.96 289.94 553.49 295.2 561.69 300.52 569.47 305.73 576.61 311.02 582.9 316.38 588.34 321.65 592.62 327.01 595.58 332.45 597.63 340.57 593.08 357.28 587.05 365.91 582.27 371.67 576.94 377.59 571.41 383.64 566.39 389.68 561.84 395.88 558.06 402.23 555.69 408.58 554.55 415.09 554.8 421.75 556.75 428.42 559.94 435.08 564.12 441.73 569.39 448.38 575.05 455 580.72 461.57 586.48 468.14 591.58 474.64 595.73 481.04 599.1 487.42 601.1 493.69 601.63 499.8 600.97 505.86 598.8 511.74 595.2 517.39 590.51 522.96 584.64 528.27 577.81 533.28 570.3 538.17 562.19 542.71 553.69 546.88 545 550.88 536.23 554.47 527.55 557.61 519.04 560.56 510.79 563.04 502.88 565.03 495.31 566.84 488.12 568.15 481.29 568.97 471.75 569.73 454.44 568.89 446.37 567.46 438.64 565.78 423.15 561.6 415.17 559.41 407.07 557.71 389.87 555.39 380.74 554.98 374.58 555.28 368.37 555.76 362.13 556.4 355.91 557.49 349.69 558.66 343.52 559.87 337.39 561.41 331.35 562.88 325.45 564.24 316.83 566.44 300.88 569.57 293.75 570.24 281.8 569.2 268.36 562.21 265.34 557.95 262.59 552.94 257.8 540.57 255.38 533.35 253.39 528.3 251.28 522.95 248.98 517.35 246.19 511.66 243.17 505.75 239.92 499.66 236.2 493.53 232.3 487.24 228.29 480.84 224.03 474.42 219.83 467.9 215.83 461.33 211.9 454.75 208.43 448.12 205.54 441.47 203.08 434.82 201.43 428.15 200.68 421.49 200.59 414.83 201.45 408.32 203.2 401.98 205.5 395.64 208.54 389.45 212.18 383.43 216.06 377.38 220.32 371.49 224.8 365.74 229.18 359.96 233.57 354.31 237.9 348.8 241.84 343.23 245.61 337.77 249.15 332.42 252.21 327 255.06 321.67 257.72 316.43 261.02 308.47 266.92 292.75 269.89 284.98 272.87 277.1 280.27 261.57 284.86 253.96 288.15 248.86 291.81 243.89 295.84 239.08 300 234.26 304.51 229.63 309.33 225.24 314.26 220.9 319.46 216.84 324.9 213.12 330.41 209.52 336.11 206.31 341.95 203.53 347.84 200.94 353.83 198.84 359.88 197.26 365.94 195.94 372.05 195.18 378.17 195.01" stroke-dasharray="9 10" transform="rotate(36.36, 400, 400)" opacity="0.49"></path><path d="M377.73 205.6C383.49 205.7 389.21 206.36 394.89 207.54 400.59 208.95 406.28 210.85 411.97 213.21 423.48 218.47 435.26 225.3 447.5 233.35 460.37 241.66 474.14 250.87 488.83 260.7 504.22 270.39 520.26 280.52 536.24 290.93 551.5 301.02 565.05 311.4 575.52 322 582.76 332.31 585.37 342.95 582.93 353.9 577.45 364.68 568.71 375.91 558.54 387.57 554.16 393.38 550.22 399.31 547 405.36 545.02 411.41 544.11 417.59 544.39 423.88 546.14 430.17 548.96 436.44 552.65 442.65 557.32 448.86 562.37 455.02 567.49 461.1 578.01 473.23 585.61 484.96 588.83 496.06 588.24 506.94 582.41 516.98 572.25 525.88 559.29 534.34 544.04 541.42 527.92 546.9 511.75 551.77 496.16 554.93 481.62 556.32 468.1 557.28 455.58 556.72 443.84 554.82 432.79 553.17 421.94 550.8 411.06 548.04 402.96 546.65 386.33 544.74 377.75 544.4 369.14 544.86 352.18 546.99 343.93 548.48 333.12 551.34 322.96 553.79 313.76 555.48 304.96 557.4 297.36 557.94 291.2 556.94 285.38 555.5 280.83 552.26 277.42 547.32 273.62 541.76 270.21 534.59 266.76 526.05 261.79 517.08 256.1 506.97 249.6 496.04 241.55 484.9 233.27 473.13 225.52 460.98 221.76 454.88 218.44 448.72 215.7 442.5 213.38 436.28 211.82 430.02 211.1 423.72 210.99 417.43 211.77 411.26 213.38 405.22 215.52 399.17 218.35 393.25 221.79 387.46 229.34 375.82 238.03 364.63 246.99 353.89 254.8 342.98 261.95 332.38 268.34 322.13 273.09 311.59 277.49 301.26 281.93 291.22 285.64 280.85 290.13 270.76 295.66 261.11 301.28 251.29 308.22 242.08 316.39 233.76 324.82 225.68 334.34 218.8 344.69 213.47 352.59 210.1 369.15 206.1 377.72 205.6" stroke-dasharray="0 2" transform="rotate(40.400000000000006, 400, 400)" opacity="0.24"></path><path d="M380.68 216.18C391.55 216.6 402.67 219.01 414.04 223.17 425.57 228.01 437.62 234.34 450.23 241.84 463.29 249.63 477.12 258.32 491.54 267.64 506.19 276.91 520.96 286.65 535.06 296.7 548.03 306.52 558.93 316.63 566.67 326.94 571.49 337.03 572.21 347.41 568.7 358.02 563.01 368.5 554.87 379.34 545.84 390.48 539.03 401.59 534.67 413.08 533.97 424.9 538.34 436.72 545.69 448.29 554.38 459.48 564.05 470.62 571.52 481.27 575.5 491.22 576.48 500.98 572.91 509.86 565.32 517.62 555.01 525.01 542.1 531.1 527.79 535.72 512.89 539.87 497.94 542.51 483.54 543.6 469.72 544.41 456.69 543.93 444.45 542.3 432.75 540.98 421.49 539.04 410.53 536.75 399.74 535.54 388.95 534.51 378.15 533.81 367.35 534.66 357.04 535.83 347.37 537.16 337.78 539.55 329.01 541.57 321.26 542.94 310.54 544.83 295.01 541.76 289.6 536.21 285.61 531.52 281.73 525.35 277.64 517.9 272.07 510.06 265.82 501.12 258.93 491.32 250.78 481.32 242.61 470.64 235.14 459.47 228.21 448.26 223.41 436.67 221.51 424.86 221.82 413.04 225.29 401.56 231.34 390.48 238.49 379.35 246.89 368.55 255.75 358.11 263.77 347.53 271.37 337.2 278.32 327.16 283.79 316.89 288.83 306.82 293.7 297.04 297.68 287.03 302.12 277.32 307.29 268.07 312.28 258.75 318.35 250.06 325.5 242.25 332.75 234.71 341.09 228.33 350.35 223.42 359.67 219.19 369.81 216.7 380.67 216.18" stroke-dasharray="3 2" transform="rotate(44.44, 400, 400)" opacity="0.47"></path><path d="M386.58 226.77C396.86 227.14 407.65 229.33 418.87 233.13 430.22 237.56 442.17 243.38 454.65 250.31 467.37 257.55 480.63 265.67 494.11 274.44 507.45 283.22 520.43 292.49 532.3 302.09 542.84 311.54 551.14 321.29 556.38 331.23 559.15 341.01 558.41 351.04 554.23 361.25 548.6 371.36 541.19 381.74 533.32 392.34 527.6 402.9 524.04 413.74 523.55 424.76 527.41 435.79 533.79 446.48 541.41 456.7 550.16 466.86 557.31 476.47 561.72 485.34 563.91 494.03 562.23 501.85 556.96 508.59 549.21 515.03 538.78 520.27 526.6 524.18 513.48 527.74 499.79 529.97 486.18 530.86 472.75 531.61 459.8 531.24 447.52 529.91 435.6 528.92 424.19 527.38 413.29 525.52 402.53 524.62 392.05 523.82 381.88 523.22 371.7 523.96 362.27 524.89 353.66 525.9 345.08 527.86 337.4 529.47 330.74 530.52 321.34 532.07 307.14 529.46 301.5 524.71 297.11 520.75 292.66 515.45 287.88 508.96 281.76 502.16 275.06 494.29 267.89 485.55 259.77 476.64 251.82 467 244.68 456.81 238.18 446.57 233.71 435.87 231.93 424.84 232.15 413.81 235.3 402.98 240.87 392.44 247.55 381.86 255.56 371.51 264.18 361.43 272.28 351.25 280.16 341.26 287.57 331.52 293.71 321.61 299.42 311.9 304.85 302.48 309.33 292.9 314.02 283.65 319.17 274.88 323.96 266.11 329.56 257.98 336.09 250.71 342.55 243.74 350.03 237.87 358.47 233.37 366.9 229.5 376.28 227.23 386.58 226.77" stroke-dasharray="3 8" transform="rotate(48.48, 400, 400)" opacity="0.73"></path><path d="M394.51 237.36C404.25 237.68 414.58 239.66 425.4 243.11 436.3 247.13 447.75 252.43 459.59 258.79 471.49 265.45 483.63 272.97 495.64 281.13 507.25 289.35 518.12 298.08 527.61 307.15 535.75 316.15 541.65 325.45 544.76 334.93 545.89 344.3 544.1 353.9 539.61 363.63 534.28 373.29 527.72 383.16 520.98 393.15 516.28 403.12 513.44 413.26 513.14 423.48 516.52 433.7 522 443.5 528.58 452.77 536.37 462 543.03 470.61 547.61 478.47 550.62 486.19 550.45 493.05 547.17 498.89 541.77 504.5 533.77 509.02 523.87 512.35 512.86 515.44 500.89 517.37 488.6 518.16 476.16 518.9 463.88 518.69 452.05 517.66 440.4 516.98 429.21 515.83 418.58 514.36 408.06 513.74 397.96 513.14 388.36 512.63 378.77 513.26 370.06 513.99 362.26 514.72 354.44 516.28 347.54 517.5 341.57 518.24 332.94 519.42 319 517.02 312.78 512.92 307.89 509.55 302.81 504.99 297.39 499.34 290.82 493.45 283.79 486.55 276.49 478.79 268.53 470.89 260.89 462.24 254.17 453 248.13 443.71 244 433.89 242.34 423.67 242.49 413.45 245.31 403.31 250.37 393.35 256.53 383.38 264.05 373.53 272.32 363.9 280.33 354.19 288.33 344.62 296.04 335.28 302.74 325.82 309.06 316.55 315.07 307.58 320.17 298.52 325.32 289.8 330.71 281.58 335.62 273.41 341.12 265.87 347.35 259.17 353.4 252.78 360.34 247.42 368.2 243.34 376 239.82 384.77 237.77 394.51 237.36" stroke-dasharray="3 7" transform="rotate(52.52, 400, 400)" opacity="0.08"></path><path d="M403.28 247.95C412.47 248.23 422.2 250 432.34 253.1 442.52 256.71 453.1 261.5 463.86 267.27 474.53 273.33 485.16 280.22 495.35 287.73 504.99 295.35 513.66 303.47 520.82 311.94 526.74 320.39 530.58 329.14 531.98 338.08 531.89 346.96 529.46 356.03 524.98 365.21 520.13 374.34 514.47 383.62 508.83 392.96 505.07 402.29 502.86 411.71 502.72 421.11 505.66 430.51 510.31 439.44 515.91 447.8 522.72 456.12 528.77 463.81 533.27 470.75 537.23 480.58 529.8 495.51 519.27 500.34 510.49 503.07 500.52 504.8 489.91 505.55 478.94 506.32 467.82 506.3 456.89 505.57 445.98 505.19 435.39 504.38 425.29 503.27 415.25 502.89 405.66 502.47 396.62 502.05 387.58 502.58 379.46 503.12 372.24 503.6 361.75 505.23 344.59 506.91 337.47 506.18 332.49 505.43 327.77 503.69 323.13 500.94 317.71 498.04 312.06 494.09 306.1 489.16 299.22 484.05 292.04 478.01 284.77 471.15 277.09 464.18 269.86 456.46 263.6 448.13 258.06 439.75 254.29 430.81 252.76 421.41 252.83 412 255.32 402.58 259.86 393.27 265.46 383.94 272.42 374.67 280.21 365.56 287.96 356.4 295.9 347.34 303.72 338.49 310.8 329.57 317.6 320.83 324.12 312.39 329.85 303.93 335.52 295.81 341.28 288.18 346.54 280.66 352.19 273.74 358.37 267.64 364.32 261.83 370.99 256.99 378.45 253.32 385.83 250.15 394.1 248.3 403.28 247.95" stroke-dasharray="3 5" transform="rotate(56.56, 400, 400)" opacity="0.68"></path><path d="M411.55 258.53C420.14 258.77 429.12 260.34 438.35 263.1 447.58 266.31 457 270.59 466.37 275.77 475.56 281.23 484.45 287.47 492.66 294.3 500.31 301.25 506.86 308.71 511.91 316.52 515.93 324.35 518.1 332.48 518.23 340.79 517.34 349.08 514.65 357.55 510.43 366.09 506.2 374.62 501.47 383.25 496.88 391.89 493.97 400.53 492.32 409.18 492.31 417.76 494.84 426.34 498.72 434.41 503.41 441.9 509.24 449.36 514.58 456.19 518.8 462.3 523.29 470.96 520.08 484.01 512.6 488.25 506 490.7 498.1 492.3 489.36 493.07 480.15 493.91 470.54 494.08 460.85 493.64 451.07 493.53 441.42 493.04 432.1 492.25 422.8 492.07 413.86 491.8 405.4 491.46 396.93 491.91 389.31 492.28 382.48 492.54 372.49 493.7 355.52 494.56 348.01 493.68 342.7 492.92 337.5 491.32 332.3 488.87 326.41 486.33 320.31 482.88 314 478.56 306.98 474.12 299.82 468.83 292.74 462.78 285.46 456.64 278.74 449.79 273 442.31 267.97 434.81 264.57 426.73 263.17 418.15 263.18 409.57 265.34 400.91 269.35 392.28 274.35 383.65 280.68 375.03 287.89 366.51 295.22 357.97 302.91 349.52 310.64 341.24 317.87 332.94 324.96 324.82 331.85 316.99 338.09 309.18 344.25 301.72 350.4 294.75 356.09 287.89 362.01 281.63 368.27 276.13 374.3 270.91 380.87 266.57 388.05 263.31 395.14 260.48 402.97 258.84 411.55 258.53" stroke-dasharray="10 1" transform="rotate(60.599999999999994, 400, 400)" opacity="0.08"></path><path d="M418.06 269.12C425.98 269.32 434.09 270.69 442.25 273.13 450.38 275.94 458.46 279.72 466.28 284.31 473.88 289.16 480.98 294.73 487.29 300.86 493.08 307.13 497.75 313.87 501.03 320.96 503.54 328.1 504.48 335.54 503.8 343.15 502.48 350.77 499.82 358.56 496.07 366.41 492.55 374.26 488.74 382.18 485.12 390.07 482.96 397.97 481.8 405.85 481.9 413.6 484.05 421.34 487.25 428.58 491.08 435.25 495.97 441.9 500.54 447.94 504.33 453.31 508.84 466.68 496.23 479.2 486.4 480.78 479.07 481.7 471.13 482.06 462.9 481.89 454.51 482.02 446.04 481.8 437.7 481.29 429.34 481.29 421.18 481.15 413.35 480.87 405.51 481.24 398.33 481.47 391.8 481.55 382.16 482.29 365 482.41 357.02 481.36 351.37 480.56 345.76 479.04 340.11 476.81 333.91 474.54 327.56 471.49 321.08 467.68 314.14 463.81 307.19 459.17 300.46 453.84 293.7 448.45 287.55 442.39 282.38 435.73 277.88 429.05 274.85 421.8 273.59 414.05 273.53 406.29 275.37 398.41 278.86 390.52 283.25 382.63 288.89 374.71 295.42 366.87 302.19 359.03 309.43 351.25 316.86 343.63 324.02 336.02 331.16 328.58 338.18 321.44 344.74 314.34 351.23 307.58 357.67 301.3 363.73 295.14 369.91 289.55 376.28 284.65 382.44 280.02 388.96 276.19 395.89 273.32 402.75 270.83 410.14 269.39 418.06 269.12" stroke-dasharray="10 8" transform="rotate(64.64, 400, 400)" opacity="0.97"></path><path d="M421.82 279.71C429.01 279.87 436.16 281.06 443.16 283.17 450.12 285.6 456.82 288.89 463.09 292.91 469.15 297.15 474.6 302.05 479.2 307.46 483.39 313.01 486.54 319.01 488.48 325.35 489.89 331.74 490.05 338.43 488.94 345.28 487.53 352.16 485.13 359.2 482 366.3 479.22 373.4 476.29 380.56 473.56 387.67 472.05 394.79 471.3 401.87 471.48 408.79 473.29 415.71 475.87 422.15 478.92 428.05 484.81 436.59 494.28 450.67 496.26 456.1 496.06 460.83 488.01 467.08 480.77 468.71 475.21 469.72 468.96 470.25 462.24 470.32 455.35 470.65 448.19 470.67 440.95 470.39 433.68 470.54 426.41 470.5 419.26 470.28 412.11 470.58 405.41 470.7 399.14 470.63 392.81 470.98 386.84 471.03 381.17 470.74 375.34 470.72 369.67 470.23 364.13 469.25 358.28 468.39 352.4 466.92 346.5 464.85 340.2 462.79 333.82 460.06 327.43 456.69 320.76 453.28 314.2 449.21 307.96 444.52 301.82 439.8 296.32 434.46 291.74 428.58 287.79 422.67 285.12 416.23 284.01 409.3 283.89 402.37 285.42 395.29 288.4 388.17 292.16 381.06 297.07 373.9 302.86 366.8 308.95 359.7 315.59 352.66 322.51 345.78 329.34 338.92 336.27 332.23 343.18 325.82 349.8 319.48 356.39 313.46 362.93 307.88 369.19 302.44 375.5 297.51 381.88 293.23 388.09 289.17 394.51 285.83 401.15 283.35 407.73 281.18 414.63 279.93 421.82 279.71" stroke-dasharray="6 10" transform="rotate(68.68, 400, 400)" opacity="0.37"></path><path d="M422.25 290.3C435.05 290.85 446.84 294.88 456.72 301.57 465.97 309.05 472.27 318.74 474.68 329.75 475.88 341.04 473.44 353.37 468.3 365.93 464.79 378.57 461.87 391.36 461.06 403.58 465.26 415.79 470.8 426.19 475.77 434.46 482.23 445.71 472.8 457.55 458.47 458.94 447.45 460.19 435.04 460.42 422.24 459.7 409.44 460.57 397.45 460.46 386.3 459.32 374.65 459.06 363.04 457.03 351.51 453.11 339.04 449.32 326.6 443.25 315.32 435.04 304.72 426.75 297.16 416.34 294.42 404.11 294.94 391.89 300.75 379.09 310.28 366.45 321.16 353.87 333.87 341.53 347 330.21 359.6 319.16 372.3 309.42 384.81 301.87 396.91 295.09 409.45 290.96 422.25 290.3" stroke-dasharray="1 7" transform="rotate(72.72, 400, 400)" opacity="0.75"></path><path d="M419.29 300.88C430.41 301.31 440.01 304.68 447.5 310.32 454.56 316.6 458.91 324.83 460.12 334.26 460.8 343.96 458.84 354.6 455.04 365.5 452.84 376.48 451.06 387.6 450.65 398.2 453.99 408.8 458.14 417.82 461.87 425.02 467.41 434.9 462.22 445.96 451.58 447.76 443.17 449.19 433.02 449.65 421.83 449.11 410.65 449.78 399.53 449.43 388.75 448.09 377.66 447.47 366.41 445.35 355.31 441.66 343.76 438.15 332.51 432.75 322.6 425.58 313.52 418.37 307.14 409.35 304.84 398.74 305.12 388.13 309.83 377 317.75 366.01 327 355.1 338.13 344.43 349.92 334.69 361.62 325.23 373.56 316.94 385.22 310.59 396.67 304.87 408.17 301.41 419.29 300.88" stroke-dasharray="7 2" transform="rotate(76.76, 400, 400)" opacity="0.61"></path><path d="M413.39 311.47C422.8 311.79 430.48 314.53 436.13 319.17 441.53 324.3 444.64 331.1 445.35 338.95 445.98 347.03 444.76 355.98 442.29 365.18 441.22 374.46 440.35 383.89 440.23 392.91 442.82 401.92 445.78 409.62 448.35 415.83 452.62 424.44 449.76 434.7 441.96 436.77 435.7 438.29 427.6 438.91 418.1 438.52 408.59 439.01 398.65 438.5 388.69 437.06 378.6 436.17 368.27 434.02 358.16 430.59 347.97 427.33 338.23 422.56 329.88 416.36 322.35 410.15 317.13 402.45 315.25 393.43 315.34 384.4 319.01 374.96 325.36 365.66 332.88 356.44 342.19 347.47 352.27 339.35 362.55 331.46 373.18 324.61 383.54 319.4 393.86 314.69 403.99 311.87 413.39 311.47" stroke-dasharray="6 2" transform="rotate(80.80000000000001, 400, 400)" opacity="0.48"></path><path d="M405.45 322.06C416.18 323.35 428.99 334.88 430.91 343.9 431.77 350.41 431.36 357.65 430.09 365.16 429.9 372.74 429.73 380.48 429.82 387.94 432.72 398.61 438.13 414.46 438.06 419.55 436.11 423.8 422.57 427.85 411.6 427.93 403.8 428.28 395.32 427.67 386.65 426.23 377.97 425.18 369.05 423.07 360.42 419.95 351.91 416.99 343.92 412.83 337.23 407.56 331.25 402.31 327.15 395.88 325.67 388.42 325.6 380.95 328.32 373.2 333.18 365.6 338.97 358.07 346.33 350.8 354.48 344.26 362.94 337.91 371.82 332.44 380.52 328.33 389.26 324.58 397.76 322.35 405.45 322.06" stroke-dasharray="6 2" transform="rotate(84.84, 400, 400)" opacity="0.71"></path><path d="M396.68 332.65C408.73 333.25 415.59 339.66 417.3 349.2 419.92 359.27 420.14 371.68 419.4 383.53 423.23 395.38 425.27 404.31 423.71 409.5 422.51 415.16 415.59 418.03 403.34 417.35 391.09 418.17 376.27 415.41 362.5 409.83 349.48 404.7 339.18 395.8 336.08 383.94 336.68 372.08 345.04 359.63 356.98 349.49 370.08 339.88 384.62 333.37 396.68 332.65" stroke-dasharray="10 3" transform="rotate(88.88, 400, 400)" opacity="0.97"></path><path d="M388.41 343.23C397.27 343.57 402.75 348.07 404.93 354.9 407.85 362.05 409.1 371.05 408.99 379.89 411.69 392.2 406.16 405.87 394.57 406.76 385.57 407.23 374.72 404.8 364.86 400.24 355.64 395.98 348.55 389.05 346.5 380.21 346.59 371.37 352.05 362.34 360.2 355.13 369.19 348.25 379.55 343.66 388.41 343.23" stroke-dasharray="2 9" transform="rotate(92.92, 400, 400)" opacity="0.08"></path><path d="M381.91 353.82C393.53 354.44 399.27 365.43 398.57 377.17 402.22 388.91 398.38 396.83 386.62 396.17 374.85 396.97 360.19 389.14 356.91 377.4 357.54 365.65 370.28 354.57 381.91 353.82" stroke-dasharray="4 2" transform="rotate(96.96, 400, 400)" opacity="0.51"></path></g></svg>