<svg width="12" height="11" viewBox="0 0 12 11" fill="none" xmlns="http://www.w3.org/2000/svg">
<path d="M11 5.5C11 3.14313 11 1.96438 10.2675 1.2325C9.535 0.500625 8.35688 0.5 6 0.5C3.64313 0.5 2.46438 0.5 1.7325 1.2325C1.00062 1.965 1 3.14313 1 5.5V9.25C1 9.83938 1 10.1338 1.18313 10.3169C1.36625 10.5 1.66063 10.5 2.25 10.5H6C8.35688 10.5 9.53562 10.5 10.2675 9.7675C10.9994 9.035 11 7.85688 11 5.5Z" stroke="#989898"/>
<path d="M4.125 4.25H7.875M4.125 6.75H6" stroke="#989898" stroke-linecap="round" stroke-linejoin="round"/>
</svg>
