<svg width="18" height="18" viewBox="0 0 18 18" fill="none" xmlns="http://www.w3.org/2000/svg">
<path fill-rule="evenodd" clip-rule="evenodd" d="M17.543 3.704C18 4.807 18 6.204 18 9C18 11.796 18 13.194 17.543 14.296C16.934 15.7661 15.7661 16.934 14.296 17.543C13.194 18 11.796 18 9 18H6C3.172 18 1.757 18 0.879 17.121C-5.96046e-08 16.243 0 14.828 0 12V9C0 6.204 2.98023e-08 4.807 0.457 3.704C1.06596 2.23393 2.23393 1.06596 3.704 0.457C4.807 2.98023e-08 6.204 0 9 0C11.796 0 13.194 2.98023e-08 14.296 0.457C15.7661 1.06596 16.934 2.23393 17.543 3.704ZM5 7C5 6.73478 5.10536 6.48043 5.29289 6.29289C5.48043 6.10536 5.73478 6 6 6H12C12.2652 6 12.5196 6.10536 12.7071 6.29289C12.8946 6.48043 13 6.73478 13 7C13 7.26522 12.8946 7.51957 12.7071 7.70711C12.5196 7.89464 12.2652 8 12 8H6C5.73478 8 5.48043 7.89464 5.29289 7.70711C5.10536 7.51957 5 7.26522 5 7ZM5 11C5 10.7348 5.10536 10.4804 5.29289 10.2929C5.48043 10.1054 5.73478 10 6 10H9C9.26522 10 9.51957 10.1054 9.70711 10.2929C9.89464 10.4804 10 10.7348 10 11C10 11.2652 9.89464 11.5196 9.70711 11.7071C9.51957 11.8946 9.26522 12 9 12H6C5.73478 12 5.48043 11.8946 5.29289 11.7071C5.10536 11.5196 5 11.2652 5 11Z" fill="#565656"/>
</svg>
