<svg width="13" height="13" viewBox="0 0 13 13" fill="none" xmlns="http://www.w3.org/2000/svg">
<path d="M6.33333 0.166656C8.01304 0.166656 9.62395 0.833916 10.8117 2.02165C11.9994 3.20938 12.6667 4.82029 12.6667 6.49999C12.6667 8.17969 11.9994 9.7906 10.8117 10.9783C9.62395 12.1661 8.01304 12.8333 6.33333 12.8333C4.65363 12.8333 3.04272 12.1661 1.85499 10.9783C0.66726 9.7906 0 8.17969 0 6.49999C0 4.82029 0.66726 3.20938 1.85499 2.02165C3.04272 0.833916 4.65363 0.166656 6.33333 0.166656ZM6.33333 0.833323C4.83044 0.833323 3.3891 1.43035 2.3264 2.49305C1.26369 3.55576 0.666667 4.9971 0.666667 6.49999C0.666667 8.00288 1.26369 9.44422 2.3264 10.5069C3.3891 11.5696 4.83044 12.1667 6.33333 12.1667C7.07749 12.1667 7.81436 12.0201 8.50187 11.7353C9.18938 11.4505 9.81407 11.0331 10.3403 10.5069C10.8665 9.98073 11.2839 9.35604 11.5687 8.66853C11.8534 7.98102 12 7.24415 12 6.49999C12 4.9971 11.403 3.55576 10.3403 2.49305C9.27757 1.43035 7.83623 0.833323 6.33333 0.833323Z" fill="#989898"/>
</svg>
