<svg width="13" height="13" viewBox="0 0 13 13" fill="none" xmlns="http://www.w3.org/2000/svg">
<path d="M6.33492 0.165009C7.58786 0.165009 8.81267 0.53655 9.85446 1.23265C10.8962 1.92875 11.7082 2.91814 12.1877 4.07571C12.6672 5.23328 12.7926 6.50704 12.5482 7.73591C12.3038 8.96477 11.7004 10.0936 10.8144 10.9795C9.92848 11.8655 8.79969 12.4688 7.57082 12.7133C6.34195 12.9577 5.06819 12.8323 3.91062 12.3528C2.75305 11.8733 1.76366 11.0613 1.06756 10.0195C0.371464 8.97776 -7.82013e-05 7.75295 -7.82013e-05 6.50001C0.00169549 4.82041 0.669701 3.2101 1.85736 2.02245C3.04502 0.834787 4.65532 0.166782 6.33492 0.165009ZM11.6953 6.50001C11.6937 5.07884 11.1284 3.71634 10.1235 2.71142C9.11859 1.70651 7.75609 1.14124 6.33492 1.13962V11.8604C7.75609 11.8588 9.11859 11.2935 10.1235 10.2886C11.1284 9.28367 11.6937 7.92118 11.6953 6.50001Z" fill="#989898"/>
</svg>
