<svg width="22" height="24" viewBox="0 0 22 24" fill="none" xmlns="http://www.w3.org/2000/svg">
<path d="M8.03415 3.96154L8.75467 2.08308C8.87618 1.76503 9.08997 1.49146 9.36803 1.29821C9.64609 1.10495 9.97546 1.00101 10.313 1H11.687C12.0245 1.00101 12.3539 1.10495 12.632 1.29821C12.91 1.49146 13.1238 1.76503 13.2453 2.08308L13.9658 3.96154L16.4123 5.38308L18.3895 5.07846C18.7187 5.03333 19.0538 5.08806 19.3522 5.23572C19.6505 5.38337 19.8987 5.61727 20.0651 5.90769L20.7354 7.09231C20.9071 7.38736 20.9862 7.72807 20.9623 8.06948C20.9384 8.41089 20.8125 8.73694 20.6013 9.00462L19.3781 10.5785V13.4215L20.6348 14.9954C20.846 15.2631 20.9719 15.5891 20.9958 15.9305C21.0197 16.2719 20.9406 16.6126 20.7689 16.9077L20.0986 18.0923C19.9322 18.3827 19.684 18.6166 19.3857 18.7643C19.0873 18.9119 18.7522 18.9667 18.423 18.9215L16.4458 18.6169L13.9994 20.0385L13.2788 21.9169C13.1573 22.235 12.9435 22.5085 12.6655 22.7018C12.3874 22.8951 12.0581 22.999 11.7205 23H10.313C9.97546 22.999 9.64609 22.8951 9.36803 22.7018C9.08997 22.5085 8.87618 22.235 8.75467 21.9169L8.03415 20.0385L5.58774 18.6169L3.61051 18.9215C3.28128 18.9667 2.9462 18.9119 2.64784 18.7643C2.34948 18.6166 2.10132 18.3827 1.93489 18.0923L1.26464 16.9077C1.09289 16.6126 1.01376 16.2719 1.0377 15.9305C1.06163 15.5891 1.1875 15.2631 1.39869 14.9954L2.6219 13.4215V10.5785L1.36518 9.00462C1.15399 8.73694 1.02812 8.41089 1.00418 8.06948C0.980252 7.72807 1.05938 7.38736 1.23113 7.09231L1.90138 5.90769C2.06781 5.61727 2.31597 5.38337 2.61433 5.23572C2.91268 5.08806 3.24777 5.03333 3.577 5.07846L5.55423 5.38308L8.03415 3.96154ZM7.64876 12C7.64876 12.8977 8.00183 13.7585 8.63031 14.3933C9.25879 15.028 10.1112 15.3846 11 15.3846C11.8888 15.3846 12.7412 15.028 13.3697 14.3933C13.9982 13.7585 14.3512 12.8977 14.3512 12C14.3512 11.1023 13.9982 10.2415 13.3697 9.60672C12.7412 8.97198 11.8888 8.61538 11 8.61538C10.1112 8.61538 9.25879 8.97198 8.63031 9.60672C8.00183 10.2415 7.64876 11.1023 7.64876 12Z" stroke="#565656" stroke-width="2" stroke-linecap="round" stroke-linejoin="round"/>
</svg>
