<svg width="19" height="18" viewBox="0 0 19 18" fill="none" xmlns="http://www.w3.org/2000/svg">
<path d="M9.05133 12.15C8.18869 12.15 7.36139 11.8181 6.75141 11.2274C6.14143 10.6366 5.79875 9.83543 5.79875 9C5.79875 8.16457 6.14143 7.36335 6.75141 6.77261C7.36139 6.18188 8.18869 5.85 9.05133 5.85C9.91397 5.85 10.7413 6.18188 11.3513 6.77261C11.9612 7.36335 12.3039 8.16457 12.3039 9C12.3039 9.83543 11.9612 10.6366 11.3513 11.2274C10.7413 11.8181 9.91397 12.15 9.05133 12.15ZM15.9561 9.873C15.9933 9.585 16.0212 9.297 16.0212 9C16.0212 8.703 15.9933 8.406 15.9561 8.1L17.917 6.633C18.0935 6.498 18.14 6.255 18.0285 6.057L16.1698 2.943C16.0583 2.745 15.8074 2.664 15.603 2.745L13.289 3.645C12.8057 3.294 12.3039 2.988 11.7185 2.763L11.3746 0.378002C11.3557 0.271997 11.2987 0.175886 11.2137 0.106698C11.1286 0.0375101 11.021 -0.000287797 10.91 1.65012e-06H7.19271C6.96039 1.65012e-06 6.76523 0.162002 6.72806 0.378002L6.38421 2.763C5.79875 2.988 5.29692 3.294 4.81368 3.645L2.4997 2.745C2.29525 2.664 2.04433 2.745 1.93282 2.943L0.0741962 6.057C-0.0466142 6.255 0.00914456 6.498 0.185714 6.633L2.14656 8.1C2.10939 8.406 2.08151 8.703 2.08151 9C2.08151 9.297 2.10939 9.585 2.14656 9.873L0.185714 11.367C0.00914456 11.502 -0.0466142 11.745 0.0741962 11.943L1.93282 15.057C2.04433 15.255 2.29525 15.327 2.4997 15.255L4.81368 14.346C5.29692 14.706 5.79875 15.012 6.38421 15.237L6.72806 17.622C6.76523 17.838 6.96039 18 7.19271 18H10.91C11.1423 18 11.3374 17.838 11.3746 17.622L11.7185 15.237C12.3039 15.003 12.8057 14.706 13.289 14.346L15.603 15.255C15.8074 15.327 16.0583 15.255 16.1698 15.057L18.0285 11.943C18.14 11.745 18.0935 11.502 17.917 11.367L15.9561 9.873Z" fill="#565656"/>
</svg>
