<svg width="13" height="17" viewBox="0 0 13 17" fill="none" xmlns="http://www.w3.org/2000/svg">
<path d="M11.1538 1C11.3783 1 11.5935 1.0878 11.7522 1.24408C11.9109 1.40036 12 1.61232 12 1.83333V15.1667C12 15.3877 11.9109 15.5996 11.7522 15.7559C11.5935 15.9122 11.3783 16 11.1538 16H8.61538C8.39097 16 8.17575 15.9122 8.01706 15.7559C7.85838 15.5996 7.76923 15.3877 7.76923 15.1667V1.83333C7.76923 1.61232 7.85838 1.40036 8.01706 1.24408C8.17575 1.0878 8.39097 1 8.61538 1H11.1538ZM4.38462 1C4.60903 1 4.82425 1.0878 4.98294 1.24408C5.14162 1.40036 5.23077 1.61232 5.23077 1.83333V15.1667C5.23077 15.3877 5.14162 15.5996 4.98294 15.7559C4.82425 15.9122 4.60903 16 4.38462 16H1.84615C1.62174 16 1.40652 15.9122 1.24783 15.7559C1.08915 15.5996 1 15.3877 1 15.1667V1.83333C1 1.61232 1.08915 1.40036 1.24783 1.24408C1.40652 1.0878 1.62174 1 1.84615 1H4.38462Z" stroke="#565656" stroke-linecap="round" stroke-linejoin="round"/>
</svg>
