<svg width="373" height="209" viewBox="0 0 373 209" fill="none" xmlns="http://www.w3.org/2000/svg">
<g clip-path="url(#clip0_3873_197)">
<rect width="373" height="208.18" rx="13" fill="#252525"/>
<g filter="url(#filter0_f_3873_197)">
<path d="M182.123 290.666L143.594 215.37L196.848 230.419L267.718 193.597L320.3 43L317.96 240.821L182.123 290.666Z" fill="#D3B12A" fill-opacity="0.2"/>
</g>
<g filter="url(#filter1_f_3873_197)">
<path d="M22 116L57 -57L159 84L22 116Z" fill="#80E451" fill-opacity="0.2"/>
</g>
<rect x="58.6" y="45.6" width="256.8" height="38.8" rx="6.4" fill="white"/>
<rect x="58.6" y="45.6" width="256.8" height="38.8" rx="6.4" stroke="#D1D5DB" stroke-width="0.8" stroke-linejoin="round"/>
<path d="M76.868 67.14H73.22L72.548 69H71.396L74.42 60.684H75.68L78.692 69H77.54L76.868 67.14ZM76.556 66.252L75.044 62.028L73.532 66.252H76.556ZM79.6019 65.7C79.6019 65.02 79.7379 64.428 80.0099 63.924C80.2819 63.412 80.6579 63.016 81.1379 62.736C81.6259 62.456 82.1819 62.316 82.8059 62.316C83.6139 62.316 84.2779 62.512 84.7979 62.904C85.3259 63.296 85.6739 63.84 85.8419 64.536H84.6659C84.5539 64.136 84.3339 63.82 84.0059 63.588C83.6859 63.356 83.2859 63.24 82.8059 63.24C82.1819 63.24 81.6779 63.456 81.2939 63.888C80.9099 64.312 80.7179 64.916 80.7179 65.7C80.7179 66.492 80.9099 67.104 81.2939 67.536C81.6779 67.968 82.1819 68.184 82.8059 68.184C83.2859 68.184 83.6859 68.072 84.0059 67.848C84.3259 67.624 84.5459 67.304 84.6659 66.888H85.8419C85.6659 67.56 85.3139 68.1 84.7859 68.508C84.2579 68.908 83.5979 69.108 82.8059 69.108C82.1819 69.108 81.6259 68.968 81.1379 68.688C80.6579 68.408 80.2819 68.012 80.0099 67.5C79.7379 66.988 79.6019 66.388 79.6019 65.7ZM95.207 62.304C95.719 62.304 96.175 62.412 96.575 62.628C96.975 62.836 97.291 63.152 97.523 63.576C97.755 64 97.871 64.516 97.871 65.124V69H96.791V65.28C96.791 64.624 96.627 64.124 96.299 63.78C95.979 63.428 95.543 63.252 94.991 63.252C94.423 63.252 93.971 63.436 93.635 63.804C93.299 64.164 93.131 64.688 93.131 65.376V69H92.051V65.28C92.051 64.624 91.887 64.124 91.559 63.78C91.239 63.428 90.803 63.252 90.251 63.252C89.683 63.252 89.231 63.436 88.895 63.804C88.559 64.164 88.391 64.688 88.391 65.376V69H87.299V62.424H88.391V63.372C88.607 63.028 88.895 62.764 89.255 62.58C89.623 62.396 90.027 62.304 90.467 62.304C91.019 62.304 91.507 62.428 91.931 62.676C92.355 62.924 92.671 63.288 92.879 63.768C93.063 63.304 93.367 62.944 93.791 62.688C94.215 62.432 94.687 62.304 95.207 62.304ZM105.662 65.46C105.662 65.668 105.65 65.888 105.626 66.12H100.37C100.41 66.768 100.63 67.276 101.03 67.644C101.438 68.004 101.93 68.184 102.506 68.184C102.978 68.184 103.37 68.076 103.682 67.86C104.002 67.636 104.226 67.34 104.354 66.972H105.53C105.354 67.604 105.002 68.12 104.474 68.52C103.946 68.912 103.29 69.108 102.506 69.108C101.882 69.108 101.322 68.968 100.826 68.688C100.338 68.408 99.9543 68.012 99.6743 67.5C99.3943 66.98 99.2543 66.38 99.2543 65.7C99.2543 65.02 99.3903 64.424 99.6623 63.912C99.9343 63.4 100.314 63.008 100.802 62.736C101.298 62.456 101.866 62.316 102.506 62.316C103.13 62.316 103.682 62.452 104.162 62.724C104.642 62.996 105.01 63.372 105.266 63.852C105.53 64.324 105.662 64.86 105.662 65.46ZM104.534 65.232C104.534 64.816 104.442 64.46 104.258 64.164C104.074 63.86 103.822 63.632 103.502 63.48C103.19 63.32 102.842 63.24 102.458 63.24C101.906 63.24 101.434 63.416 101.042 63.768C100.658 64.12 100.438 64.608 100.382 65.232H104.534ZM111.395 60.636V69H110.303V60.636H111.395ZM116.46 62.304C117.26 62.304 117.908 62.548 118.404 63.036C118.9 63.516 119.148 64.212 119.148 65.124V69H118.068V65.28C118.068 64.624 117.904 64.124 117.576 63.78C117.248 63.428 116.8 63.252 116.232 63.252C115.656 63.252 115.196 63.432 114.852 63.792C114.516 64.152 114.348 64.676 114.348 65.364V69H113.256V62.424H114.348V63.36C114.564 63.024 114.856 62.764 115.224 62.58C115.6 62.396 116.012 62.304 116.46 62.304ZM120.524 65.7C120.524 65.02 120.66 64.428 120.932 63.924C121.204 63.412 121.58 63.016 122.06 62.736C122.548 62.456 123.104 62.316 123.728 62.316C124.536 62.316 125.2 62.512 125.72 62.904C126.248 63.296 126.596 63.84 126.764 64.536H125.588C125.476 64.136 125.256 63.82 124.928 63.588C124.608 63.356 124.208 63.24 123.728 63.24C123.104 63.24 122.6 63.456 122.216 63.888C121.832 64.312 121.64 64.916 121.64 65.7C121.64 66.492 121.832 67.104 122.216 67.536C122.6 67.968 123.104 68.184 123.728 68.184C124.208 68.184 124.608 68.072 124.928 67.848C125.248 67.624 125.468 67.304 125.588 66.888H126.764C126.588 67.56 126.236 68.1 125.708 68.508C125.18 68.908 124.52 69.108 123.728 69.108C123.104 69.108 122.548 68.968 122.06 68.688C121.58 68.408 121.204 68.012 120.932 67.5C120.66 66.988 120.524 66.388 120.524 65.7Z" fill="#111111" fill-opacity="0.8"/>
<rect x="58.6" y="93.6" width="256.8" height="69.8" rx="6.4" fill="white"/>
<rect x="58.6" y="93.6" width="256.8" height="69.8" rx="6.4" stroke="#D1D5DB" stroke-width="0.8" stroke-linejoin="round"/>
<path d="M76.868 116.14H73.22L72.548 118H71.396L74.42 109.684H75.68L78.692 118H77.54L76.868 116.14ZM76.556 115.252L75.044 111.028L73.532 115.252H76.556ZM85.5372 118.108C85.0332 118.108 84.5812 118.024 84.1812 117.856C83.7812 117.68 83.4652 117.44 83.2332 117.136C83.0012 116.824 82.8732 116.468 82.8492 116.068H83.9772C84.0092 116.396 84.1612 116.664 84.4332 116.872C84.7132 117.08 85.0772 117.184 85.5252 117.184C85.9412 117.184 86.2692 117.092 86.5092 116.908C86.7492 116.724 86.8692 116.492 86.8692 116.212C86.8692 115.924 86.7412 115.712 86.4852 115.576C86.2292 115.432 85.8332 115.292 85.2972 115.156C84.8092 115.028 84.4092 114.9 84.0972 114.772C83.7932 114.636 83.5292 114.44 83.3052 114.184C83.0892 113.92 82.9812 113.576 82.9812 113.152C82.9812 112.816 83.0812 112.508 83.2812 112.228C83.4812 111.948 83.7652 111.728 84.1332 111.568C84.5012 111.4 84.9212 111.316 85.3932 111.316C86.1212 111.316 86.7092 111.5 87.1572 111.868C87.6052 112.236 87.8452 112.74 87.8772 113.38H86.7852C86.7612 113.036 86.6212 112.76 86.3652 112.552C86.1172 112.344 85.7812 112.24 85.3572 112.24C84.9652 112.24 84.6532 112.324 84.4212 112.492C84.1892 112.66 84.0732 112.88 84.0732 113.152C84.0732 113.368 84.1412 113.548 84.2772 113.692C84.4212 113.828 84.5972 113.94 84.8052 114.028C85.0212 114.108 85.3172 114.2 85.6932 114.304C86.1652 114.432 86.5492 114.56 86.8452 114.688C87.1412 114.808 87.3932 114.992 87.6012 115.24C87.8172 115.488 87.9292 115.812 87.9372 116.212C87.9372 116.572 87.8372 116.896 87.6372 117.184C87.4372 117.472 87.1532 117.7 86.7852 117.868C86.4252 118.028 86.0092 118.108 85.5372 118.108ZM92.7427 111.304C93.2387 111.304 93.6867 111.412 94.0867 111.628C94.4867 111.836 94.7987 112.152 95.0227 112.576C95.2547 113 95.3707 113.516 95.3707 114.124V118H94.2907V114.28C94.2907 113.624 94.1267 113.124 93.7987 112.78C93.4707 112.428 93.0227 112.252 92.4547 112.252C91.8787 112.252 91.4187 112.432 91.0747 112.792C90.7387 113.152 90.5707 113.676 90.5707 114.364V118H89.4787V109.12H90.5707V112.36C90.7867 112.024 91.0827 111.764 91.4587 111.58C91.8427 111.396 92.2707 111.304 92.7427 111.304ZM96.7465 114.688C96.7465 114.016 96.8825 113.428 97.1545 112.924C97.4265 112.412 97.7985 112.016 98.2705 111.736C98.7505 111.456 99.2825 111.316 99.8665 111.316C100.442 111.316 100.942 111.44 101.366 111.688C101.79 111.936 102.106 112.248 102.314 112.624V111.424H103.418V118H102.314V116.776C102.098 117.16 101.774 117.48 101.342 117.736C100.918 117.984 100.422 118.108 99.8545 118.108C99.2705 118.108 98.7425 117.964 98.2705 117.676C97.7985 117.388 97.4265 116.984 97.1545 116.464C96.8825 115.944 96.7465 115.352 96.7465 114.688ZM102.314 114.7C102.314 114.204 102.214 113.772 102.014 113.404C101.814 113.036 101.542 112.756 101.198 112.564C100.862 112.364 100.49 112.264 100.082 112.264C99.6745 112.264 99.3025 112.36 98.9665 112.552C98.6305 112.744 98.3625 113.024 98.1625 113.392C97.9625 113.76 97.8625 114.192 97.8625 114.688C97.8625 115.192 97.9625 115.632 98.1625 116.008C98.3625 116.376 98.6305 116.66 98.9665 116.86C99.3025 117.052 99.6745 117.148 100.082 117.148C100.49 117.148 100.862 117.052 101.198 116.86C101.542 116.66 101.814 116.376 102.014 116.008C102.214 115.632 102.314 115.196 102.314 114.7ZM106.356 112.492C106.548 112.116 106.82 111.824 107.172 111.616C107.532 111.408 107.968 111.304 108.48 111.304V112.432H108.192C106.968 112.432 106.356 113.096 106.356 114.424V118H105.264V111.424H106.356V112.492ZM115.74 114.46C115.74 114.668 115.728 114.888 115.704 115.12H110.448C110.488 115.768 110.708 116.276 111.108 116.644C111.516 117.004 112.008 117.184 112.584 117.184C113.056 117.184 113.448 117.076 113.76 116.86C114.08 116.636 114.304 116.34 114.432 115.972H115.608C115.432 116.604 115.08 117.12 114.552 117.52C114.024 117.912 113.368 118.108 112.584 118.108C111.96 118.108 111.4 117.968 110.904 117.688C110.416 117.408 110.032 117.012 109.752 116.5C109.472 115.98 109.332 115.38 109.332 114.7C109.332 114.02 109.468 113.424 109.74 112.912C110.012 112.4 110.392 112.008 110.88 111.736C111.376 111.456 111.944 111.316 112.584 111.316C113.208 111.316 113.76 111.452 114.24 111.724C114.72 111.996 115.088 112.372 115.344 112.852C115.608 113.324 115.74 113.86 115.74 114.46ZM114.612 114.232C114.612 113.816 114.52 113.46 114.336 113.164C114.152 112.86 113.9 112.632 113.58 112.48C113.268 112.32 112.92 112.24 112.536 112.24C111.984 112.24 111.512 112.416 111.12 112.768C110.736 113.12 110.516 113.608 110.46 114.232H114.612ZM116.774 114.688C116.774 114.016 116.91 113.428 117.182 112.924C117.454 112.412 117.826 112.016 118.298 111.736C118.778 111.456 119.314 111.316 119.906 111.316C120.418 111.316 120.894 111.436 121.334 111.676C121.774 111.908 122.11 112.216 122.342 112.6V109.12H123.446V118H122.342V116.764C122.126 117.156 121.806 117.48 121.382 117.736C120.958 117.984 120.462 118.108 119.894 118.108C119.31 118.108 118.778 117.964 118.298 117.676C117.826 117.388 117.454 116.984 117.182 116.464C116.91 115.944 116.774 115.352 116.774 114.688ZM122.342 114.7C122.342 114.204 122.242 113.772 122.042 113.404C121.842 113.036 121.57 112.756 121.226 112.564C120.89 112.364 120.518 112.264 120.11 112.264C119.702 112.264 119.33 112.36 118.994 112.552C118.658 112.744 118.39 113.024 118.19 113.392C117.99 113.76 117.89 114.192 117.89 114.688C117.89 115.192 117.99 115.632 118.19 116.008C118.39 116.376 118.658 116.66 118.994 116.86C119.33 117.052 119.702 117.148 120.11 117.148C120.518 117.148 120.89 117.052 121.226 116.86C121.57 116.66 121.842 116.376 122.042 116.008C122.242 115.632 122.342 115.196 122.342 114.7ZM130.818 118.108C130.314 118.108 129.862 118.024 129.462 117.856C129.062 117.68 128.746 117.44 128.514 117.136C128.282 116.824 128.154 116.468 128.13 116.068H129.258C129.29 116.396 129.442 116.664 129.714 116.872C129.994 117.08 130.358 117.184 130.806 117.184C131.222 117.184 131.55 117.092 131.79 116.908C132.03 116.724 132.15 116.492 132.15 116.212C132.15 115.924 132.022 115.712 131.766 115.576C131.51 115.432 131.114 115.292 130.578 115.156C130.09 115.028 129.69 114.9 129.378 114.772C129.074 114.636 128.81 114.44 128.586 114.184C128.37 113.92 128.262 113.576 128.262 113.152C128.262 112.816 128.362 112.508 128.562 112.228C128.762 111.948 129.046 111.728 129.414 111.568C129.782 111.4 130.202 111.316 130.674 111.316C131.402 111.316 131.99 111.5 132.438 111.868C132.886 112.236 133.126 112.74 133.158 113.38H132.066C132.042 113.036 131.902 112.76 131.646 112.552C131.398 112.344 131.062 112.24 130.638 112.24C130.246 112.24 129.934 112.324 129.702 112.492C129.47 112.66 129.354 112.88 129.354 113.152C129.354 113.368 129.422 113.548 129.558 113.692C129.702 113.828 129.878 113.94 130.086 114.028C130.302 114.108 130.598 114.2 130.974 114.304C131.446 114.432 131.83 114.56 132.126 114.688C132.422 114.808 132.674 114.992 132.882 115.24C133.098 115.488 133.21 115.812 133.218 116.212C133.218 116.572 133.118 116.896 132.918 117.184C132.718 117.472 132.434 117.7 132.066 117.868C131.706 118.028 131.29 118.108 130.818 118.108ZM135.852 112.636C136.068 112.26 136.388 111.948 136.812 111.7C137.244 111.444 137.744 111.316 138.312 111.316C138.896 111.316 139.424 111.456 139.896 111.736C140.376 112.016 140.752 112.412 141.024 112.924C141.296 113.428 141.432 114.016 141.432 114.688C141.432 115.352 141.296 115.944 141.024 116.464C140.752 116.984 140.376 117.388 139.896 117.676C139.424 117.964 138.896 118.108 138.312 118.108C137.752 118.108 137.256 117.984 136.824 117.736C136.4 117.48 136.076 117.164 135.852 116.788V121.12H134.76V111.424H135.852V112.636ZM140.316 114.688C140.316 114.192 140.216 113.76 140.016 113.392C139.816 113.024 139.544 112.744 139.2 112.552C138.864 112.36 138.492 112.264 138.084 112.264C137.684 112.264 137.312 112.364 136.968 112.564C136.632 112.756 136.36 113.04 136.152 113.416C135.952 113.784 135.852 114.212 135.852 114.7C135.852 115.196 135.952 115.632 136.152 116.008C136.36 116.376 136.632 116.66 136.968 116.86C137.312 117.052 137.684 117.148 138.084 117.148C138.492 117.148 138.864 117.052 139.2 116.86C139.544 116.66 139.816 116.376 140.016 116.008C140.216 115.632 140.316 115.192 140.316 114.688ZM142.461 114.688C142.461 114.016 142.597 113.428 142.869 112.924C143.141 112.412 143.513 112.016 143.985 111.736C144.465 111.456 144.997 111.316 145.581 111.316C146.157 111.316 146.657 111.44 147.081 111.688C147.505 111.936 147.821 112.248 148.029 112.624V111.424H149.133V118H148.029V116.776C147.813 117.16 147.489 117.48 147.057 117.736C146.633 117.984 146.137 118.108 145.569 118.108C144.985 118.108 144.457 117.964 143.985 117.676C143.513 117.388 143.141 116.984 142.869 116.464C142.597 115.944 142.461 115.352 142.461 114.688ZM148.029 114.7C148.029 114.204 147.929 113.772 147.729 113.404C147.529 113.036 147.257 112.756 146.913 112.564C146.577 112.364 146.205 112.264 145.797 112.264C145.389 112.264 145.017 112.36 144.681 112.552C144.345 112.744 144.077 113.024 143.877 113.392C143.677 113.76 143.577 114.192 143.577 114.688C143.577 115.192 143.677 115.632 143.877 116.008C144.077 116.376 144.345 116.66 144.681 116.86C145.017 117.052 145.389 117.148 145.797 117.148C146.205 117.148 146.577 117.052 146.913 116.86C147.257 116.66 147.529 116.376 147.729 116.008C147.929 115.632 148.029 115.196 148.029 114.7ZM150.571 114.7C150.571 114.02 150.707 113.428 150.979 112.924C151.251 112.412 151.627 112.016 152.107 111.736C152.595 111.456 153.151 111.316 153.775 111.316C154.583 111.316 155.247 111.512 155.767 111.904C156.295 112.296 156.643 112.84 156.811 113.536H155.635C155.523 113.136 155.303 112.82 154.975 112.588C154.655 112.356 154.255 112.24 153.775 112.24C153.151 112.24 152.647 112.456 152.263 112.888C151.879 113.312 151.687 113.916 151.687 114.7C151.687 115.492 151.879 116.104 152.263 116.536C152.647 116.968 153.151 117.184 153.775 117.184C154.255 117.184 154.655 117.072 154.975 116.848C155.295 116.624 155.515 116.304 155.635 115.888H156.811C156.635 116.56 156.283 117.1 155.755 117.508C155.227 117.908 154.567 118.108 153.775 118.108C153.151 118.108 152.595 117.968 152.107 117.688C151.627 117.408 151.251 117.012 150.979 116.5C150.707 115.988 150.571 115.388 150.571 114.7ZM164.268 114.46C164.268 114.668 164.256 114.888 164.232 115.12H158.976C159.016 115.768 159.236 116.276 159.636 116.644C160.044 117.004 160.536 117.184 161.112 117.184C161.584 117.184 161.976 117.076 162.288 116.86C162.608 116.636 162.832 116.34 162.96 115.972H164.136C163.96 116.604 163.608 117.12 163.08 117.52C162.552 117.912 161.896 118.108 161.112 118.108C160.488 118.108 159.928 117.968 159.432 117.688C158.944 117.408 158.56 117.012 158.28 116.5C158 115.98 157.86 115.38 157.86 114.7C157.86 114.02 157.996 113.424 158.268 112.912C158.54 112.4 158.92 112.008 159.408 111.736C159.904 111.456 160.472 111.316 161.112 111.316C161.736 111.316 162.288 111.452 162.768 111.724C163.248 111.996 163.616 112.372 163.872 112.852C164.136 113.324 164.268 113.86 164.268 114.46ZM163.14 114.232C163.14 113.816 163.048 113.46 162.864 113.164C162.68 112.86 162.428 112.632 162.108 112.48C161.796 112.32 161.448 112.24 161.064 112.24C160.512 112.24 160.04 112.416 159.648 112.768C159.264 113.12 159.044 113.608 158.988 114.232H163.14ZM171.584 112.324H170.204V118H169.112V112.324H168.26V111.424H169.112V110.956C169.112 110.22 169.3 109.684 169.676 109.348C170.06 109.004 170.672 108.832 171.512 108.832V109.744C171.032 109.744 170.692 109.84 170.492 110.032C170.3 110.216 170.204 110.524 170.204 110.956V111.424H171.584V112.324ZM175.726 118.108C175.11 118.108 174.55 117.968 174.046 117.688C173.55 117.408 173.158 117.012 172.87 116.5C172.59 115.98 172.45 115.38 172.45 114.7C172.45 114.028 172.594 113.436 172.882 112.924C173.178 112.404 173.578 112.008 174.082 111.736C174.586 111.456 175.15 111.316 175.774 111.316C176.398 111.316 176.962 111.456 177.466 111.736C177.97 112.008 178.366 112.4 178.654 112.912C178.95 113.424 179.098 114.02 179.098 114.7C179.098 115.38 178.946 115.98 178.642 116.5C178.346 117.012 177.942 117.408 177.43 117.688C176.918 117.968 176.35 118.108 175.726 118.108ZM175.726 117.148C176.118 117.148 176.486 117.056 176.83 116.872C177.174 116.688 177.45 116.412 177.658 116.044C177.874 115.676 177.982 115.228 177.982 114.7C177.982 114.172 177.878 113.724 177.67 113.356C177.462 112.988 177.19 112.716 176.854 112.54C176.518 112.356 176.154 112.264 175.762 112.264C175.362 112.264 174.994 112.356 174.658 112.54C174.33 112.716 174.066 112.988 173.866 113.356C173.666 113.724 173.566 114.172 173.566 114.7C173.566 115.236 173.662 115.688 173.854 116.056C174.054 116.424 174.318 116.7 174.646 116.884C174.974 117.06 175.334 117.148 175.726 117.148ZM181.625 112.492C181.817 112.116 182.089 111.824 182.441 111.616C182.801 111.408 183.237 111.304 183.749 111.304V112.432H183.461C182.237 112.432 181.625 113.096 181.625 114.424V118H180.533V111.424H181.625V112.492ZM189.541 112.324V116.2C189.541 116.52 189.609 116.748 189.745 116.884C189.881 117.012 190.117 117.076 190.453 117.076H191.257V118H190.273C189.665 118 189.209 117.86 188.905 117.58C188.601 117.3 188.449 116.84 188.449 116.2V112.324H187.597V111.424H188.449V109.768H189.541V111.424H191.257V112.324H189.541ZM195.844 111.304C196.34 111.304 196.788 111.412 197.188 111.628C197.588 111.836 197.9 112.152 198.124 112.576C198.356 113 198.472 113.516 198.472 114.124V118H197.392V114.28C197.392 113.624 197.228 113.124 196.9 112.78C196.572 112.428 196.124 112.252 195.556 112.252C194.98 112.252 194.52 112.432 194.176 112.792C193.84 113.152 193.672 113.676 193.672 114.364V118H192.58V109.12H193.672V112.36C193.888 112.024 194.184 111.764 194.56 111.58C194.944 111.396 195.372 111.304 195.844 111.304ZM206.256 114.46C206.256 114.668 206.244 114.888 206.22 115.12H200.964C201.004 115.768 201.224 116.276 201.624 116.644C202.032 117.004 202.524 117.184 203.1 117.184C203.572 117.184 203.964 117.076 204.276 116.86C204.596 116.636 204.82 116.34 204.948 115.972H206.124C205.948 116.604 205.596 117.12 205.068 117.52C204.54 117.912 203.884 118.108 203.1 118.108C202.476 118.108 201.916 117.968 201.42 117.688C200.932 117.408 200.548 117.012 200.268 116.5C199.988 115.98 199.848 115.38 199.848 114.7C199.848 114.02 199.984 113.424 200.256 112.912C200.528 112.4 200.908 112.008 201.396 111.736C201.892 111.456 202.46 111.316 203.1 111.316C203.724 111.316 204.276 111.452 204.756 111.724C205.236 111.996 205.604 112.372 205.86 112.852C206.124 113.324 206.256 113.86 206.256 114.46ZM205.128 114.232C205.128 113.816 205.036 113.46 204.852 113.164C204.668 112.86 204.416 112.632 204.096 112.48C203.784 112.32 203.436 112.24 203.052 112.24C202.5 112.24 202.028 112.416 201.636 112.768C201.252 113.12 201.032 113.608 200.976 114.232H205.128ZM210.489 114.688C210.489 114.016 210.625 113.428 210.897 112.924C211.169 112.412 211.541 112.016 212.013 111.736C212.493 111.456 213.029 111.316 213.621 111.316C214.133 111.316 214.609 111.436 215.049 111.676C215.489 111.908 215.825 112.216 216.057 112.6V109.12H217.161V118H216.057V116.764C215.841 117.156 215.521 117.48 215.097 117.736C214.673 117.984 214.177 118.108 213.609 118.108C213.025 118.108 212.493 117.964 212.013 117.676C211.541 117.388 211.169 116.984 210.897 116.464C210.625 115.944 210.489 115.352 210.489 114.688ZM216.057 114.7C216.057 114.204 215.957 113.772 215.757 113.404C215.557 113.036 215.285 112.756 214.941 112.564C214.605 112.364 214.233 112.264 213.825 112.264C213.417 112.264 213.045 112.36 212.709 112.552C212.373 112.744 212.105 113.024 211.905 113.392C211.705 113.76 211.605 114.192 211.605 114.688C211.605 115.192 211.705 115.632 211.905 116.008C212.105 116.376 212.373 116.66 212.709 116.86C213.045 117.052 213.417 117.148 213.825 117.148C214.233 117.148 214.605 117.052 214.941 116.86C215.285 116.66 215.557 116.376 215.757 116.008C215.957 115.632 216.057 115.196 216.057 114.7ZM225.006 114.46C225.006 114.668 224.994 114.888 224.97 115.12H219.714C219.754 115.768 219.974 116.276 220.374 116.644C220.782 117.004 221.274 117.184 221.85 117.184C222.322 117.184 222.714 117.076 223.026 116.86C223.346 116.636 223.57 116.34 223.698 115.972H224.874C224.698 116.604 224.346 117.12 223.818 117.52C223.29 117.912 222.634 118.108 221.85 118.108C221.226 118.108 220.666 117.968 220.17 117.688C219.682 117.408 219.298 117.012 219.018 116.5C218.738 115.98 218.598 115.38 218.598 114.7C218.598 114.02 218.734 113.424 219.006 112.912C219.278 112.4 219.658 112.008 220.146 111.736C220.642 111.456 221.21 111.316 221.85 111.316C222.474 111.316 223.026 111.452 223.506 111.724C223.986 111.996 224.354 112.372 224.61 112.852C224.874 113.324 225.006 113.86 225.006 114.46ZM223.878 114.232C223.878 113.816 223.786 113.46 223.602 113.164C223.418 112.86 223.166 112.632 222.846 112.48C222.534 112.32 222.186 112.24 221.802 112.24C221.25 112.24 220.778 112.416 220.386 112.768C220.002 113.12 219.782 113.608 219.726 114.232H223.878ZM228.895 116.992L230.935 111.424H232.099L229.519 118H228.247L225.667 111.424H226.843L228.895 116.992ZM237.705 112.324V116.2C237.705 116.52 237.773 116.748 237.909 116.884C238.045 117.012 238.281 117.076 238.617 117.076H239.421V118H238.437C237.829 118 237.373 117.86 237.069 117.58C236.765 117.3 236.613 116.84 236.613 116.2V112.324H235.761V111.424H236.613V109.768H237.705V111.424H239.421V112.324H237.705ZM246.744 114.46C246.744 114.668 246.732 114.888 246.708 115.12H241.452C241.492 115.768 241.712 116.276 242.112 116.644C242.52 117.004 243.012 117.184 243.588 117.184C244.06 117.184 244.452 117.076 244.764 116.86C245.084 116.636 245.308 116.34 245.436 115.972H246.612C246.436 116.604 246.084 117.12 245.556 117.52C245.028 117.912 244.372 118.108 243.588 118.108C242.964 118.108 242.404 117.968 241.908 117.688C241.42 117.408 241.036 117.012 240.756 116.5C240.476 115.98 240.336 115.38 240.336 114.7C240.336 114.02 240.472 113.424 240.744 112.912C241.016 112.4 241.396 112.008 241.884 111.736C242.38 111.456 242.948 111.316 243.588 111.316C244.212 111.316 244.764 111.452 245.244 111.724C245.724 111.996 246.092 112.372 246.348 112.852C246.612 113.324 246.744 113.86 246.744 114.46ZM245.616 114.232C245.616 113.816 245.524 113.46 245.34 113.164C245.156 112.86 244.904 112.632 244.584 112.48C244.272 112.32 243.924 112.24 243.54 112.24C242.988 112.24 242.516 112.416 242.124 112.768C241.74 113.12 241.52 113.608 241.464 114.232H245.616ZM247.778 114.688C247.778 114.016 247.914 113.428 248.186 112.924C248.458 112.412 248.83 112.016 249.302 111.736C249.782 111.456 250.314 111.316 250.898 111.316C251.474 111.316 251.974 111.44 252.398 111.688C252.822 111.936 253.138 112.248 253.346 112.624V111.424H254.45V118H253.346V116.776C253.13 117.16 252.806 117.48 252.374 117.736C251.95 117.984 251.454 118.108 250.886 118.108C250.302 118.108 249.774 117.964 249.302 117.676C248.83 117.388 248.458 116.984 248.186 116.464C247.914 115.944 247.778 115.352 247.778 114.688ZM253.346 114.7C253.346 114.204 253.246 113.772 253.046 113.404C252.846 113.036 252.574 112.756 252.23 112.564C251.894 112.364 251.522 112.264 251.114 112.264C250.706 112.264 250.334 112.36 249.998 112.552C249.662 112.744 249.394 113.024 249.194 113.392C248.994 113.76 248.894 114.192 248.894 114.688C248.894 115.192 248.994 115.632 249.194 116.008C249.394 116.376 249.662 116.66 249.998 116.86C250.334 117.052 250.706 117.148 251.114 117.148C251.522 117.148 251.894 117.052 252.23 116.86C252.574 116.66 252.846 116.376 253.046 116.008C253.246 115.632 253.346 115.196 253.346 114.7ZM264.203 111.304C264.715 111.304 265.171 111.412 265.571 111.628C265.971 111.836 266.287 112.152 266.519 112.576C266.751 113 266.867 113.516 266.867 114.124V118H265.787V114.28C265.787 113.624 265.623 113.124 265.295 112.78C264.975 112.428 264.539 112.252 263.987 112.252C263.419 112.252 262.967 112.436 262.631 112.804C262.295 113.164 262.127 113.688 262.127 114.376V118H261.047V114.28C261.047 113.624 260.883 113.124 260.555 112.78C260.235 112.428 259.799 112.252 259.247 112.252C258.679 112.252 258.227 112.436 257.891 112.804C257.555 113.164 257.387 113.688 257.387 114.376V118H256.295V111.424H257.387V112.372C257.603 112.028 257.891 111.764 258.251 111.58C258.619 111.396 259.023 111.304 259.463 111.304C260.015 111.304 260.503 111.428 260.927 111.676C261.351 111.924 261.667 112.288 261.875 112.768C262.059 112.304 262.363 111.944 262.787 111.688C263.211 111.432 263.683 111.304 264.203 111.304ZM273.19 112.324V116.2C273.19 116.52 273.258 116.748 273.394 116.884C273.53 117.012 273.766 117.076 274.102 117.076H274.906V118H273.922C273.314 118 272.858 117.86 272.554 117.58C272.25 117.3 272.098 116.84 272.098 116.2V112.324H271.246V111.424H272.098V109.768H273.19V111.424H274.906V112.324H273.19ZM279.097 118.108C278.481 118.108 277.921 117.968 277.417 117.688C276.921 117.408 276.529 117.012 276.241 116.5C275.961 115.98 275.821 115.38 275.821 114.7C275.821 114.028 275.965 113.436 276.253 112.924C276.549 112.404 276.949 112.008 277.453 111.736C277.957 111.456 278.521 111.316 279.145 111.316C279.769 111.316 280.333 111.456 280.837 111.736C281.341 112.008 281.737 112.4 282.025 112.912C282.321 113.424 282.469 114.02 282.469 114.7C282.469 115.38 282.317 115.98 282.013 116.5C281.717 117.012 281.313 117.408 280.801 117.688C280.289 117.968 279.721 118.108 279.097 118.108ZM279.097 117.148C279.489 117.148 279.857 117.056 280.201 116.872C280.545 116.688 280.821 116.412 281.029 116.044C281.245 115.676 281.353 115.228 281.353 114.7C281.353 114.172 281.249 113.724 281.041 113.356C280.833 112.988 280.561 112.716 280.225 112.54C279.889 112.356 279.525 112.264 279.133 112.264C278.733 112.264 278.365 112.356 278.029 112.54C277.701 112.716 277.437 112.988 277.237 113.356C277.037 113.724 276.937 114.172 276.937 114.7C276.937 115.236 277.033 115.688 277.225 116.056C277.425 116.424 277.689 116.7 278.017 116.884C278.345 117.06 278.705 117.148 279.097 117.148ZM71.516 129.7C71.516 129.02 71.652 128.428 71.924 127.924C72.196 127.412 72.572 127.016 73.052 126.736C73.54 126.456 74.096 126.316 74.72 126.316C75.528 126.316 76.192 126.512 76.712 126.904C77.24 127.296 77.588 127.84 77.756 128.536H76.58C76.468 128.136 76.248 127.82 75.92 127.588C75.6 127.356 75.2 127.24 74.72 127.24C74.096 127.24 73.592 127.456 73.208 127.888C72.824 128.312 72.632 128.916 72.632 129.7C72.632 130.492 72.824 131.104 73.208 131.536C73.592 131.968 74.096 132.184 74.72 132.184C75.2 132.184 75.6 132.072 75.92 131.848C76.24 131.624 76.46 131.304 76.58 130.888H77.756C77.58 131.56 77.228 132.1 76.7 132.508C76.172 132.908 75.512 133.108 74.72 133.108C74.096 133.108 73.54 132.968 73.052 132.688C72.572 132.408 72.196 132.012 71.924 131.5C71.652 130.988 71.516 130.388 71.516 129.7ZM82.0811 133.108C81.4651 133.108 80.9051 132.968 80.4011 132.688C79.9051 132.408 79.5131 132.012 79.2251 131.5C78.9451 130.98 78.8051 130.38 78.8051 129.7C78.8051 129.028 78.9491 128.436 79.2371 127.924C79.5331 127.404 79.9331 127.008 80.4371 126.736C80.9411 126.456 81.5051 126.316 82.1291 126.316C82.7531 126.316 83.3171 126.456 83.8211 126.736C84.3251 127.008 84.7211 127.4 85.0091 127.912C85.3051 128.424 85.4531 129.02 85.4531 129.7C85.4531 130.38 85.3011 130.98 84.9971 131.5C84.7011 132.012 84.2971 132.408 83.7851 132.688C83.2731 132.968 82.7051 133.108 82.0811 133.108ZM82.0811 132.148C82.4731 132.148 82.8411 132.056 83.1851 131.872C83.5291 131.688 83.8051 131.412 84.0131 131.044C84.2291 130.676 84.3371 130.228 84.3371 129.7C84.3371 129.172 84.2331 128.724 84.0251 128.356C83.8171 127.988 83.5451 127.716 83.2091 127.54C82.8731 127.356 82.5091 127.264 82.1171 127.264C81.7171 127.264 81.3491 127.356 81.0131 127.54C80.6851 127.716 80.4211 127.988 80.2211 128.356C80.0211 128.724 79.9211 129.172 79.9211 129.7C79.9211 130.236 80.0171 130.688 80.2091 131.056C80.4091 131.424 80.6731 131.7 81.0011 131.884C81.3291 132.06 81.6891 132.148 82.0811 132.148ZM87.9808 124.12V133H86.8888V124.12H87.9808ZM90.934 124.12V133H89.842V124.12H90.934ZM92.3871 129.688C92.3871 129.016 92.5231 128.428 92.7951 127.924C93.0671 127.412 93.4391 127.016 93.9111 126.736C94.3911 126.456 94.9231 126.316 95.5071 126.316C96.0831 126.316 96.5831 126.44 97.0071 126.688C97.4311 126.936 97.7471 127.248 97.9551 127.624V126.424H99.0591V133H97.9551V131.776C97.7391 132.16 97.4151 132.48 96.9831 132.736C96.5591 132.984 96.0631 133.108 95.4951 133.108C94.9111 133.108 94.3831 132.964 93.9111 132.676C93.4391 132.388 93.0671 131.984 92.7951 131.464C92.5231 130.944 92.3871 130.352 92.3871 129.688ZM97.9551 129.7C97.9551 129.204 97.8551 128.772 97.6551 128.404C97.4551 128.036 97.1831 127.756 96.8391 127.564C96.5031 127.364 96.1311 127.264 95.7231 127.264C95.3151 127.264 94.9431 127.36 94.6071 127.552C94.2711 127.744 94.0031 128.024 93.8031 128.392C93.6031 128.76 93.5031 129.192 93.5031 129.688C93.5031 130.192 93.6031 130.632 93.8031 131.008C94.0031 131.376 94.2711 131.66 94.6071 131.86C94.9431 132.052 95.3151 132.148 95.7231 132.148C96.1311 132.148 96.5031 132.052 96.8391 131.86C97.1831 131.66 97.4551 131.376 97.6551 131.008C97.8551 130.632 97.9551 130.196 97.9551 129.7ZM101.996 127.648C102.22 127.256 102.548 126.936 102.98 126.688C103.412 126.44 103.904 126.316 104.456 126.316C105.048 126.316 105.58 126.456 106.052 126.736C106.524 127.016 106.896 127.412 107.168 127.924C107.44 128.428 107.576 129.016 107.576 129.688C107.576 130.352 107.44 130.944 107.168 131.464C106.896 131.984 106.52 132.388 106.04 132.676C105.568 132.964 105.04 133.108 104.456 133.108C103.888 133.108 103.388 132.984 102.956 132.736C102.532 132.488 102.212 132.172 101.996 131.788V133H100.904V124.12H101.996V127.648ZM106.46 129.688C106.46 129.192 106.36 128.76 106.16 128.392C105.96 128.024 105.688 127.744 105.344 127.552C105.008 127.36 104.636 127.264 104.228 127.264C103.828 127.264 103.456 127.364 103.112 127.564C102.776 127.756 102.504 128.04 102.296 128.416C102.096 128.784 101.996 129.212 101.996 129.7C101.996 130.196 102.096 130.632 102.296 131.008C102.504 131.376 102.776 131.66 103.112 131.86C103.456 132.052 103.828 132.148 104.228 132.148C104.636 132.148 105.008 132.052 105.344 131.86C105.688 131.66 105.96 131.376 106.16 131.008C106.36 130.632 106.46 130.192 106.46 129.688ZM111.882 133.108C111.266 133.108 110.706 132.968 110.202 132.688C109.706 132.408 109.314 132.012 109.026 131.5C108.746 130.98 108.606 130.38 108.606 129.7C108.606 129.028 108.75 128.436 109.038 127.924C109.334 127.404 109.734 127.008 110.238 126.736C110.742 126.456 111.306 126.316 111.93 126.316C112.554 126.316 113.118 126.456 113.622 126.736C114.126 127.008 114.522 127.4 114.81 127.912C115.106 128.424 115.254 129.02 115.254 129.7C115.254 130.38 115.102 130.98 114.798 131.5C114.502 132.012 114.098 132.408 113.586 132.688C113.074 132.968 112.506 133.108 111.882 133.108ZM111.882 132.148C112.274 132.148 112.642 132.056 112.986 131.872C113.33 131.688 113.606 131.412 113.814 131.044C114.03 130.676 114.138 130.228 114.138 129.7C114.138 129.172 114.034 128.724 113.826 128.356C113.618 127.988 113.346 127.716 113.01 127.54C112.674 127.356 112.31 127.264 111.918 127.264C111.518 127.264 111.15 127.356 110.814 127.54C110.486 127.716 110.222 127.988 110.022 128.356C109.822 128.724 109.722 129.172 109.722 129.7C109.722 130.236 109.818 130.688 110.01 131.056C110.21 131.424 110.474 131.7 110.802 131.884C111.13 132.06 111.49 132.148 111.882 132.148ZM117.782 127.492C117.974 127.116 118.246 126.824 118.598 126.616C118.958 126.408 119.394 126.304 119.906 126.304V127.432H119.618C118.394 127.432 117.782 128.096 117.782 129.424V133H116.69V126.424H117.782V127.492ZM120.758 129.688C120.758 129.016 120.894 128.428 121.166 127.924C121.438 127.412 121.81 127.016 122.282 126.736C122.762 126.456 123.294 126.316 123.878 126.316C124.454 126.316 124.954 126.44 125.378 126.688C125.802 126.936 126.118 127.248 126.326 127.624V126.424H127.43V133H126.326V131.776C126.11 132.16 125.786 132.48 125.354 132.736C124.93 132.984 124.434 133.108 123.866 133.108C123.282 133.108 122.754 132.964 122.282 132.676C121.81 132.388 121.438 131.984 121.166 131.464C120.894 130.944 120.758 130.352 120.758 129.688ZM126.326 129.7C126.326 129.204 126.226 128.772 126.026 128.404C125.826 128.036 125.554 127.756 125.21 127.564C124.874 127.364 124.502 127.264 124.094 127.264C123.686 127.264 123.314 127.36 122.978 127.552C122.642 127.744 122.374 128.024 122.174 128.392C121.974 128.76 121.874 129.192 121.874 129.688C121.874 130.192 121.974 130.632 122.174 131.008C122.374 131.376 122.642 131.66 122.978 131.86C123.314 132.052 123.686 132.148 124.094 132.148C124.502 132.148 124.874 132.052 125.21 131.86C125.554 131.66 125.826 131.376 126.026 131.008C126.226 130.632 126.326 130.196 126.326 129.7ZM130.608 127.324V131.2C130.608 131.52 130.676 131.748 130.812 131.884C130.948 132.012 131.184 132.076 131.52 132.076H132.324V133H131.34C130.732 133 130.276 132.86 129.972 132.58C129.668 132.3 129.516 131.84 129.516 131.2V127.324H128.664V126.424H129.516V124.768H130.608V126.424H132.324V127.324H130.608ZM139.647 129.46C139.647 129.668 139.635 129.888 139.611 130.12H134.355C134.395 130.768 134.615 131.276 135.015 131.644C135.423 132.004 135.915 132.184 136.491 132.184C136.963 132.184 137.355 132.076 137.667 131.86C137.987 131.636 138.211 131.34 138.339 130.972H139.515C139.339 131.604 138.987 132.12 138.459 132.52C137.931 132.912 137.275 133.108 136.491 133.108C135.867 133.108 135.307 132.968 134.811 132.688C134.323 132.408 133.939 132.012 133.659 131.5C133.379 130.98 133.239 130.38 133.239 129.7C133.239 129.02 133.375 128.424 133.647 127.912C133.919 127.4 134.299 127.008 134.787 126.736C135.283 126.456 135.851 126.316 136.491 126.316C137.115 126.316 137.667 126.452 138.147 126.724C138.627 126.996 138.995 127.372 139.251 127.852C139.515 128.324 139.647 128.86 139.647 129.46ZM138.519 129.232C138.519 128.816 138.427 128.46 138.243 128.164C138.059 127.86 137.807 127.632 137.487 127.48C137.175 127.32 136.827 127.24 136.443 127.24C135.891 127.24 135.419 127.416 135.027 127.768C134.643 128.12 134.423 128.608 134.367 129.232H138.519ZM142.216 131.488L140.872 134.716H140.14L141.016 131.488H142.216ZM146.258 129.688C146.258 129.016 146.394 128.428 146.666 127.924C146.938 127.412 147.31 127.016 147.782 126.736C148.262 126.456 148.794 126.316 149.378 126.316C149.954 126.316 150.454 126.44 150.878 126.688C151.302 126.936 151.618 127.248 151.826 127.624V126.424H152.93V133H151.826V131.776C151.61 132.16 151.286 132.48 150.854 132.736C150.43 132.984 149.934 133.108 149.366 133.108C148.782 133.108 148.254 132.964 147.782 132.676C147.31 132.388 146.938 131.984 146.666 131.464C146.394 130.944 146.258 130.352 146.258 129.688ZM151.826 129.7C151.826 129.204 151.726 128.772 151.526 128.404C151.326 128.036 151.054 127.756 150.71 127.564C150.374 127.364 150.002 127.264 149.594 127.264C149.186 127.264 148.814 127.36 148.478 127.552C148.142 127.744 147.874 128.024 147.674 128.392C147.474 128.76 147.374 129.192 147.374 129.688C147.374 130.192 147.474 130.632 147.674 131.008C147.874 131.376 148.142 131.66 148.478 131.86C148.814 132.052 149.186 132.148 149.594 132.148C150.002 132.148 150.374 132.052 150.71 131.86C151.054 131.66 151.326 131.376 151.526 131.008C151.726 130.632 151.826 130.196 151.826 129.7ZM157.104 133.108C156.6 133.108 156.148 133.024 155.748 132.856C155.348 132.68 155.032 132.44 154.8 132.136C154.568 131.824 154.44 131.468 154.416 131.068H155.544C155.576 131.396 155.728 131.664 156 131.872C156.28 132.08 156.644 132.184 157.092 132.184C157.508 132.184 157.836 132.092 158.076 131.908C158.316 131.724 158.436 131.492 158.436 131.212C158.436 130.924 158.308 130.712 158.052 130.576C157.796 130.432 157.4 130.292 156.864 130.156C156.376 130.028 155.976 129.9 155.664 129.772C155.36 129.636 155.096 129.44 154.872 129.184C154.656 128.92 154.548 128.576 154.548 128.152C154.548 127.816 154.648 127.508 154.848 127.228C155.048 126.948 155.332 126.728 155.7 126.568C156.068 126.4 156.488 126.316 156.96 126.316C157.688 126.316 158.276 126.5 158.724 126.868C159.172 127.236 159.412 127.74 159.444 128.38H158.352C158.328 128.036 158.188 127.76 157.932 127.552C157.684 127.344 157.348 127.24 156.924 127.24C156.532 127.24 156.22 127.324 155.988 127.492C155.756 127.66 155.64 127.88 155.64 128.152C155.64 128.368 155.708 128.548 155.844 128.692C155.988 128.828 156.164 128.94 156.372 129.028C156.588 129.108 156.884 129.2 157.26 129.304C157.732 129.432 158.116 129.56 158.412 129.688C158.708 129.808 158.96 129.992 159.168 130.24C159.384 130.488 159.496 130.812 159.504 131.212C159.504 131.572 159.404 131.896 159.204 132.184C159.004 132.472 158.72 132.7 158.352 132.868C157.992 133.028 157.576 133.108 157.104 133.108ZM163.373 133.108C162.869 133.108 162.417 133.024 162.017 132.856C161.617 132.68 161.301 132.44 161.069 132.136C160.837 131.824 160.709 131.468 160.685 131.068H161.813C161.845 131.396 161.997 131.664 162.269 131.872C162.549 132.08 162.913 132.184 163.361 132.184C163.777 132.184 164.105 132.092 164.345 131.908C164.585 131.724 164.705 131.492 164.705 131.212C164.705 130.924 164.577 130.712 164.321 130.576C164.065 130.432 163.669 130.292 163.133 130.156C162.645 130.028 162.245 129.9 161.933 129.772C161.629 129.636 161.365 129.44 161.141 129.184C160.925 128.92 160.817 128.576 160.817 128.152C160.817 127.816 160.917 127.508 161.117 127.228C161.317 126.948 161.601 126.728 161.969 126.568C162.337 126.4 162.757 126.316 163.229 126.316C163.957 126.316 164.545 126.5 164.993 126.868C165.441 127.236 165.681 127.74 165.713 128.38H164.621C164.597 128.036 164.457 127.76 164.201 127.552C163.953 127.344 163.617 127.24 163.193 127.24C162.801 127.24 162.489 127.324 162.257 127.492C162.025 127.66 161.909 127.88 161.909 128.152C161.909 128.368 161.977 128.548 162.113 128.692C162.257 128.828 162.433 128.94 162.641 129.028C162.857 129.108 163.153 129.2 163.529 129.304C164.001 129.432 164.385 129.56 164.681 129.688C164.977 129.808 165.229 129.992 165.437 130.24C165.653 130.488 165.765 130.812 165.773 131.212C165.773 131.572 165.673 131.896 165.473 132.184C165.273 132.472 164.989 132.7 164.621 132.868C164.261 133.028 163.845 133.108 163.373 133.108ZM167.879 125.356C167.671 125.356 167.495 125.284 167.351 125.14C167.207 124.996 167.135 124.82 167.135 124.612C167.135 124.404 167.207 124.228 167.351 124.084C167.495 123.94 167.671 123.868 167.879 123.868C168.079 123.868 168.247 123.94 168.383 124.084C168.527 124.228 168.599 124.404 168.599 124.612C168.599 124.82 168.527 124.996 168.383 125.14C168.247 125.284 168.079 125.356 167.879 125.356ZM168.407 126.424V133H167.315V126.424H168.407ZM172.98 126.316C173.548 126.316 174.044 126.44 174.468 126.688C174.9 126.936 175.22 127.248 175.428 127.624V126.424H176.532V133.144C176.532 133.744 176.404 134.276 176.148 134.74C175.892 135.212 175.524 135.58 175.044 135.844C174.572 136.108 174.02 136.24 173.388 136.24C172.524 136.24 171.804 136.036 171.228 135.628C170.652 135.22 170.312 134.664 170.208 133.96H171.288C171.408 134.36 171.656 134.68 172.032 134.92C172.408 135.168 172.86 135.292 173.388 135.292C173.988 135.292 174.476 135.104 174.852 134.728C175.236 134.352 175.428 133.824 175.428 133.144V131.764C175.212 132.148 174.892 132.468 174.468 132.724C174.044 132.98 173.548 133.108 172.98 133.108C172.396 133.108 171.864 132.964 171.384 132.676C170.912 132.388 170.54 131.984 170.268 131.464C169.996 130.944 169.86 130.352 169.86 129.688C169.86 129.016 169.996 128.428 170.268 127.924C170.54 127.412 170.912 127.016 171.384 126.736C171.864 126.456 172.396 126.316 172.98 126.316ZM175.428 129.7C175.428 129.204 175.328 128.772 175.128 128.404C174.928 128.036 174.656 127.756 174.312 127.564C173.976 127.364 173.604 127.264 173.196 127.264C172.788 127.264 172.416 127.36 172.08 127.552C171.744 127.744 171.476 128.024 171.276 128.392C171.076 128.76 170.976 129.192 170.976 129.688C170.976 130.192 171.076 130.632 171.276 131.008C171.476 131.376 171.744 131.66 172.08 131.86C172.416 132.052 172.788 132.148 173.196 132.148C173.604 132.148 173.976 132.052 174.312 131.86C174.656 131.66 174.928 131.376 175.128 131.008C175.328 130.632 175.428 130.196 175.428 129.7ZM181.581 126.304C182.381 126.304 183.029 126.548 183.525 127.036C184.021 127.516 184.269 128.212 184.269 129.124V133H183.189V129.28C183.189 128.624 183.025 128.124 182.697 127.78C182.369 127.428 181.921 127.252 181.353 127.252C180.777 127.252 180.317 127.432 179.973 127.792C179.637 128.152 179.469 128.676 179.469 129.364V133H178.377V126.424H179.469V127.36C179.685 127.024 179.977 126.764 180.345 126.58C180.721 126.396 181.133 126.304 181.581 126.304ZM190.584 127.324V131.2C190.584 131.52 190.652 131.748 190.788 131.884C190.924 132.012 191.16 132.076 191.496 132.076H192.3V133H191.316C190.708 133 190.252 132.86 189.948 132.58C189.644 132.3 189.492 131.84 189.492 131.2V127.324H188.64V126.424H189.492V124.768H190.584V126.424H192.3V127.324H190.584ZM193.215 129.688C193.215 129.016 193.351 128.428 193.623 127.924C193.895 127.412 194.267 127.016 194.739 126.736C195.219 126.456 195.751 126.316 196.335 126.316C196.911 126.316 197.411 126.44 197.835 126.688C198.259 126.936 198.575 127.248 198.783 127.624V126.424H199.887V133H198.783V131.776C198.567 132.16 198.243 132.48 197.811 132.736C197.387 132.984 196.891 133.108 196.323 133.108C195.739 133.108 195.211 132.964 194.739 132.676C194.267 132.388 193.895 131.984 193.623 131.464C193.351 130.944 193.215 130.352 193.215 129.688ZM198.783 129.7C198.783 129.204 198.683 128.772 198.483 128.404C198.283 128.036 198.011 127.756 197.667 127.564C197.331 127.364 196.959 127.264 196.551 127.264C196.143 127.264 195.771 127.36 195.435 127.552C195.099 127.744 194.831 128.024 194.631 128.392C194.431 128.76 194.331 129.192 194.331 129.688C194.331 130.192 194.431 130.632 194.631 131.008C194.831 131.376 195.099 131.66 195.435 131.86C195.771 132.052 196.143 132.148 196.551 132.148C196.959 132.148 197.331 132.052 197.667 131.86C198.011 131.66 198.283 131.376 198.483 131.008C198.683 130.632 198.783 130.196 198.783 129.7ZM204.061 133.108C203.557 133.108 203.105 133.024 202.705 132.856C202.305 132.68 201.989 132.44 201.757 132.136C201.525 131.824 201.397 131.468 201.373 131.068H202.501C202.533 131.396 202.685 131.664 202.957 131.872C203.237 132.08 203.601 132.184 204.049 132.184C204.465 132.184 204.793 132.092 205.033 131.908C205.273 131.724 205.393 131.492 205.393 131.212C205.393 130.924 205.265 130.712 205.009 130.576C204.753 130.432 204.357 130.292 203.821 130.156C203.333 130.028 202.933 129.9 202.621 129.772C202.317 129.636 202.053 129.44 201.829 129.184C201.613 128.92 201.505 128.576 201.505 128.152C201.505 127.816 201.605 127.508 201.805 127.228C202.005 126.948 202.289 126.728 202.657 126.568C203.025 126.4 203.445 126.316 203.917 126.316C204.645 126.316 205.233 126.5 205.681 126.868C206.129 127.236 206.369 127.74 206.401 128.38H205.309C205.285 128.036 205.145 127.76 204.889 127.552C204.641 127.344 204.305 127.24 203.881 127.24C203.489 127.24 203.177 127.324 202.945 127.492C202.713 127.66 202.597 127.88 202.597 128.152C202.597 128.368 202.665 128.548 202.801 128.692C202.945 128.828 203.121 128.94 203.329 129.028C203.545 129.108 203.841 129.2 204.217 129.304C204.689 129.432 205.073 129.56 205.369 129.688C205.665 129.808 205.917 129.992 206.125 130.24C206.341 130.488 206.453 130.812 206.461 131.212C206.461 131.572 206.361 131.896 206.161 132.184C205.961 132.472 205.677 132.7 205.309 132.868C204.949 133.028 204.533 133.108 204.061 133.108ZM211.674 133L209.094 130.096V133H208.002V124.12H209.094V129.34L211.626 126.424H213.15L210.054 129.7L213.162 133H211.674ZM216.506 133.108C216.002 133.108 215.55 133.024 215.15 132.856C214.75 132.68 214.434 132.44 214.202 132.136C213.97 131.824 213.842 131.468 213.818 131.068H214.946C214.978 131.396 215.13 131.664 215.402 131.872C215.682 132.08 216.046 132.184 216.494 132.184C216.91 132.184 217.238 132.092 217.478 131.908C217.718 131.724 217.838 131.492 217.838 131.212C217.838 130.924 217.71 130.712 217.454 130.576C217.198 130.432 216.802 130.292 216.266 130.156C215.778 130.028 215.378 129.9 215.066 129.772C214.762 129.636 214.498 129.44 214.274 129.184C214.058 128.92 213.95 128.576 213.95 128.152C213.95 127.816 214.05 127.508 214.25 127.228C214.45 126.948 214.734 126.728 215.102 126.568C215.47 126.4 215.89 126.316 216.362 126.316C217.09 126.316 217.678 126.5 218.126 126.868C218.574 127.236 218.814 127.74 218.846 128.38H217.754C217.73 128.036 217.59 127.76 217.334 127.552C217.086 127.344 216.75 127.24 216.326 127.24C215.934 127.24 215.622 127.324 215.39 127.492C215.158 127.66 215.042 127.88 215.042 128.152C215.042 128.368 215.11 128.548 215.246 128.692C215.39 128.828 215.566 128.94 215.774 129.028C215.99 129.108 216.286 129.2 216.662 129.304C217.134 129.432 217.518 129.56 217.814 129.688C218.11 129.808 218.362 129.992 218.57 130.24C218.786 130.488 218.898 130.812 218.906 131.212C218.906 131.572 218.806 131.896 218.606 132.184C218.406 132.472 218.122 132.7 217.754 132.868C217.394 133.028 216.978 133.108 216.506 133.108ZM221.575 131.488L220.231 134.716H219.499L220.375 131.488H221.575ZM225.618 129.688C225.618 129.016 225.754 128.428 226.026 127.924C226.298 127.412 226.67 127.016 227.142 126.736C227.622 126.456 228.154 126.316 228.738 126.316C229.314 126.316 229.814 126.44 230.238 126.688C230.662 126.936 230.978 127.248 231.186 127.624V126.424H232.29V133H231.186V131.776C230.97 132.16 230.646 132.48 230.214 132.736C229.79 132.984 229.294 133.108 228.726 133.108C228.142 133.108 227.614 132.964 227.142 132.676C226.67 132.388 226.298 131.984 226.026 131.464C225.754 130.944 225.618 130.352 225.618 129.688ZM231.186 129.7C231.186 129.204 231.086 128.772 230.886 128.404C230.686 128.036 230.414 127.756 230.07 127.564C229.734 127.364 229.362 127.264 228.954 127.264C228.546 127.264 228.174 127.36 227.838 127.552C227.502 127.744 227.234 128.024 227.034 128.392C226.834 128.76 226.734 129.192 226.734 129.688C226.734 130.192 226.834 130.632 227.034 131.008C227.234 131.376 227.502 131.66 227.838 131.86C228.174 132.052 228.546 132.148 228.954 132.148C229.362 132.148 229.734 132.052 230.07 131.86C230.414 131.66 230.686 131.376 230.886 131.008C231.086 130.632 231.186 130.196 231.186 129.7ZM237.339 126.304C238.139 126.304 238.787 126.548 239.283 127.036C239.779 127.516 240.027 128.212 240.027 129.124V133H238.947V129.28C238.947 128.624 238.783 128.124 238.455 127.78C238.127 127.428 237.679 127.252 237.111 127.252C236.535 127.252 236.075 127.432 235.731 127.792C235.395 128.152 235.227 128.676 235.227 129.364V133H234.135V126.424H235.227V127.36C235.443 127.024 235.735 126.764 236.103 126.58C236.479 126.396 236.891 126.304 237.339 126.304ZM241.403 129.688C241.403 129.016 241.539 128.428 241.811 127.924C242.083 127.412 242.455 127.016 242.927 126.736C243.407 126.456 243.943 126.316 244.535 126.316C245.047 126.316 245.523 126.436 245.963 126.676C246.403 126.908 246.739 127.216 246.971 127.6V124.12H248.075V133H246.971V131.764C246.755 132.156 246.435 132.48 246.011 132.736C245.587 132.984 245.091 133.108 244.523 133.108C243.939 133.108 243.407 132.964 242.927 132.676C242.455 132.388 242.083 131.984 241.811 131.464C241.539 130.944 241.403 130.352 241.403 129.688ZM246.971 129.7C246.971 129.204 246.871 128.772 246.671 128.404C246.471 128.036 246.199 127.756 245.855 127.564C245.519 127.364 245.147 127.264 244.739 127.264C244.331 127.264 243.959 127.36 243.623 127.552C243.287 127.744 243.019 128.024 242.819 128.392C242.619 128.76 242.519 129.192 242.519 129.688C242.519 130.192 242.619 130.632 242.819 131.008C243.019 131.376 243.287 131.66 243.623 131.86C243.959 132.052 244.331 132.148 244.739 132.148C245.147 132.148 245.519 132.052 245.855 131.86C246.199 131.66 246.471 131.376 246.671 131.008C246.871 130.632 246.971 130.196 246.971 129.7ZM255.447 133.108C254.943 133.108 254.491 133.024 254.091 132.856C253.691 132.68 253.375 132.44 253.143 132.136C252.911 131.824 252.783 131.468 252.759 131.068H253.887C253.919 131.396 254.071 131.664 254.343 131.872C254.623 132.08 254.987 132.184 255.435 132.184C255.851 132.184 256.179 132.092 256.419 131.908C256.659 131.724 256.779 131.492 256.779 131.212C256.779 130.924 256.651 130.712 256.395 130.576C256.139 130.432 255.743 130.292 255.207 130.156C254.719 130.028 254.319 129.9 254.007 129.772C253.703 129.636 253.439 129.44 253.215 129.184C252.999 128.92 252.891 128.576 252.891 128.152C252.891 127.816 252.991 127.508 253.191 127.228C253.391 126.948 253.675 126.728 254.043 126.568C254.411 126.4 254.831 126.316 255.303 126.316C256.031 126.316 256.619 126.5 257.067 126.868C257.515 127.236 257.755 127.74 257.787 128.38H256.695C256.671 128.036 256.531 127.76 256.275 127.552C256.027 127.344 255.691 127.24 255.267 127.24C254.875 127.24 254.563 127.324 254.331 127.492C254.099 127.66 253.983 127.88 253.983 128.152C253.983 128.368 254.051 128.548 254.187 128.692C254.331 128.828 254.507 128.94 254.715 129.028C254.931 129.108 255.227 129.2 255.603 129.304C256.075 129.432 256.459 129.56 256.755 129.688C257.051 129.808 257.303 129.992 257.511 130.24C257.727 130.488 257.839 130.812 257.847 131.212C257.847 131.572 257.747 131.896 257.547 132.184C257.347 132.472 257.063 132.7 256.695 132.868C256.335 133.028 255.919 133.108 255.447 133.108ZM260.721 127.324V131.2C260.721 131.52 260.789 131.748 260.925 131.884C261.061 132.012 261.297 132.076 261.633 132.076H262.437V133H261.453C260.845 133 260.389 132.86 260.085 132.58C259.781 132.3 259.629 131.84 259.629 131.2V127.324H258.777V126.424H259.629V124.768H260.721V126.424H262.437V127.324H260.721ZM263.352 129.688C263.352 129.016 263.488 128.428 263.76 127.924C264.032 127.412 264.404 127.016 264.876 126.736C265.356 126.456 265.888 126.316 266.472 126.316C267.048 126.316 267.548 126.44 267.972 126.688C268.396 126.936 268.712 127.248 268.92 127.624V126.424H270.024V133H268.92V131.776C268.704 132.16 268.38 132.48 267.948 132.736C267.524 132.984 267.028 133.108 266.46 133.108C265.876 133.108 265.348 132.964 264.876 132.676C264.404 132.388 264.032 131.984 263.76 131.464C263.488 130.944 263.352 130.352 263.352 129.688ZM268.92 129.7C268.92 129.204 268.82 128.772 268.62 128.404C268.42 128.036 268.148 127.756 267.804 127.564C267.468 127.364 267.096 127.264 266.688 127.264C266.28 127.264 265.908 127.36 265.572 127.552C265.236 127.744 264.968 128.024 264.768 128.392C264.568 128.76 264.468 129.192 264.468 129.688C264.468 130.192 264.568 130.632 264.768 131.008C264.968 131.376 265.236 131.66 265.572 131.86C265.908 132.052 266.28 132.148 266.688 132.148C267.096 132.148 267.468 132.052 267.804 131.86C268.148 131.66 268.42 131.376 268.62 131.008C268.82 130.632 268.92 130.196 268.92 129.7ZM277.533 126.424L273.573 136.096H272.445L273.741 132.928L271.089 126.424H272.301L274.365 131.752L276.405 126.424H277.533ZM284.698 133.108C284.082 133.108 283.522 132.968 283.018 132.688C282.522 132.408 282.13 132.012 281.842 131.5C281.562 130.98 281.422 130.38 281.422 129.7C281.422 129.028 281.566 128.436 281.854 127.924C282.15 127.404 282.55 127.008 283.054 126.736C283.558 126.456 284.122 126.316 284.746 126.316C285.37 126.316 285.934 126.456 286.438 126.736C286.942 127.008 287.338 127.4 287.626 127.912C287.922 128.424 288.07 129.02 288.07 129.7C288.07 130.38 287.918 130.98 287.614 131.5C287.318 132.012 286.914 132.408 286.402 132.688C285.89 132.968 285.322 133.108 284.698 133.108ZM284.698 132.148C285.09 132.148 285.458 132.056 285.802 131.872C286.146 131.688 286.422 131.412 286.63 131.044C286.846 130.676 286.954 130.228 286.954 129.7C286.954 129.172 286.85 128.724 286.642 128.356C286.434 127.988 286.162 127.716 285.826 127.54C285.49 127.356 285.126 127.264 284.734 127.264C284.334 127.264 283.966 127.356 283.63 127.54C283.302 127.716 283.038 127.988 282.838 128.356C282.638 128.724 282.538 129.172 282.538 129.7C282.538 130.236 282.634 130.688 282.826 131.056C283.026 131.424 283.29 131.7 283.618 131.884C283.946 132.06 284.306 132.148 284.698 132.148ZM292.71 126.304C293.51 126.304 294.158 126.548 294.654 127.036C295.15 127.516 295.398 128.212 295.398 129.124V133H294.318V129.28C294.318 128.624 294.154 128.124 293.826 127.78C293.498 127.428 293.05 127.252 292.482 127.252C291.906 127.252 291.446 127.432 291.102 127.792C290.766 128.152 290.598 128.676 290.598 129.364V133H289.506V126.424H290.598V127.36C290.814 127.024 291.106 126.764 291.474 126.58C291.85 126.396 292.262 126.304 292.71 126.304ZM73.256 142.324V146.2C73.256 146.52 73.324 146.748 73.46 146.884C73.596 147.012 73.832 147.076 74.168 147.076H74.972V148H73.988C73.38 148 72.924 147.86 72.62 147.58C72.316 147.3 72.164 146.84 72.164 146.2V142.324H71.312V141.424H72.164V139.768H73.256V141.424H74.972V142.324H73.256ZM77.3871 142.492C77.5791 142.116 77.8511 141.824 78.2031 141.616C78.5631 141.408 78.9991 141.304 79.5111 141.304V142.432H79.2231C77.9991 142.432 77.3871 143.096 77.3871 144.424V148H76.2951V141.424H77.3871V142.492ZM80.3637 144.688C80.3637 144.016 80.4997 143.428 80.7717 142.924C81.0437 142.412 81.4157 142.016 81.8877 141.736C82.3677 141.456 82.8997 141.316 83.4837 141.316C84.0597 141.316 84.5597 141.44 84.9837 141.688C85.4077 141.936 85.7237 142.248 85.9317 142.624V141.424H87.0357V148H85.9317V146.776C85.7157 147.16 85.3917 147.48 84.9597 147.736C84.5357 147.984 84.0397 148.108 83.4717 148.108C82.8877 148.108 82.3597 147.964 81.8877 147.676C81.4157 147.388 81.0437 146.984 80.7717 146.464C80.4997 145.944 80.3637 145.352 80.3637 144.688ZM85.9317 144.7C85.9317 144.204 85.8317 143.772 85.6317 143.404C85.4317 143.036 85.1597 142.756 84.8157 142.564C84.4797 142.364 84.1077 142.264 83.6997 142.264C83.2917 142.264 82.9197 142.36 82.5837 142.552C82.2477 142.744 81.9797 143.024 81.7797 143.392C81.5797 143.76 81.4797 144.192 81.4797 144.688C81.4797 145.192 81.5797 145.632 81.7797 146.008C81.9797 146.376 82.2477 146.66 82.5837 146.86C82.9197 147.052 83.2917 147.148 83.6997 147.148C84.1077 147.148 84.4797 147.052 84.8157 146.86C85.1597 146.66 85.4317 146.376 85.6317 146.008C85.8317 145.632 85.9317 145.196 85.9317 144.7ZM88.473 144.7C88.473 144.02 88.609 143.428 88.881 142.924C89.153 142.412 89.529 142.016 90.009 141.736C90.497 141.456 91.053 141.316 91.677 141.316C92.485 141.316 93.149 141.512 93.669 141.904C94.197 142.296 94.545 142.84 94.713 143.536H93.537C93.425 143.136 93.205 142.82 92.877 142.588C92.557 142.356 92.157 142.24 91.677 142.24C91.053 142.24 90.549 142.456 90.165 142.888C89.781 143.312 89.589 143.916 89.589 144.7C89.589 145.492 89.781 146.104 90.165 146.536C90.549 146.968 91.053 147.184 91.677 147.184C92.157 147.184 92.557 147.072 92.877 146.848C93.197 146.624 93.417 146.304 93.537 145.888H94.713C94.537 146.56 94.185 147.1 93.657 147.508C93.129 147.908 92.469 148.108 91.677 148.108C91.053 148.108 90.497 147.968 90.009 147.688C89.529 147.408 89.153 147.012 88.881 146.5C88.609 145.988 88.473 145.388 88.473 144.7ZM99.8421 148L97.2621 145.096V148H96.1701V139.12H97.2621V144.34L99.7941 141.424H101.318L98.2221 144.7L101.33 148H99.8421ZM102.694 148.072C102.486 148.072 102.31 148 102.166 147.856C102.022 147.712 101.95 147.536 101.95 147.328C101.95 147.12 102.022 146.944 102.166 146.8C102.31 146.656 102.486 146.584 102.694 146.584C102.894 146.584 103.062 146.656 103.198 146.8C103.342 146.944 103.414 147.12 103.414 147.328C103.414 147.536 103.342 147.712 103.198 147.856C103.062 148 102.894 148.072 102.694 148.072Z" fill="#111111" fill-opacity="0.8"/>
</g>
<defs>
<filter id="filter0_f_3873_197" x="-1.40625" y="-102" width="466.707" height="537.666" filterUnits="userSpaceOnUse" color-interpolation-filters="sRGB">
<feFlood flood-opacity="0" result="BackgroundImageFix"/>
<feBlend mode="normal" in="SourceGraphic" in2="BackgroundImageFix" result="shape"/>
<feGaussianBlur stdDeviation="72.5" result="effect1_foregroundBlur_3873_197"/>
</filter>
<filter id="filter1_f_3873_197" x="-123" y="-202" width="427" height="463" filterUnits="userSpaceOnUse" color-interpolation-filters="sRGB">
<feFlood flood-opacity="0" result="BackgroundImageFix"/>
<feBlend mode="normal" in="SourceGraphic" in2="BackgroundImageFix" result="shape"/>
<feGaussianBlur stdDeviation="72.5" result="effect1_foregroundBlur_3873_197"/>
</filter>
<clipPath id="clip0_3873_197">
<rect width="373" height="208.18" rx="13" fill="white"/>
</clipPath>
</defs>
</svg>
