<svg width="12" height="13" viewBox="0 0 12 13" fill="none" xmlns="http://www.w3.org/2000/svg">
<path d="M5.66698 4.29986V6.49991M5.66698 8.69997H5.67254M10.042 3.34833C10.4309 3.56724 10.6697 3.977 10.667 4.41976V8.42606C10.667 8.87102 10.4209 9.28133 10.0236 9.49749L6.27365 11.846C6.08772 11.947 5.87906 12 5.66698 12C5.4549 12 5.24624 11.947 5.06031 11.846L1.31032 9.49749C1.11617 9.39211 0.954082 9.23714 0.840939 9.04871C0.727797 8.86028 0.667731 8.64527 0.666992 8.42606V4.41921C0.666992 3.97425 0.913103 3.56449 1.31032 3.34833L5.06031 1.15928C5.25172 1.0548 5.46674 1 5.68531 1C5.90389 1 6.1189 1.0548 6.31031 1.15928L10.0603 3.34833H10.042Z" stroke="#64BC21" stroke-linecap="round" stroke-linejoin="round"/>
</svg>
