<svg width="12" height="13" viewBox="0 0 12 13" fill="none" xmlns="http://www.w3.org/2000/svg">
<path d="M5.66991 4.29986V6.49991M5.66991 8.69996H5.67547M10.0449 3.34833C10.4338 3.56724 10.6727 3.977 10.6699 4.41976V8.42606C10.6699 8.87102 10.4238 9.28133 10.0266 9.49749L6.27657 11.846C6.09065 11.947 5.88199 12 5.66991 12C5.45783 12 5.24917 11.947 5.06324 11.846L1.31325 9.49749C1.1191 9.39211 0.957012 9.23714 0.843869 9.04871C0.730727 8.86028 0.670661 8.64527 0.669922 8.42606V4.41921C0.669922 3.97425 0.916032 3.56449 1.31325 3.34833L5.06324 1.15928C5.25465 1.0548 5.46967 1 5.68824 1C5.90682 1 6.12183 1.0548 6.31324 1.15928L10.0632 3.34833H10.0449Z" stroke="#EEC642" stroke-linecap="round" stroke-linejoin="round"/>
</svg>
