<svg width="8" height="14" viewBox="0 0 8 14" fill="none" xmlns="http://www.w3.org/2000/svg">
<path fill-rule="evenodd" clip-rule="evenodd" d="M0.212185 4.37823C0.146686 4.43841 0.0941507 4.51098 0.0577134 4.59162C0.0212761 4.67225 0.00168311 4.7593 0.000103751 4.84756C-0.00147561 4.93583 0.0149909 5.0235 0.0485207 5.10535C0.0820505 5.18721 0.131957 5.26156 0.195262 5.32398C0.258568 5.38641 0.333976 5.43562 0.416987 5.46868C0.499999 5.50174 0.588914 5.51798 0.678427 5.51642C0.767941 5.51486 0.856219 5.49554 0.937996 5.45961C1.01977 5.42369 1.09337 5.37188 1.15441 5.3073L4.01663 2.48502L6.87885 5.3073C7.00523 5.42341 7.17238 5.48663 7.34509 5.48362C7.51781 5.48062 7.68259 5.41163 7.80474 5.29119C7.92688 5.17075 7.99685 5.00826 7.9999 4.83796C8.00294 4.66766 7.93883 4.50284 7.82107 4.37823L4.48774 1.09142C4.36274 0.968315 4.1933 0.89917 4.01663 0.89917C3.83996 0.89917 3.67052 0.968315 3.54552 1.09142L0.212185 4.37823ZM7.82107 10.4201C7.93883 10.2955 8.00294 10.1307 7.9999 9.96038C7.99685 9.79008 7.92688 9.62759 7.80474 9.50715C7.68259 9.38671 7.51781 9.31772 7.34509 9.31471C7.17238 9.31171 7.00523 9.37493 6.87885 9.49104L4.01663 12.3133L1.15441 9.49104C1.02803 9.37493 0.860877 9.31171 0.688165 9.31471C0.515453 9.31772 0.350666 9.38671 0.228521 9.50715C0.106377 9.62759 0.0364103 9.79008 0.033363 9.96038C0.0303157 10.1307 0.0944254 10.2955 0.212185 10.4201L3.54552 13.7069C3.67052 13.83 3.83996 13.8992 4.01663 13.8992C4.1933 13.8992 4.36274 13.83 4.48774 13.7069L7.82107 10.4201Z" fill="#707070"/>
</svg>
