<svg width="15" height="10" viewBox="0 0 15 10" fill="none" xmlns="http://www.w3.org/2000/svg">
<path d="M14.7174 4.72312C14.6962 4.67437 14.1762 3.52125 13.0149 2.36C11.9374 1.28375 10.0862 0 7.37491 0C4.66366 0 2.81241 1.28375 1.73491 2.36C0.573659 3.52125 0.0536588 4.6725 0.0324088 4.72312C0.0110415 4.77113 0 4.82308 0 4.87562C0 4.92817 0.0110415 4.98012 0.0324088 5.02812C0.0536588 5.07625 0.573659 6.22938 1.73491 7.39062C2.81241 8.46687 4.66366 9.75 7.37491 9.75C10.0862 9.75 11.9374 8.46687 13.0149 7.39062C14.1762 6.22938 14.6962 5.07812 14.7174 5.02812C14.7388 4.98012 14.7498 4.92817 14.7498 4.87562C14.7498 4.82308 14.7388 4.77113 14.7174 4.72312ZM7.37491 9C5.41366 9 3.70116 8.28625 2.28428 6.87938C1.69035 6.28907 1.18774 5.61352 0.793034 4.875C1.18764 4.1366 1.69026 3.46124 2.28428 2.87125C3.70116 1.46375 5.41366 0.75 7.37491 0.75C9.33616 0.75 11.0487 1.46375 12.4655 2.87125C13.0596 3.46124 13.5622 4.1366 13.9568 4.875C13.5587 5.63813 11.5624 9 7.37491 9ZM7.37491 2C6.80629 2 6.25044 2.16862 5.77764 2.48452C5.30485 2.80043 4.93636 3.24945 4.71876 3.77479C4.50115 4.30012 4.44422 4.87819 4.55515 5.43588C4.66608 5.99358 4.9399 6.50586 5.34198 6.90793C5.74405 7.31001 6.25633 7.58382 6.81402 7.69476C7.37172 7.80569 7.94979 7.74876 8.47512 7.53115C9.00046 7.31355 9.44947 6.94506 9.76538 6.47226C10.0813 5.99947 10.2499 5.44362 10.2499 4.875C10.2489 4.11281 9.9457 3.38212 9.40674 2.84316C8.86779 2.30421 8.1371 2.00099 7.37491 2ZM7.37491 7C6.95462 7 6.54378 6.87537 6.19432 6.64187C5.84487 6.40838 5.5725 6.07649 5.41166 5.6882C5.25083 5.29991 5.20875 4.87264 5.29074 4.46043C5.37273 4.04822 5.57512 3.66958 5.87231 3.3724C6.16949 3.07521 6.54813 2.87282 6.96034 2.79083C7.37255 2.70884 7.79982 2.75092 8.18811 2.91176C8.5764 3.07259 8.90828 3.34496 9.14178 3.69441C9.37528 4.04387 9.49991 4.45471 9.49991 4.875C9.49991 5.43859 9.27602 5.97909 8.87751 6.3776C8.479 6.77612 7.93849 7 7.37491 7Z" fill="black"/>
</svg>
