<svg width="15" height="12" viewBox="0 0 15 12" fill="none" xmlns="http://www.w3.org/2000/svg">
<path d="M2.65241 0.10015C2.58376 0.0364289 2.49375 0.00070622 2.40008 1.036e-05C2.30642 -0.0006855 2.21589 0.0336958 2.1463 0.0963896C2.07671 0.159083 2.0331 0.24555 2.02405 0.338778C2.015 0.432006 2.04117 0.525245 2.09741 0.60015L3.40241 2.03765C1.07241 3.4064 0.0755338 5.60015 0.0324088 5.69827C0.0110415 5.74628 0 5.79823 0 5.85077C0 5.90332 0.0110415 5.95527 0.0324088 6.00327C0.0536588 6.0514 0.573659 7.20453 1.73491 8.36578C2.81241 9.44203 4.66366 10.7252 7.37491 10.7252C8.50817 10.7321 9.62935 10.4921 10.6605 10.022L12.098 11.6026C12.165 11.6762 12.2585 11.7202 12.3579 11.7249C12.4573 11.7296 12.5544 11.6946 12.628 11.6277C12.7016 11.5607 12.7456 11.4672 12.7503 11.3678C12.755 11.2684 12.72 11.1712 12.653 11.0977L2.65241 0.10015ZM5.69116 4.55765L8.50366 7.65265C8.0814 7.9165 7.57989 8.0237 7.08666 7.95553C6.59343 7.88736 6.1398 7.64815 5.80493 7.27965C5.47007 6.91115 5.27524 6.43677 5.25445 5.93928C5.23365 5.4418 5.38822 4.95281 5.69116 4.55765ZM7.37491 9.97515C5.41366 9.97515 3.70116 9.2614 2.28428 7.85453C1.69021 7.26434 1.18759 6.58877 0.793034 5.85015C1.06116 5.33765 2.04928 3.6514 3.91803 2.60577L5.18053 3.9939C4.73104 4.52654 4.49034 5.20432 4.5032 5.90115C4.51606 6.59799 4.78161 7.26642 5.25045 7.78211C5.71929 8.29779 6.3595 8.62562 7.05196 8.70458C7.74443 8.78355 8.442 8.60829 9.01491 8.2114L10.128 9.4364C9.25534 9.79746 8.31933 9.98063 7.37491 9.97515ZM7.77491 3.76265C7.67719 3.744 7.59089 3.6873 7.53498 3.60502C7.47907 3.52274 7.45814 3.42162 7.47678 3.3239C7.49543 3.22618 7.55213 3.13988 7.63442 3.08397C7.7167 3.02806 7.81782 3.00713 7.91553 3.02577C8.52617 3.1444 9.08213 3.45718 9.50054 3.91749C9.91895 4.3778 10.1774 4.96099 10.2374 5.58015C10.242 5.62919 10.2368 5.67865 10.2223 5.7257C10.2077 5.77276 10.184 5.81648 10.1526 5.85438C10.1211 5.89228 10.0825 5.92361 10.0389 5.94659C9.99537 5.96956 9.9477 5.98373 9.89866 5.98828H9.86366C9.76988 5.98867 9.67936 5.95391 9.60994 5.89086C9.54053 5.82781 9.49725 5.74103 9.48866 5.64765C9.44409 5.1908 9.25321 4.76054 8.94443 4.42091C8.63565 4.08127 8.22546 3.8504 7.77491 3.76265ZM14.7174 6.00327C14.6918 6.06077 14.0693 7.44078 12.6637 8.69828C12.6272 8.73245 12.5843 8.75899 12.5374 8.77634C12.4905 8.79369 12.4407 8.80149 12.3908 8.7993C12.3408 8.7971 12.2919 8.78495 12.2467 8.76356C12.2015 8.74217 12.1611 8.71197 12.1278 8.67473C12.0944 8.63749 12.0689 8.59396 12.0526 8.54671C12.0364 8.49946 12.0297 8.44943 12.0331 8.39957C12.0364 8.34971 12.0497 8.30102 12.0721 8.25636C12.0945 8.21171 12.1257 8.17198 12.1637 8.13953C12.8902 7.48671 13.497 6.71193 13.9568 5.85015C13.5622 5.11158 13.0595 4.43602 12.4655 3.84577C11.0487 2.4389 9.33616 1.72515 7.37491 1.72515C6.96265 1.7246 6.55105 1.75805 6.14428 1.82515C6.09531 1.83438 6.04498 1.83376 5.99625 1.82332C5.94751 1.81287 5.90135 1.79282 5.86045 1.76433C5.81956 1.73584 5.78476 1.69948 5.75808 1.65738C5.73139 1.61529 5.71337 1.56829 5.70507 1.51915C5.69676 1.47001 5.69833 1.4197 5.70969 1.37117C5.72105 1.32264 5.74197 1.27687 5.77122 1.23652C5.80048 1.19617 5.83748 1.16205 5.88008 1.13617C5.92267 1.11029 5.96999 1.09316 6.01928 1.08577C6.46731 1.01137 6.92075 0.974363 7.37491 0.97515C10.0862 0.97515 11.9374 2.2589 13.0149 3.33515C14.1762 4.4964 14.6962 5.64765 14.7174 5.69827C14.7388 5.74628 14.7498 5.79823 14.7498 5.85077C14.7498 5.90332 14.7388 5.95527 14.7174 6.00327Z" fill="black"/>
</svg>
