<svg width="10" height="6" viewBox="0 0 10 6" fill="none" xmlns="http://www.w3.org/2000/svg">
<path d="M0 5.05375C0 4.95065 0.0409575 4.85177 0.113862 4.77886C0.186767 4.70596 0.285647 4.665 0.38875 4.665H2.72125C2.82435 4.665 2.92323 4.70596 2.99614 4.77886C3.06904 4.85177 3.11 4.95065 3.11 5.05375C3.11 5.15685 3.06904 5.25573 2.99614 5.32864C2.92323 5.40154 2.82435 5.4425 2.72125 5.4425H0.38875C0.285647 5.4425 0.186767 5.40154 0.113862 5.32864C0.0409575 5.25573 0 5.15685 0 5.05375ZM0 2.72125C0 2.61815 0.0409575 2.51927 0.113862 2.44636C0.186767 2.37346 0.285647 2.3325 0.38875 2.3325H5.83125C5.93435 2.3325 6.03323 2.37346 6.10614 2.44636C6.17904 2.51927 6.22 2.61815 6.22 2.72125C6.22 2.82435 6.17904 2.92323 6.10614 2.99614C6.03323 3.06904 5.93435 3.11 5.83125 3.11H0.38875C0.285647 3.11 0.186767 3.06904 0.113862 2.99614C0.0409575 2.92323 0 2.82435 0 2.72125ZM0 0.38875C0 0.285647 0.0409575 0.186767 0.113862 0.113862C0.186767 0.0409575 0.285647 0 0.38875 0H8.94125C9.04435 0 9.14323 0.0409575 9.21614 0.113862C9.28904 0.186767 9.33 0.285647 9.33 0.38875C9.33 0.491853 9.28904 0.590733 9.21614 0.663638C9.14323 0.736542 9.04435 0.7775 8.94125 0.7775H0.38875C0.285647 0.7775 0.186767 0.736542 0.113862 0.663638C0.0409575 0.590733 0 0.491853 0 0.38875Z" fill="white" fill-opacity="0.5"/>
</svg>
