<svg width="20" height="20" viewBox="0 0 20 20" fill="none" xmlns="http://www.w3.org/2000/svg">
<path fill-rule="evenodd" clip-rule="evenodd" d="M0.334822 5.875C-0.205178 7.002 -0.0151776 8.321 0.364822 10.958L0.642822 12.895C1.12982 16.283 1.37382 17.976 2.54882 18.988C3.72382 20 5.44682 20 8.89382 20H11.1058C14.5528 20 16.2758 20 17.4508 18.988C18.6258 17.976 18.8698 16.283 19.3568 12.895L19.6358 10.958C20.0158 8.321 20.2058 7.002 19.6648 5.875C19.1238 4.748 17.9738 4.062 15.6728 2.692L14.2878 1.867C12.1998 0.622 11.1538 0 9.99982 0C8.84582 0 7.80082 0.622 5.71182 1.867L4.32682 2.692C2.02682 4.062 0.875822 4.748 0.334822 5.875ZM6.24982 16C6.24982 15.8011 6.32884 15.6103 6.46949 15.4697C6.61014 15.329 6.80091 15.25 6.99982 15.25H12.9998C13.1987 15.25 13.3895 15.329 13.5302 15.4697C13.6708 15.6103 13.7498 15.8011 13.7498 16C13.7498 16.1989 13.6708 16.3897 13.5302 16.5303C13.3895 16.671 13.1987 16.75 12.9998 16.75H6.99982C6.80091 16.75 6.61014 16.671 6.46949 16.5303C6.32884 16.3897 6.24982 16.1989 6.24982 16Z" fill="#565656"/>
</svg>
