<svg width="20" height="20" viewBox="0 0 20 20" fill="none" xmlns="http://www.w3.org/2000/svg">
<path d="M7.44208 15.1163C7.25704 15.1163 7.07958 15.1898 6.94874 15.3206C6.81789 15.4515 6.74438 15.6289 6.74438 15.8139C6.74438 15.999 6.81789 16.1764 6.94874 16.3073C7.07958 16.4381 7.25704 16.5116 7.44208 16.5116H13.0237C13.2087 16.5116 13.3862 16.4381 13.517 16.3073C13.6478 16.1764 13.7213 15.999 13.7213 15.8139C13.7213 15.6289 13.6478 15.4515 13.517 15.3206C13.3862 15.1898 13.2087 15.1163 13.0237 15.1163H7.44208Z" fill="#565656"/>
<path fill-rule="evenodd" clip-rule="evenodd" d="M10.0003 0C9.32588 0 8.71005 0.186046 8.03747 0.499535C7.38443 0.803721 6.63091 1.25302 5.68577 1.81581L4.33131 2.62233C3.29034 3.24279 2.46148 3.73674 1.83262 4.2093C1.18423 4.69767 0.697705 5.2 0.381416 5.8614C0.0632668 6.52279 -0.0223172 7.21581 0.00466035 8.02419C0.0316379 8.80651 0.168386 9.75814 0.339555 10.9507L0.612121 12.8409C0.832593 14.3758 1.00841 15.5935 1.26982 16.5414C1.53959 17.5181 1.92286 18.2949 2.61404 18.8893C3.3043 19.4847 4.13037 19.7498 5.14063 19.8772C6.12299 20 7.36117 20 8.92308 20H11.0776C12.6404 20 13.8777 20 14.86 19.8772C15.8703 19.7498 16.6963 19.4847 17.3866 18.8902C18.0778 18.2949 18.4611 17.5191 18.7308 16.5414C18.9922 15.5926 19.168 14.3758 19.3885 12.8409L19.6602 10.9507C19.8323 9.75814 19.969 8.80651 19.9951 8.02419C20.023 7.21488 19.9374 6.52279 19.6202 5.8614C19.3029 5.2 18.8164 4.69767 18.168 4.2093C17.5401 3.73674 16.7103 3.24279 15.6693 2.62233L14.3149 1.81581C13.3697 1.25302 12.6162 0.803721 11.9641 0.499535C11.2906 0.185116 10.6748 0 10.0003 0ZM6.36858 3.03349C7.35187 2.44744 8.04584 2.03535 8.62726 1.76372C9.19379 1.49953 9.60124 1.39535 10.0003 1.39535C10.3994 1.39535 10.8069 1.49953 11.3734 1.76372C11.9548 2.03535 12.6478 2.44744 13.6321 3.03349L14.9205 3.80093C16.0042 4.44651 16.768 4.90233 17.3299 5.32465C17.8759 5.73674 18.1764 6.07721 18.3624 6.46419C18.5476 6.85116 18.6248 7.29581 18.6015 7.97674C18.5773 8.67442 18.4527 9.54977 18.2741 10.7916L18.0136 12.5935C17.7848 14.1879 17.621 15.3172 17.3857 16.1702C17.1559 17.0037 16.8787 17.4865 16.4768 17.8326C16.074 18.1795 15.5521 18.3842 14.6861 18.493C13.8014 18.6037 12.6506 18.6047 11.0301 18.6047H8.97145C7.35001 18.6047 6.19927 18.6037 5.31459 18.493C4.44945 18.3842 3.92664 18.1795 3.52384 17.8326C3.12197 17.4865 2.84475 17.0037 2.61497 16.1702C2.37962 15.3172 2.21496 14.1879 1.98612 12.5935L1.72657 10.7916C1.54796 9.54977 1.42331 8.67349 1.39912 7.97674C1.37587 7.29581 1.45308 6.85116 1.63913 6.46419C1.82518 6.07721 2.1238 5.73674 2.67172 5.32465C3.23267 4.90233 3.99641 4.44651 5.08017 3.80093L6.36858 3.03349Z" fill="#565656"/>
</svg>
