<svg width="373" height="217" viewBox="0 0 373 217" fill="none" xmlns="http://www.w3.org/2000/svg">
<g clip-path="url(#clip0_3735_6421)">
<rect width="373" height="217" rx="13" fill="#252525"/>
<g filter="url(#filter0_f_3735_6421)">
<path d="M-23.5 304L11.5 131L113.5 272L-23.5 304Z" fill="#D7685A" fill-opacity="0.2"/>
</g>
<g filter="url(#filter1_f_3735_6421)">
<path d="M422.904 92.0678L361.835 150.588L360.966 95.255L305.351 37.9359L145.998 30.794L336.166 -23.746L422.904 92.0678Z" fill="#2A9AD3" fill-opacity="0.2"/>
</g>
<rect x="57.6" y="25.6" width="256.8" height="42.8" rx="6.4" fill="white"/>
<rect x="57.6" y="25.6" width="256.8" height="42.8" rx="6.4" stroke="#D1D5DB" stroke-width="0.8" stroke-linejoin="round"/>
<path d="M70.516 47.688C70.516 47.016 70.652 46.428 70.924 45.924C71.196 45.412 71.568 45.016 72.04 44.736C72.52 44.456 73.056 44.316 73.648 44.316C74.16 44.316 74.636 44.436 75.076 44.676C75.516 44.908 75.852 45.216 76.084 45.6V42.12H77.188V51H76.084V49.764C75.868 50.156 75.548 50.48 75.124 50.736C74.7 50.984 74.204 51.108 73.636 51.108C73.052 51.108 72.52 50.964 72.04 50.676C71.568 50.388 71.196 49.984 70.924 49.464C70.652 48.944 70.516 48.352 70.516 47.688ZM76.084 47.7C76.084 47.204 75.984 46.772 75.784 46.404C75.584 46.036 75.312 45.756 74.968 45.564C74.632 45.364 74.26 45.264 73.852 45.264C73.444 45.264 73.072 45.36 72.736 45.552C72.4 45.744 72.132 46.024 71.932 46.392C71.732 46.76 71.632 47.192 71.632 47.688C71.632 48.192 71.732 48.632 71.932 49.008C72.132 49.376 72.4 49.66 72.736 49.86C73.072 50.052 73.444 50.148 73.852 50.148C74.26 50.148 74.632 50.052 74.968 49.86C75.312 49.66 75.584 49.376 75.784 49.008C75.984 48.632 76.084 48.196 76.084 47.7ZM84.8654 44.424V51H83.7734V50.028C83.5654 50.364 83.2734 50.628 82.8974 50.82C82.5294 51.004 82.1214 51.096 81.6734 51.096C81.1614 51.096 80.7014 50.992 80.2934 50.784C79.8854 50.568 79.5614 50.248 79.3214 49.824C79.0894 49.4 78.9734 48.884 78.9734 48.276V44.424H80.0534V48.132C80.0534 48.78 80.2174 49.28 80.5454 49.632C80.8734 49.976 81.3214 50.148 81.8894 50.148C82.4734 50.148 82.9334 49.968 83.2694 49.608C83.6054 49.248 83.7734 48.724 83.7734 48.036V44.424H84.8654ZM94.6172 44.304C95.1292 44.304 95.5852 44.412 95.9852 44.628C96.3852 44.836 96.7012 45.152 96.9332 45.576C97.1652 46 97.2812 46.516 97.2812 47.124V51H96.2012V47.28C96.2012 46.624 96.0372 46.124 95.7092 45.78C95.3892 45.428 94.9532 45.252 94.4012 45.252C93.8332 45.252 93.3812 45.436 93.0452 45.804C92.7092 46.164 92.5412 46.688 92.5412 47.376V51H91.4612V47.28C91.4612 46.624 91.2972 46.124 90.9692 45.78C90.6492 45.428 90.2132 45.252 89.6612 45.252C89.0932 45.252 88.6412 45.436 88.3052 45.804C87.9692 46.164 87.8012 46.688 87.8012 47.376V51H86.7092V44.424H87.8012V45.372C88.0172 45.028 88.3052 44.764 88.6652 44.58C89.0332 44.396 89.4372 44.304 89.8772 44.304C90.4292 44.304 90.9172 44.428 91.3412 44.676C91.7652 44.924 92.0812 45.288 92.2892 45.768C92.4732 45.304 92.7772 44.944 93.2012 44.688C93.6252 44.432 94.0972 44.304 94.6172 44.304ZM106.98 44.304C107.492 44.304 107.948 44.412 108.348 44.628C108.748 44.836 109.064 45.152 109.296 45.576C109.528 46 109.644 46.516 109.644 47.124V51H108.564V47.28C108.564 46.624 108.4 46.124 108.072 45.78C107.752 45.428 107.316 45.252 106.764 45.252C106.196 45.252 105.744 45.436 105.408 45.804C105.072 46.164 104.904 46.688 104.904 47.376V51H103.824V47.28C103.824 46.624 103.66 46.124 103.332 45.78C103.012 45.428 102.576 45.252 102.024 45.252C101.456 45.252 101.004 45.436 100.668 45.804C100.332 46.164 100.164 46.688 100.164 47.376V51H99.0724V44.424H100.164V45.372C100.38 45.028 100.668 44.764 101.028 44.58C101.396 44.396 101.8 44.304 102.24 44.304C102.792 44.304 103.28 44.428 103.704 44.676C104.128 44.924 104.444 45.288 104.652 45.768C104.836 45.304 105.14 44.944 105.564 44.688C105.988 44.432 106.46 44.304 106.98 44.304ZM117.1 44.424L113.14 54.096H112.012L113.308 50.928L110.656 44.424H111.868L113.932 49.752L115.972 44.424H117.1ZM124.197 43.308C125.085 43.308 125.857 43.476 126.513 43.812C127.169 44.148 127.673 44.62 128.025 45.228C128.377 45.828 128.553 46.524 128.553 47.316C128.553 47.948 128.449 48.556 128.241 49.14C128.033 49.716 127.729 50.184 127.329 50.544C126.937 50.904 126.477 51.084 125.949 51.084C125.549 51.084 125.241 50.984 125.025 50.784C124.809 50.584 124.685 50.312 124.653 49.968C124.405 50.312 124.089 50.584 123.705 50.784C123.329 50.984 122.929 51.084 122.505 51.084C121.897 51.084 121.417 50.9 121.065 50.532C120.721 50.156 120.549 49.652 120.549 49.02C120.549 48.42 120.673 47.86 120.921 47.34C121.177 46.82 121.529 46.404 121.977 46.092C122.425 45.772 122.933 45.612 123.501 45.612C124.261 45.612 124.773 45.9 125.037 46.476L125.169 45.732H126.117L125.517 49.2C125.493 49.352 125.481 49.492 125.481 49.62C125.481 50.1 125.693 50.34 126.117 50.34C126.437 50.34 126.713 50.188 126.945 49.884C127.185 49.58 127.365 49.2 127.485 48.744C127.605 48.28 127.665 47.824 127.665 47.376C127.665 46.328 127.349 45.516 126.717 44.94C126.093 44.364 125.209 44.076 124.065 44.076C123.113 44.076 122.253 44.308 121.485 44.772C120.725 45.228 120.129 45.856 119.697 46.656C119.265 47.456 119.049 48.34 119.049 49.308C119.041 50.364 119.357 51.176 119.997 51.744C120.637 52.32 121.525 52.608 122.661 52.608C123.413 52.608 124.077 52.472 124.653 52.2L124.797 52.944C124.085 53.24 123.301 53.388 122.445 53.388C121.589 53.388 120.833 53.224 120.177 52.896C119.529 52.576 119.025 52.112 118.665 51.504C118.313 50.904 118.137 50.204 118.137 49.404C118.137 48.276 118.397 47.248 118.917 46.32C119.437 45.384 120.157 44.648 121.077 44.112C122.005 43.576 123.045 43.308 124.197 43.308ZM122.829 50.232C123.189 50.232 123.521 50.128 123.825 49.92C124.129 49.704 124.369 49.416 124.545 49.056C124.721 48.688 124.809 48.288 124.809 47.856C124.809 47.44 124.693 47.104 124.461 46.848C124.237 46.584 123.917 46.452 123.501 46.452C123.117 46.452 122.777 46.568 122.481 46.8C122.193 47.024 121.969 47.324 121.809 47.7C121.649 48.068 121.569 48.452 121.569 48.852C121.569 49.276 121.677 49.612 121.893 49.86C122.109 50.108 122.421 50.232 122.829 50.232ZM133.062 44.316C133.63 44.316 134.126 44.44 134.55 44.688C134.982 44.936 135.302 45.248 135.51 45.624V44.424H136.614V51.144C136.614 51.744 136.486 52.276 136.23 52.74C135.974 53.212 135.606 53.58 135.126 53.844C134.654 54.108 134.102 54.24 133.47 54.24C132.606 54.24 131.886 54.036 131.31 53.628C130.734 53.22 130.394 52.664 130.29 51.96H131.37C131.49 52.36 131.738 52.68 132.114 52.92C132.49 53.168 132.942 53.292 133.47 53.292C134.07 53.292 134.558 53.104 134.934 52.728C135.318 52.352 135.51 51.824 135.51 51.144V49.764C135.294 50.148 134.974 50.468 134.55 50.724C134.126 50.98 133.63 51.108 133.062 51.108C132.478 51.108 131.946 50.964 131.466 50.676C130.994 50.388 130.622 49.984 130.35 49.464C130.078 48.944 129.942 48.352 129.942 47.688C129.942 47.016 130.078 46.428 130.35 45.924C130.622 45.412 130.994 45.016 131.466 44.736C131.946 44.456 132.478 44.316 133.062 44.316ZM135.51 47.7C135.51 47.204 135.41 46.772 135.21 46.404C135.01 46.036 134.738 45.756 134.394 45.564C134.058 45.364 133.686 45.264 133.278 45.264C132.87 45.264 132.498 45.36 132.162 45.552C131.826 45.744 131.558 46.024 131.358 46.392C131.158 46.76 131.058 47.192 131.058 47.688C131.058 48.192 131.158 48.632 131.358 49.008C131.558 49.376 131.826 49.66 132.162 49.86C132.498 50.052 132.87 50.148 133.278 50.148C133.686 50.148 134.058 50.052 134.394 49.86C134.738 49.66 135.01 49.376 135.21 49.008C135.41 48.632 135.51 48.196 135.51 47.7ZM146.367 44.304C146.879 44.304 147.335 44.412 147.735 44.628C148.135 44.836 148.451 45.152 148.683 45.576C148.915 46 149.031 46.516 149.031 47.124V51H147.951V47.28C147.951 46.624 147.787 46.124 147.459 45.78C147.139 45.428 146.703 45.252 146.151 45.252C145.583 45.252 145.131 45.436 144.795 45.804C144.459 46.164 144.291 46.688 144.291 47.376V51H143.211V47.28C143.211 46.624 143.047 46.124 142.719 45.78C142.399 45.428 141.963 45.252 141.411 45.252C140.843 45.252 140.391 45.436 140.055 45.804C139.719 46.164 139.551 46.688 139.551 47.376V51H138.459V44.424H139.551V45.372C139.767 45.028 140.055 44.764 140.415 44.58C140.783 44.396 141.187 44.304 141.627 44.304C142.179 44.304 142.667 44.428 143.091 44.676C143.515 44.924 143.831 45.288 144.039 45.768C144.223 45.304 144.527 44.944 144.951 44.688C145.375 44.432 145.847 44.304 146.367 44.304ZM150.414 47.688C150.414 47.016 150.55 46.428 150.822 45.924C151.094 45.412 151.466 45.016 151.938 44.736C152.418 44.456 152.95 44.316 153.534 44.316C154.11 44.316 154.61 44.44 155.034 44.688C155.458 44.936 155.774 45.248 155.982 45.624V44.424H157.086V51H155.982V49.776C155.766 50.16 155.442 50.48 155.01 50.736C154.586 50.984 154.09 51.108 153.522 51.108C152.938 51.108 152.41 50.964 151.938 50.676C151.466 50.388 151.094 49.984 150.822 49.464C150.55 48.944 150.414 48.352 150.414 47.688ZM155.982 47.7C155.982 47.204 155.882 46.772 155.682 46.404C155.482 46.036 155.21 45.756 154.866 45.564C154.53 45.364 154.158 45.264 153.75 45.264C153.342 45.264 152.97 45.36 152.634 45.552C152.298 45.744 152.03 46.024 151.83 46.392C151.63 46.76 151.53 47.192 151.53 47.688C151.53 48.192 151.63 48.632 151.83 49.008C152.03 49.376 152.298 49.66 152.634 49.86C152.97 50.052 153.342 50.148 153.75 50.148C154.158 50.148 154.53 50.052 154.866 49.86C155.21 49.66 155.482 49.376 155.682 49.008C155.882 48.632 155.982 48.196 155.982 47.7ZM159.496 43.356C159.288 43.356 159.112 43.284 158.968 43.14C158.824 42.996 158.752 42.82 158.752 42.612C158.752 42.404 158.824 42.228 158.968 42.084C159.112 41.94 159.288 41.868 159.496 41.868C159.696 41.868 159.864 41.94 160 42.084C160.144 42.228 160.216 42.404 160.216 42.612C160.216 42.82 160.144 42.996 160 43.14C159.864 43.284 159.696 43.356 159.496 43.356ZM160.024 44.424V51H158.932V44.424H160.024ZM162.977 42.12V51H161.885V42.12H162.977ZM165.186 51.072C164.978 51.072 164.802 51 164.658 50.856C164.514 50.712 164.442 50.536 164.442 50.328C164.442 50.12 164.514 49.944 164.658 49.8C164.802 49.656 164.978 49.584 165.186 49.584C165.386 49.584 165.554 49.656 165.69 49.8C165.834 49.944 165.906 50.12 165.906 50.328C165.906 50.536 165.834 50.712 165.69 50.856C165.554 51 165.386 51.072 165.186 51.072ZM166.95 47.7C166.95 47.02 167.086 46.428 167.358 45.924C167.63 45.412 168.006 45.016 168.486 44.736C168.974 44.456 169.53 44.316 170.154 44.316C170.962 44.316 171.626 44.512 172.146 44.904C172.674 45.296 173.022 45.84 173.19 46.536H172.014C171.902 46.136 171.682 45.82 171.354 45.588C171.034 45.356 170.634 45.24 170.154 45.24C169.53 45.24 169.026 45.456 168.642 45.888C168.258 46.312 168.066 46.916 168.066 47.7C168.066 48.492 168.258 49.104 168.642 49.536C169.026 49.968 169.53 50.184 170.154 50.184C170.634 50.184 171.034 50.072 171.354 49.848C171.674 49.624 171.894 49.304 172.014 48.888H173.19C173.014 49.56 172.662 50.1 172.134 50.508C171.606 50.908 170.946 51.108 170.154 51.108C169.53 51.108 168.974 50.968 168.486 50.688C168.006 50.408 167.63 50.012 167.358 49.5C167.086 48.988 166.95 48.388 166.95 47.7ZM177.515 51.108C176.899 51.108 176.339 50.968 175.835 50.688C175.339 50.408 174.947 50.012 174.659 49.5C174.379 48.98 174.239 48.38 174.239 47.7C174.239 47.028 174.383 46.436 174.671 45.924C174.967 45.404 175.367 45.008 175.871 44.736C176.375 44.456 176.939 44.316 177.563 44.316C178.187 44.316 178.751 44.456 179.255 44.736C179.759 45.008 180.155 45.4 180.443 45.912C180.739 46.424 180.887 47.02 180.887 47.7C180.887 48.38 180.735 48.98 180.431 49.5C180.135 50.012 179.731 50.408 179.219 50.688C178.707 50.968 178.139 51.108 177.515 51.108ZM177.515 50.148C177.907 50.148 178.275 50.056 178.619 49.872C178.963 49.688 179.239 49.412 179.447 49.044C179.663 48.676 179.771 48.228 179.771 47.7C179.771 47.172 179.667 46.724 179.459 46.356C179.251 45.988 178.979 45.716 178.643 45.54C178.307 45.356 177.943 45.264 177.551 45.264C177.151 45.264 176.783 45.356 176.447 45.54C176.119 45.716 175.855 45.988 175.655 46.356C175.455 46.724 175.355 47.172 175.355 47.7C175.355 48.236 175.451 48.688 175.643 49.056C175.843 49.424 176.107 49.7 176.435 49.884C176.763 50.06 177.123 50.148 177.515 50.148ZM190.23 44.304C190.742 44.304 191.198 44.412 191.598 44.628C191.998 44.836 192.314 45.152 192.546 45.576C192.778 46 192.894 46.516 192.894 47.124V51H191.814V47.28C191.814 46.624 191.65 46.124 191.322 45.78C191.002 45.428 190.566 45.252 190.014 45.252C189.446 45.252 188.994 45.436 188.658 45.804C188.322 46.164 188.154 46.688 188.154 47.376V51H187.074V47.28C187.074 46.624 186.91 46.124 186.582 45.78C186.262 45.428 185.826 45.252 185.274 45.252C184.706 45.252 184.254 45.436 183.918 45.804C183.582 46.164 183.414 46.688 183.414 47.376V51H182.322V44.424H183.414V45.372C183.63 45.028 183.918 44.764 184.278 44.58C184.646 44.396 185.05 44.304 185.49 44.304C186.042 44.304 186.53 44.428 186.954 44.676C187.378 44.924 187.694 45.288 187.902 45.768C188.086 45.304 188.39 44.944 188.814 44.688C189.238 44.432 189.71 44.304 190.23 44.304Z" fill="#111111" fill-opacity="0.8"/>
<rect x="62.2623" y="76.5533" width="108.8" height="37.8" rx="6.4" transform="rotate(7.15389 62.2623 76.5533)" fill="#E5E7EB"/>
<rect x="62.2623" y="76.5533" width="108.8" height="37.8" rx="6.4" transform="rotate(7.15389 62.2623 76.5533)" stroke="#D1D5DB" stroke-width="0.8" stroke-linejoin="round"/>
<path d="M77.8191 102.089L76.0101 97.8411L74.4821 97.6493L73.9852 101.608L72.7211 101.45L73.9363 91.7676L77.0618 92.1599C77.7934 92.2517 78.3935 92.454 78.8622 92.7668C79.3402 93.0808 79.6775 93.4664 79.874 93.9238C80.0706 94.3812 80.1346 94.8831 80.066 95.4294C79.9823 96.0962 79.714 96.6598 79.2612 97.1204C78.8176 97.582 78.201 97.848 77.4114 97.9182L79.3332 102.28L77.8191 102.089ZM74.6094 96.6353L76.4708 96.8689C77.1561 96.9549 77.6909 96.8527 78.0754 96.5624C78.4611 96.2627 78.6894 95.8304 78.7603 95.2655C78.8323 94.6914 78.7168 94.2254 78.4137 93.8675C78.1198 93.5108 77.6256 93.2889 76.931 93.2017L75.0696 92.9681L74.6094 96.6353ZM84.4766 103.052C83.7636 102.963 83.1357 102.719 82.5929 102.322C82.0594 101.926 81.6632 101.41 81.4042 100.776C81.1556 100.133 81.0808 99.4182 81.1796 98.631C81.2772 97.8531 81.5299 97.1888 81.9377 96.6379C82.3559 96.079 82.8764 95.6787 83.4994 95.4371C84.1235 95.1862 84.7967 95.1061 85.519 95.1967C86.2414 95.2874 86.8739 95.5314 87.4166 95.9287C87.9605 96.3168 88.362 96.8281 88.621 97.4627C88.8892 98.0983 88.974 98.8098 88.8752 99.5969C88.7764 100.384 88.5132 101.057 88.0858 101.614C87.6688 102.164 87.1436 102.564 86.5102 102.813C85.8768 103.063 85.199 103.143 84.4766 103.052ZM84.6161 101.941C85.0699 101.998 85.5093 101.945 85.9342 101.782C86.3591 101.619 86.7187 101.339 87.013 100.943C87.3165 100.549 87.5066 100.046 87.5833 99.4348C87.66 98.8236 87.6047 98.2899 87.4174 97.8337C87.2301 97.3774 86.9548 97.0231 86.5914 96.7705C86.2292 96.5087 85.8212 96.3493 85.3674 96.2924C84.9044 96.2342 84.465 96.2873 84.0493 96.4515C83.6441 96.6075 83.2989 96.884 83.014 97.281C82.729 97.6779 82.5481 98.182 82.4714 98.7932C82.3935 99.4136 82.439 99.9508 82.6078 100.405C82.7858 100.86 83.0513 101.218 83.4043 101.478C83.7584 101.73 84.1624 101.884 84.6161 101.941ZM92.612 93.5049L91.3218 103.784L90.0578 103.626L91.3479 93.3462L92.612 93.5049ZM100.936 100.829C100.906 101.069 100.86 101.322 100.799 101.587L94.7143 100.824C94.6664 101.58 94.8473 102.2 95.2568 102.684C95.6768 103.16 96.2202 103.44 96.887 103.523C97.4334 103.592 97.9028 103.524 98.2954 103.319C98.6983 103.106 99.0006 102.796 99.2023 102.389L100.564 102.56C100.268 103.266 99.7856 103.812 99.1163 104.198C98.4481 104.575 97.6603 104.707 96.7527 104.593C96.0304 104.502 95.4025 104.259 94.869 103.863C94.3448 103.468 93.9578 102.953 93.7081 102.32C93.4595 101.677 93.3846 100.962 93.4834 100.175C93.5822 99.3882 93.8262 98.718 94.2155 98.1648C94.6047 97.6117 95.1016 97.2131 95.706 96.9691C96.3208 96.7171 96.9987 96.6375 97.7395 96.7305C98.4619 96.8212 99.0811 97.0588 99.5972 97.4434C100.113 97.828 100.485 98.3167 100.711 98.9096C100.948 99.4943 101.023 100.134 100.936 100.829ZM99.6635 100.401C99.7239 99.9191 99.6691 99.4937 99.4991 99.1243C99.3303 98.7457 99.0717 98.4451 98.7234 98.2227C98.3855 97.9921 97.9942 97.849 97.5497 97.7932C96.9107 97.713 96.3388 97.8481 95.8339 98.1986C95.3382 98.5503 95.0126 99.0833 94.8572 99.7975L99.6635 100.401Z" fill="#111111"/>
<path d="M143.296 107.75L148.188 103.949C148.257 103.895 148.344 103.871 148.431 103.882C148.517 103.893 148.596 103.938 148.649 104.006L152.45 108.899C152.5 108.968 152.521 109.053 152.509 109.138C152.497 109.222 152.452 109.298 152.385 109.35C152.318 109.403 152.233 109.427 152.149 109.418C152.064 109.408 151.986 109.367 151.932 109.301L148.332 104.669L143.699 108.268C143.63 108.318 143.544 108.339 143.46 108.327C143.376 108.315 143.3 108.271 143.247 108.203C143.195 108.136 143.171 108.051 143.18 107.967C143.189 107.882 143.231 107.804 143.296 107.75Z" fill="#374151"/>
<rect x="180.422" y="122.38" width="114" height="73" rx="5.5" transform="rotate(-23.0988 180.422 122.38)" fill="white"/>
<rect x="180.422" y="122.38" width="114" height="73" rx="5.5" transform="rotate(-23.0988 180.422 122.38)" stroke="#D1D5DB"/>
<rect x="185.016" y="124.227" width="107" height="29" rx="4" transform="rotate(-23.0988 185.016 124.227)" fill="#E5E7EB" fill-opacity="0.6"/>
<path d="M205.553 133.182L202.477 134.494L202.579 136.304L201.608 136.718L201.167 128.619L202.23 128.165L207.76 134.094L206.789 134.508L205.553 133.182ZM204.971 132.545L202.177 129.527L202.421 133.633L204.971 132.545ZM207.336 130.974C207.094 130.408 206.998 129.863 207.046 129.34C207.091 128.811 207.262 128.343 207.559 127.937C207.864 127.528 208.265 127.218 208.764 127.005C209.196 126.821 209.64 126.751 210.098 126.795C210.552 126.832 210.946 126.971 211.28 127.211L210.029 124.277L210.959 123.88L214.153 131.368L213.222 131.765L212.777 130.722C212.736 131.131 212.583 131.519 212.318 131.887C212.049 132.249 211.676 132.532 211.197 132.736C210.704 132.946 210.204 133.016 209.696 132.946C209.194 132.873 208.735 132.666 208.319 132.325C207.902 131.984 207.575 131.534 207.336 130.974ZM212.035 128.982C211.857 128.564 211.617 128.236 211.316 127.997C211.015 127.759 210.685 127.621 210.326 127.582C209.971 127.535 209.621 127.584 209.277 127.731C208.933 127.877 208.654 128.092 208.44 128.375C208.226 128.658 208.1 128.99 208.064 129.372C208.028 129.755 208.099 130.155 208.277 130.573C208.458 130.998 208.701 131.333 209.005 131.578C209.306 131.816 209.634 131.96 209.989 132.007C210.341 132.048 210.69 131.996 211.034 131.849C211.378 131.702 211.657 131.487 211.871 131.205C212.089 130.912 212.216 130.575 212.253 130.193C212.286 129.804 212.214 129.4 212.035 128.982ZM219.969 122.214C220.4 122.03 220.824 121.957 221.239 121.995C221.651 122.027 222.031 122.18 222.379 122.454C222.727 122.728 223.01 123.121 223.229 123.634L224.623 126.902L223.712 127.29L222.374 124.154C222.139 123.601 221.82 123.238 221.42 123.066C221.024 122.884 220.593 122.893 220.127 123.091C219.649 123.295 219.334 123.613 219.183 124.044C219.029 124.469 219.076 124.971 219.323 125.551L220.626 128.607L219.716 128.995L218.378 125.858C218.142 125.305 217.824 124.943 217.424 124.77C217.027 124.589 216.596 124.597 216.131 124.796C215.652 125 215.337 125.318 215.186 125.749C215.032 126.173 215.079 126.675 215.326 127.255L216.63 130.311L215.709 130.704L213.344 125.159L214.265 124.766L214.606 125.566C214.664 125.198 214.812 124.872 215.049 124.587C215.293 124.3 215.601 124.077 215.972 123.919C216.437 123.72 216.893 123.649 217.34 123.706C217.787 123.762 218.184 123.956 218.532 124.286C218.52 123.828 218.647 123.415 218.913 123.047C219.178 122.679 219.53 122.401 219.969 122.214ZM223.86 119.61C223.684 119.684 223.51 119.687 223.337 119.617C223.164 119.548 223.04 119.425 222.965 119.25C222.89 119.075 222.888 118.9 222.957 118.727C223.027 118.554 223.149 118.43 223.325 118.355C223.493 118.283 223.661 118.283 223.827 118.356C224.001 118.426 224.125 118.548 224.199 118.723C224.274 118.899 224.277 119.073 224.207 119.246C224.144 119.417 224.028 119.538 223.86 119.61ZM224.689 120.32L227.054 125.865L226.133 126.258L223.768 120.713L224.689 120.32ZM228.917 118.398C229.591 118.11 230.225 118.083 230.819 118.316C231.41 118.542 231.869 119.04 232.197 119.809L233.591 123.077L232.681 123.465L231.343 120.329C231.107 119.775 230.789 119.413 230.389 119.241C229.985 119.062 229.544 119.075 229.065 119.279C228.58 119.486 228.257 119.803 228.096 120.23C227.942 120.655 227.989 121.157 228.236 121.737L229.544 124.803L228.623 125.196L226.258 119.651L227.179 119.258L227.516 120.047C227.577 119.686 227.73 119.362 227.974 119.075C228.225 118.784 228.539 118.559 228.917 118.398Z" fill="black"/>
<path d="M220.736 160.509L223.722 167.511L222.802 167.903L220.575 162.683L220.475 168.896L219.827 169.172L215.259 164.938L217.49 170.169L216.569 170.562L213.583 163.56L214.574 163.137L219.633 167.82L219.755 160.928L220.736 160.509ZM229.07 161.702C229.145 161.878 229.214 162.067 229.277 162.272L224.845 164.162C225.112 164.694 225.48 165.043 225.95 165.209C226.423 165.366 226.903 165.341 227.389 165.134C227.786 164.964 228.078 164.732 228.264 164.438C228.453 164.134 228.535 163.804 228.511 163.447L229.502 163.024C229.581 163.621 229.47 164.182 229.169 164.71C228.864 165.23 228.382 165.631 227.721 165.913C227.195 166.137 226.672 166.221 226.153 166.163C225.641 166.102 225.175 165.907 224.755 165.576C224.332 165.238 223.998 164.782 223.753 164.209C223.509 163.636 223.409 163.084 223.454 162.555C223.499 162.025 223.679 161.558 223.993 161.153C224.31 160.739 224.739 160.416 225.278 160.186C225.804 159.962 226.319 159.878 226.821 159.935C227.324 159.991 227.769 160.176 228.158 160.489C228.55 160.792 228.854 161.196 229.07 161.702ZM228.037 161.916C227.887 161.565 227.682 161.298 227.42 161.114C227.156 160.924 226.861 160.823 226.537 160.809C226.216 160.787 225.894 160.844 225.57 160.983C225.105 161.181 224.77 161.499 224.566 161.937C224.369 162.372 224.359 162.862 224.536 163.409L228.037 161.916ZM235.818 155.679C236.25 155.495 236.673 155.422 237.088 155.46C237.5 155.492 237.88 155.644 238.228 155.918C238.577 156.193 238.86 156.586 239.079 157.099L240.472 160.367L239.562 160.755L238.224 157.618C237.988 157.065 237.67 156.703 237.27 156.531C236.873 156.349 236.442 156.357 235.977 156.556C235.498 156.76 235.183 157.078 235.032 157.509C234.878 157.933 234.925 158.436 235.173 159.016L236.476 162.071L235.565 162.46L234.227 159.323C233.991 158.77 233.673 158.407 233.273 158.235C232.877 158.054 232.446 158.062 231.98 158.26C231.501 158.465 231.186 158.782 231.035 159.214C230.882 159.638 230.928 160.14 231.176 160.72L232.479 163.776L231.558 164.169L229.194 158.624L230.114 158.231L230.455 159.031C230.514 158.663 230.661 158.337 230.899 158.052C231.143 157.765 231.451 157.542 231.822 157.383C232.287 157.185 232.743 157.114 233.19 157.171C233.636 157.227 234.034 157.42 234.382 157.75C234.37 157.293 234.497 156.88 234.762 156.512C235.028 156.143 235.38 155.866 235.818 155.679ZM240.979 154.817C241.027 154.406 241.188 154.018 241.463 153.654C241.738 153.289 242.109 153.008 242.574 152.809C243.073 152.596 243.572 152.523 244.071 152.589C244.569 152.656 245.026 152.856 245.439 153.19C245.85 153.517 246.176 153.964 246.417 154.53C246.656 155.09 246.754 155.638 246.712 156.175C246.67 156.711 246.498 157.187 246.197 157.602C245.902 158.015 245.509 158.326 245.017 158.536C244.538 158.74 244.072 158.816 243.618 158.762C243.171 158.705 242.788 158.554 242.468 158.308L242.904 159.33L241.983 159.722L238.789 152.235L239.71 151.842L240.979 154.817ZM245.476 154.932C245.298 154.514 245.058 154.185 244.757 153.947C244.456 153.709 244.126 153.57 243.767 153.532C243.415 153.491 243.067 153.544 242.723 153.691C242.385 153.834 242.108 154.053 241.89 154.345C241.675 154.628 241.548 154.965 241.508 155.357C241.472 155.739 241.541 156.136 241.717 156.547C241.895 156.966 242.136 157.297 242.44 157.542C242.748 157.778 243.079 157.919 243.435 157.967C243.794 158.005 244.142 157.953 244.479 157.809C244.823 157.662 245.102 157.447 245.317 157.165C245.535 156.872 245.662 156.535 245.698 156.153C245.732 155.764 245.658 155.357 245.476 154.932ZM252.606 151.664C252.681 151.839 252.75 152.029 252.813 152.233L248.382 154.123C248.648 154.655 249.017 155.004 249.486 155.171C249.96 155.328 250.439 155.302 250.925 155.095C251.323 154.926 251.615 154.694 251.8 154.399C251.989 154.095 252.072 153.765 252.047 153.409L253.039 152.986C253.118 153.582 253.007 154.144 252.705 154.671C252.401 155.191 251.918 155.592 251.257 155.874C250.731 156.099 250.209 156.182 249.69 156.124C249.178 156.064 248.711 155.868 248.291 155.537C247.868 155.199 247.534 154.744 247.29 154.17C247.045 153.597 246.945 153.046 246.991 152.516C247.036 151.987 247.215 151.519 247.529 151.115C247.847 150.7 248.275 150.378 248.815 150.148C249.341 149.923 249.855 149.839 250.358 149.896C250.86 149.953 251.306 150.137 251.694 150.45C252.087 150.753 252.391 151.158 252.606 151.664ZM251.573 151.877C251.424 151.526 251.218 151.259 250.957 151.076C250.692 150.886 250.398 150.784 250.073 150.771C249.753 150.748 249.43 150.806 249.107 150.944C248.641 151.142 248.306 151.461 248.102 151.898C247.905 152.333 247.895 152.824 248.072 153.37L251.573 151.877ZM254.035 149.093C254.061 148.707 254.186 148.363 254.408 148.061C254.637 147.756 254.967 147.512 255.399 147.328L255.804 148.279L255.561 148.382C254.529 148.822 254.252 149.602 254.73 150.722L256.016 153.737L255.095 154.13L252.73 148.585L253.651 148.193L254.035 149.093Z" fill="#565656" fill-opacity="0.8"/>
</g>
<defs>
<filter id="filter0_f_3735_6421" x="-168.5" y="-14" width="427" height="463" filterUnits="userSpaceOnUse" color-interpolation-filters="sRGB">
<feFlood flood-opacity="0" result="BackgroundImageFix"/>
<feBlend mode="normal" in="SourceGraphic" in2="BackgroundImageFix" result="shape"/>
<feGaussianBlur stdDeviation="72.5" result="effect1_foregroundBlur_3735_6421"/>
</filter>
<filter id="filter1_f_3735_6421" x="1" y="-168.746" width="566.902" height="464.334" filterUnits="userSpaceOnUse" color-interpolation-filters="sRGB">
<feFlood flood-opacity="0" result="BackgroundImageFix"/>
<feBlend mode="normal" in="SourceGraphic" in2="BackgroundImageFix" result="shape"/>
<feGaussianBlur stdDeviation="72.5" result="effect1_foregroundBlur_3735_6421"/>
</filter>
<clipPath id="clip0_3735_6421">
<rect width="373" height="217" rx="13" fill="white"/>
</clipPath>
</defs>
</svg>
