<svg width="34" height="21" viewBox="0 0 34 21" fill="none" xmlns="http://www.w3.org/2000/svg">
<path d="M20.1148 5.24305C20.4242 5.0644 20.8054 5.0644 21.1148 5.24305L24.8489 7.39902C25.1583 7.57766 25.3489 7.90778 25.3489 8.26504L25.3489 12.5771C25.3489 12.9343 25.1583 13.2645 24.8489 13.4431L21.1149 15.5991C20.8054 15.7777 20.4242 15.7777 20.1148 15.5991L16.3808 13.4431C16.0714 13.2645 15.8808 12.9343 15.8808 12.5771L15.8808 8.26504C15.8808 7.90778 16.0714 7.57766 16.3808 7.39902L20.1148 5.24305Z" fill="white"/>
<path d="M12.8258 5.24305C13.1352 5.0644 13.5164 5.0644 13.8258 5.24305L17.5598 7.39902C17.8692 7.57766 18.0598 7.90778 18.0598 8.26504L18.0598 12.5771C18.0598 12.9343 17.8692 13.2645 17.5598 13.4431L13.8258 15.5991C13.5164 15.7777 13.1352 15.7777 12.8258 15.5991L9.09171 13.4431C8.78232 13.2645 8.59173 12.9343 8.59173 12.5771L8.59173 8.26504C8.59173 7.90778 8.78232 7.57766 9.09171 7.39902L12.8258 5.24305Z" fill="white"/>
<path d="M26.189 5.24305C26.4984 5.0644 26.8797 5.0644 27.1891 5.24305L30.9231 7.39902C31.2325 7.57766 31.4231 7.90778 31.4231 8.26504L31.4231 12.5771C31.4231 12.9343 31.2325 13.2645 30.9231 13.4431L27.1891 15.5991C26.8797 15.7777 26.4984 15.7777 26.189 15.5991L22.455 13.4431C22.1456 13.2645 21.955 12.9343 21.955 12.5771L21.955 8.26504C21.955 7.90778 22.1456 7.57766 22.455 7.39902L26.189 5.24305Z" fill="white"/>
<path d="M6.75153 5.24256C7.06094 5.06391 7.44216 5.06391 7.75157 5.24256L11.4856 7.39853C11.795 7.57717 11.9856 7.90729 11.9856 8.26455L11.9856 12.5766C11.9856 12.9338 11.795 13.264 11.4856 13.4426L7.75157 15.5986C7.44216 15.7772 7.06094 15.7772 6.75153 15.5986L3.01749 13.4426C2.7081 13.264 2.51751 12.9338 2.51751 12.5766L2.51751 8.26455C2.51751 7.90729 2.7081 7.57717 3.01749 7.39853L6.75153 5.24256Z" fill="white"/>
</svg>
