<svg width="12" height="10" viewBox="0 0 12 10" fill="none" xmlns="http://www.w3.org/2000/svg">
<path d="M3 0.625C3 0.525544 3.03951 0.430161 3.10984 0.359835C3.18016 0.289509 3.27554 0.25 3.375 0.25H11.375C11.4745 0.25 11.5698 0.289509 11.6402 0.359835C11.7105 0.430161 11.75 0.525544 11.75 0.625C11.75 0.724456 11.7105 0.819839 11.6402 0.890165C11.5698 0.960491 11.4745 1 11.375 1H3.375C3.27554 1 3.18016 0.960491 3.10984 0.890165C3.03951 0.819839 3 0.724456 3 0.625ZM11.375 4.25H3.375C3.27554 4.25 3.18016 4.28951 3.10984 4.35984C3.03951 4.43016 3 4.52554 3 4.625C3 4.72446 3.03951 4.81984 3.10984 4.89017C3.18016 4.96049 3.27554 5 3.375 5H11.375C11.4745 5 11.5698 4.96049 11.6402 4.89017C11.7105 4.81984 11.75 4.72446 11.75 4.625C11.75 4.52554 11.7105 4.43016 11.6402 4.35984C11.5698 4.28951 11.4745 4.25 11.375 4.25ZM11.375 8.25H3.375C3.27554 8.25 3.18016 8.28951 3.10984 8.35983C3.03951 8.43016 3 8.52554 3 8.625C3 8.72446 3.03951 8.81984 3.10984 8.89017C3.18016 8.96049 3.27554 9 3.375 9H11.375C11.4745 9 11.5698 8.96049 11.6402 8.89017C11.7105 8.81984 11.75 8.72446 11.75 8.625C11.75 8.52554 11.7105 8.43016 11.6402 8.35983C11.5698 8.28951 11.4745 8.25 11.375 8.25ZM0.625 0C0.501387 0 0.38055 0.0366555 0.277769 0.105331C0.174988 0.174007 0.0948803 0.271619 0.0475756 0.385823C0.000270803 0.500027 -0.0121063 0.625693 0.0120095 0.746932C0.0361252 0.86817 0.0956508 0.979534 0.183059 1.06694C0.270466 1.15435 0.381831 1.21388 0.503069 1.23799C0.624307 1.26211 0.749974 1.24973 0.864178 1.20242C0.978381 1.15512 1.07599 1.07501 1.14467 0.972231C1.21334 0.869451 1.25 0.748613 1.25 0.625C1.25 0.45924 1.18415 0.300269 1.06694 0.183058C0.949732 0.065848 0.790761 0 0.625 0ZM0.625 8C0.501387 8 0.38055 8.03666 0.277769 8.10533C0.174988 8.17401 0.0948803 8.27162 0.0475756 8.38582C0.000270803 8.50003 -0.0121063 8.62569 0.0120095 8.74693C0.0361252 8.86817 0.0956508 8.97953 0.183059 9.06694C0.270466 9.15435 0.381831 9.21387 0.503069 9.23799C0.624307 9.26211 0.749974 9.24973 0.864178 9.20243C0.978381 9.15512 1.07599 9.07501 1.14467 8.97223C1.21334 8.86945 1.25 8.74861 1.25 8.625C1.25 8.45924 1.18415 8.30027 1.06694 8.18306C0.949732 8.06585 0.790761 8 0.625 8ZM0.625 4C0.501387 4 0.38055 4.03666 0.277769 4.10533C0.174988 4.17401 0.0948803 4.27162 0.0475756 4.38582C0.000270803 4.50003 -0.0121063 4.62569 0.0120095 4.74693C0.0361252 4.86817 0.0956508 4.97953 0.183059 5.06694C0.270466 5.15435 0.381831 5.21387 0.503069 5.23799C0.624307 5.26211 0.749974 5.24973 0.864178 5.20243C0.978381 5.15512 1.07599 5.07501 1.14467 4.97223C1.21334 4.86945 1.25 4.74861 1.25 4.625C1.25 4.45924 1.18415 4.30027 1.06694 4.18306C0.949732 4.06585 0.790761 4 0.625 4Z" fill="#565656"/>
</svg>
