<svg width="20" height="22" viewBox="0 0 20 22" fill="none" xmlns="http://www.w3.org/2000/svg">
<path opacity="0.1" fill-rule="evenodd" clip-rule="evenodd" d="M10 2C7.87827 2 5.84344 2.84285 4.34315 4.34315C2.84285 5.84344 2 7.87827 2 10C2 12.1217 2.84285 14.1566 4.34315 15.6569C5.84344 17.1571 7.87827 18 10 18C12.1217 18 14.1566 17.1571 15.6569 15.6569C17.1571 14.1566 18 12.1217 18 10C18 7.87827 17.1571 5.84344 15.6569 4.34315C14.1566 2.84285 12.1217 2 10 2ZM0 10C0 4.477 4.477 0 10 0C15.523 0 20 4.477 20 10C20 15.523 15.523 20 10 20C4.477 20 0 15.523 0 10Z" fill="white"/>
<path fill-rule="evenodd" clip-rule="evenodd" d="M9.99998 2.00001C7.93742 1.99586 5.95378 2.79248 4.46698 4.22201C4.37216 4.31289 4.26038 4.3842 4.138 4.43187C4.01563 4.47954 3.88507 4.50265 3.75376 4.49986C3.62246 4.49708 3.49299 4.46846 3.37275 4.41564C3.25251 4.36281 3.14385 4.28683 3.05298 4.19201C2.9621 4.0972 2.89079 3.98541 2.84312 3.86304C2.79545 3.74067 2.77234 3.6101 2.77513 3.4788C2.77791 3.3475 2.80653 3.21803 2.85935 3.09779C2.91218 2.97755 2.98816 2.86889 3.08298 2.77801C4.94216 0.991623 7.42165 -0.00418746 9.99998 1.32362e-05C10.2652 1.32362e-05 10.5195 0.10537 10.7071 0.292906C10.8946 0.480443 11 0.734797 11 1.00001C11 1.26523 10.8946 1.51958 10.7071 1.70712C10.5195 1.89466 10.2652 2.00001 9.99998 2.00001Z" fill="white"/>
</svg>
