<svg width="34" height="21" viewBox="0 0 34 21" fill="none" xmlns="http://www.w3.org/2000/svg">
<path d="M20.1109 5.24305C20.4203 5.0644 20.8015 5.0644 21.1109 5.24305L24.845 7.39902C25.1544 7.57766 25.345 7.90778 25.345 8.26504L25.345 12.5771C25.345 12.9343 25.1544 13.2645 24.845 13.4431L21.1109 15.5991C20.8015 15.7777 20.4203 15.7777 20.1109 15.5991L16.3769 13.4431C16.0675 13.2645 15.8769 12.9343 15.8769 12.5771L15.8769 8.26504C15.8769 7.90778 16.0675 7.57766 16.3769 7.39902L20.1109 5.24305Z" fill="#111111"/>
<path d="M12.8218 5.24305C13.1313 5.0644 13.5125 5.0644 13.8219 5.24305L17.5559 7.39902C17.8653 7.57766 18.0559 7.90778 18.0559 8.26504L18.0559 12.5771C18.0559 12.9343 17.8653 13.2645 17.5559 13.4431L13.8219 15.5991C13.5125 15.7777 13.1313 15.7777 12.8218 15.5991L9.08781 13.4431C8.77842 13.2645 8.58783 12.9343 8.58783 12.5771L8.58783 8.26504C8.58783 7.90778 8.77842 7.57766 9.08781 7.39902L12.8218 5.24305Z" fill="#111111"/>
<path d="M26.1812 5.24305C26.4906 5.0644 26.8718 5.0644 27.1813 5.24305L30.9153 7.39902C31.2247 7.57766 31.4153 7.90778 31.4153 8.26504L31.4153 12.5771C31.4153 12.9343 31.2247 13.2645 30.9153 13.4431L27.1813 15.5991C26.8718 15.7777 26.4906 15.7777 26.1812 15.5991L22.4472 13.4431C22.1378 13.2645 21.9472 12.9343 21.9472 12.5771L21.9472 8.26504C21.9472 7.90778 22.1378 7.57766 22.4472 7.39902L26.1812 5.24305Z" fill="#111111"/>
<path d="M6.74763 5.24256C7.05704 5.06391 7.43825 5.06391 7.74766 5.24256L11.4817 7.39853C11.7911 7.57717 11.9817 7.90729 11.9817 8.26455L11.9817 12.5766C11.9817 12.9338 11.7911 13.264 11.4817 13.4426L7.74766 15.5986C7.43825 15.7772 7.05704 15.7772 6.74763 15.5986L3.01359 13.4426C2.7042 13.264 2.51361 12.9338 2.51361 12.5766L2.51361 8.26455C2.51361 7.90729 2.7042 7.57717 3.01359 7.39853L6.74763 5.24256Z" fill="#111111"/>
</svg>
