<svg width="63" height="64" viewBox="0 0 63 64" fill="none" xmlns="http://www.w3.org/2000/svg">
<path d="M15.5563 20.4437C15.5563 18.2345 17.3472 16.4437 19.5563 16.4437L42.669 16.4437C44.8782 16.4437 46.669 18.2345 46.669 20.4437V43.5563C46.669 45.7655 44.8782 47.5563 42.669 47.5563H19.5564C17.3472 47.5563 15.5563 45.7655 15.5563 43.5563L15.5563 20.4437Z" fill="#202020"/>
<path d="M29.5 20.1547C30.7376 19.4402 32.2624 19.4402 33.5 20.1547L40.3253 24.0953C41.5629 24.8098 42.3253 26.1303 42.3253 27.5594V35.4406C42.3253 36.8697 41.5629 38.1902 40.3253 38.9047L33.5 42.8453C32.2624 43.5598 30.7376 43.5598 29.5 42.8453L22.6747 38.9047C21.4371 38.1902 20.6747 36.8697 20.6747 35.4406V27.5594C20.6747 26.1303 21.4371 24.8098 22.6747 24.0953L29.5 20.1547Z" fill="#3F3F3F" stroke="#2B2B2B" stroke-width="1.5"/>
</svg>
