<svg width="28" height="28" viewBox="0 0 28 28" fill="none" xmlns="http://www.w3.org/2000/svg">
<path fill-rule="evenodd" clip-rule="evenodd" d="M18.3072 6.00598C18.3075 6.48879 18.4029 6.9668 18.588 7.41271C18.7731 7.85861 19.0443 8.26367 19.386 8.60474C19.7277 8.94581 20.1333 9.21621 20.5796 9.40047C21.0258 9.58474 21.504 9.67926 21.9868 9.67865C22.4696 9.67926 22.9478 9.58474 23.3941 9.40047C23.8404 9.21621 24.2459 8.94581 24.5876 8.60474C24.9294 8.26367 25.2005 7.85861 25.3856 7.41271C25.5708 6.9668 25.6662 6.48879 25.6665 6.00598C25.6662 5.52318 25.5708 5.04517 25.3856 4.59926C25.2005 4.15335 24.9294 3.74829 24.5876 3.40722C24.2459 3.06615 23.8404 2.79576 23.3941 2.6115C22.9478 2.42723 22.4696 2.3327 21.9868 2.33332C21.504 2.3327 21.0258 2.42723 20.5796 2.6115C20.1333 2.79576 19.7277 3.06615 19.386 3.40722C19.0443 3.74829 18.7731 4.15335 18.588 4.59926C18.4029 5.04517 18.3075 5.52318 18.3072 6.00598ZM21.9868 7.34532C21.8105 7.34593 21.6357 7.31176 21.4725 7.24475C21.3093 7.17775 21.161 7.07923 21.0359 6.95483C20.9109 6.83043 20.8116 6.68259 20.7437 6.51978C20.6759 6.35697 20.6408 6.18237 20.6405 6.00598C20.6408 5.8296 20.6759 5.655 20.7437 5.49219C20.8116 5.32937 20.9109 5.18154 21.0359 5.05714C21.161 4.93274 21.3093 4.83422 21.4725 4.76721C21.6357 4.70021 21.8105 4.66604 21.9868 4.66665C22.1632 4.66604 22.338 4.70021 22.5012 4.76721C22.6643 4.83422 22.8127 4.93274 22.9377 5.05714C23.0628 5.18154 23.1621 5.32937 23.2299 5.49219C23.2978 5.655 23.3329 5.8296 23.3332 6.00598C23.3329 6.18237 23.2978 6.35697 23.2299 6.51978C23.1621 6.68259 23.0628 6.83043 22.9377 6.95483C22.8127 7.07923 22.6643 7.17775 22.5012 7.24475C22.338 7.31176 22.1632 7.34593 21.9868 7.34532ZM3.49984 22.078C3.5003 22.5607 3.59585 23.0386 3.78103 23.4843C3.96622 23.9301 4.23741 24.335 4.57911 24.676C4.92081 25.0169 5.32634 25.2872 5.77252 25.4714C6.2187 25.6556 6.6968 25.7501 7.17951 25.7495C7.66231 25.7501 8.1405 25.6556 8.58676 25.4713C9.03302 25.287 9.4386 25.0166 9.78032 24.6756C10.122 24.3345 10.3932 23.9294 10.5783 23.4835C10.7634 23.0376 10.8589 22.5596 10.8592 22.0768C10.8587 21.5941 10.7632 21.1162 10.578 20.6705C10.3928 20.2247 10.1216 19.8198 9.7799 19.4788C9.4382 19.1379 9.03268 18.8676 8.58649 18.6834C8.14031 18.4992 7.66221 18.4047 7.17951 18.4053C5.15884 18.4053 3.49984 20.0386 3.49984 22.078ZM7.17951 23.4161C7.00312 23.4168 6.82834 23.3826 6.66518 23.3156C6.50201 23.2486 6.35366 23.1501 6.22861 23.0257C6.10356 22.9013 6.00427 22.7534 5.93642 22.5906C5.86856 22.4278 5.83348 22.2532 5.83317 22.0768C5.83317 21.3383 6.43634 20.7386 7.17951 20.7386C7.35589 20.738 7.53067 20.7722 7.69383 20.8392C7.857 20.9062 8.00535 21.0047 8.1304 21.1291C8.25545 21.2535 8.35474 21.4014 8.4226 21.5642C8.49045 21.727 8.52553 21.9016 8.52584 22.078C8.52538 22.2543 8.49018 22.4287 8.42226 22.5914C8.35434 22.7541 8.25502 22.9018 8.12999 23.0261C8.00495 23.1504 7.85665 23.2488 7.69356 23.3157C7.53048 23.3826 7.35579 23.4168 7.17951 23.4161ZM3.49984 13.3723C3.50015 13.8551 3.59558 14.3331 3.7807 14.779C3.96581 15.2249 4.23698 15.63 4.5787 15.9711C4.92042 16.3121 5.32599 16.5825 5.77225 16.7668C6.21851 16.9511 6.6967 17.0456 7.17951 17.045C7.66231 17.0456 8.1405 16.9511 8.58676 16.7668C9.03302 16.5825 9.4386 16.3121 9.78032 15.9711C10.122 15.63 10.3932 15.2249 10.5783 14.779C10.7634 14.3331 10.8589 13.8551 10.8592 13.3723C10.8589 12.8895 10.7634 12.4115 10.5783 11.9656C10.3932 11.5197 10.122 11.1146 9.78032 10.7736C9.4386 10.4325 9.03302 10.1621 8.58676 9.97783C8.1405 9.79356 7.66231 9.69904 7.17951 9.69965C6.6967 9.69904 6.21851 9.79356 5.77225 9.97783C5.32599 10.1621 4.92042 10.4325 4.5787 10.7736C4.23698 11.1146 3.96581 11.5197 3.7807 11.9656C3.59558 12.4115 3.50015 12.8895 3.49984 13.3723ZM7.17951 14.7117C7.00312 14.7123 6.82834 14.6781 6.66518 14.6111C6.50201 14.5441 6.35366 14.4456 6.22861 14.3212C6.10356 14.1968 6.00427 14.0489 5.93642 13.8861C5.86856 13.7233 5.83348 13.5487 5.83317 13.3723C5.83317 12.6327 6.43634 12.033 7.17951 12.033C7.35589 12.0324 7.53067 12.0665 7.69383 12.1335C7.857 12.2006 8.00535 12.2991 8.1304 12.4235C8.25545 12.5479 8.35474 12.6957 8.4226 12.8585C8.49045 13.0213 8.52553 13.1959 8.52584 13.3723C8.52553 13.5487 8.49045 13.7233 8.4226 13.8861C8.35474 14.0489 8.25545 14.1968 8.1304 14.3212C8.00535 14.4456 7.857 14.5441 7.69383 14.6111C7.53067 14.6781 7.35589 14.7123 7.17951 14.7117Z" fill="black"/>
<path fill-rule="evenodd" clip-rule="evenodd" d="M21.9867 8.18762C21.6772 8.18762 21.3805 8.31054 21.1617 8.52933C20.9429 8.74812 20.82 9.04487 20.82 9.35429V17.269C20.82 18.24 20.4362 19.1718 19.7522 19.861C19.0681 20.5503 18.1394 20.9412 17.1683 20.9486L10.4903 21C10.1809 21.0024 9.88514 21.1277 9.6681 21.3483C9.45105 21.5688 9.33051 21.8665 9.33299 22.176C9.33546 22.4854 9.46075 22.7811 9.68129 22.9982C9.90184 23.2152 10.1996 23.3358 10.509 23.3333L17.187 23.282C18.7736 23.2696 20.2911 22.6307 21.4087 21.5044C22.5263 20.3781 23.1534 18.8557 23.1533 17.269V9.35429C23.1533 9.04487 23.0304 8.74812 22.8116 8.52933C22.5928 8.31054 22.2961 8.18762 21.9867 8.18762Z" fill="black"/>
<path fill-rule="evenodd" clip-rule="evenodd" d="M17.299 14.539C18.8515 14.5383 20.3402 13.9214 21.4379 12.8236C22.5357 11.7258 23.1527 10.2371 23.1533 8.68463H20.82C20.8194 9.61827 20.4482 10.5135 19.788 11.1737C19.1278 11.8339 18.2326 12.205 17.299 12.2056H10.4997C10.1902 12.2056 9.89349 12.3285 9.6747 12.5473C9.4559 12.7661 9.33299 13.0629 9.33299 13.3723C9.33299 13.6817 9.4559 13.9785 9.6747 14.1973C9.89349 14.416 10.1902 14.539 10.4997 14.539H17.299Z" fill="black"/>
</svg>
