<svg width="652" height="328" viewBox="0 0 652 328" fill="none" xmlns="http://www.w3.org/2000/svg">
<rect x="326.5" y="28.5" width="233" height="38" rx="5.5" stroke="white" stroke-opacity="0.2" stroke-dasharray="5 5"/>
<rect x="334" y="35.5" width="24" height="24" rx="4" fill="#565656" fill-opacity="0.2"/>
<rect x="334.5" y="36" width="23" height="23" rx="3.5" stroke="#565656" stroke-opacity="0.2"/>
<path d="M346 50.5V44.5M343 47.5H349" stroke="white" stroke-opacity="0.2" stroke-linecap="round"/>
<path d="M371.168 50H370.256L367.512 45.848V50H366.6V44.432H367.512L370.256 48.576V44.432H371.168V50ZM376.539 47.688C376.539 47.8533 376.528 48.0027 376.507 48.136H373.139C373.166 48.488 373.296 48.7707 373.531 48.984C373.766 49.1973 374.054 49.304 374.395 49.304C374.886 49.304 375.232 49.0987 375.435 48.688H376.419C376.286 49.0933 376.043 49.4267 375.691 49.688C375.344 49.944 374.912 50.072 374.395 50.072C373.974 50.072 373.595 49.9787 373.259 49.792C372.928 49.6 372.667 49.3333 372.475 48.992C372.288 48.6453 372.195 48.2453 372.195 47.792C372.195 47.3387 372.286 46.9413 372.467 46.6C372.654 46.2533 372.912 45.9867 373.243 45.8C373.579 45.6133 373.963 45.52 374.395 45.52C374.811 45.52 375.182 45.6107 375.507 45.792C375.832 45.9733 376.086 46.2293 376.267 46.56C376.448 46.8853 376.539 47.2613 376.539 47.688ZM375.587 47.4C375.582 47.064 375.462 46.7947 375.227 46.592C374.992 46.3893 374.702 46.288 374.355 46.288C374.04 46.288 373.771 46.3893 373.547 46.592C373.323 46.7893 373.19 47.0587 373.147 47.4H375.587ZM383.49 45.592L382.122 50H381.162L380.274 46.744L379.386 50H378.426L377.05 45.592H377.978L378.898 49.136L379.834 45.592H380.786L381.682 49.12L382.594 45.592H383.49ZM392.436 45.592L391.068 50H390.108L389.22 46.744L388.332 50H387.372L385.996 45.592H386.924L387.844 49.136L388.78 45.592H389.732L390.628 49.12L391.54 45.592H392.436ZM395.163 50.072C394.747 50.072 394.371 49.9787 394.035 49.792C393.699 49.6 393.435 49.3333 393.243 48.992C393.051 48.6453 392.955 48.2453 392.955 47.792C392.955 47.344 393.054 46.9467 393.251 46.6C393.448 46.2533 393.718 45.9867 394.059 45.8C394.4 45.6133 394.782 45.52 395.203 45.52C395.624 45.52 396.006 45.6133 396.347 45.8C396.688 45.9867 396.958 46.2533 397.155 46.6C397.352 46.9467 397.451 47.344 397.451 47.792C397.451 48.24 397.35 48.6373 397.147 48.984C396.944 49.3307 396.667 49.6 396.315 49.792C395.968 49.9787 395.584 50.072 395.163 50.072ZM395.163 49.28C395.398 49.28 395.616 49.224 395.819 49.112C396.027 49 396.195 48.832 396.323 48.608C396.451 48.384 396.515 48.112 396.515 47.792C396.515 47.472 396.454 47.2027 396.331 46.984C396.208 46.76 396.046 46.592 395.843 46.48C395.64 46.368 395.422 46.312 395.187 46.312C394.952 46.312 394.734 46.368 394.531 46.48C394.334 46.592 394.176 46.76 394.059 46.984C393.942 47.2027 393.883 47.472 393.883 47.792C393.883 48.2667 394.003 48.6347 394.243 48.896C394.488 49.152 394.795 49.28 395.163 49.28ZM399.398 46.232C399.531 46.008 399.707 45.8347 399.926 45.712C400.15 45.584 400.414 45.52 400.718 45.52V46.464H400.486C400.129 46.464 399.857 46.5547 399.67 46.736C399.489 46.9173 399.398 47.232 399.398 47.68V50H398.486V45.592H399.398V46.232ZM403.434 47.8L405.466 50H404.234L402.602 48.104V50H401.69V44.08H402.602V47.52L404.202 45.592H405.466L403.434 47.8ZM407.853 50.072C407.506 50.072 407.194 50.0107 406.917 49.888C406.645 49.76 406.429 49.5893 406.269 49.376C406.109 49.1573 406.023 48.9147 406.013 48.648H406.957C406.973 48.8347 407.061 48.992 407.221 49.12C407.386 49.2427 407.591 49.304 407.837 49.304C408.093 49.304 408.29 49.256 408.429 49.16C408.573 49.0587 408.645 48.9307 408.645 48.776C408.645 48.6107 408.565 48.488 408.405 48.408C408.25 48.328 408.002 48.24 407.661 48.144C407.33 48.0533 407.061 47.9653 406.853 47.88C406.645 47.7947 406.463 47.664 406.309 47.488C406.159 47.312 406.085 47.08 406.085 46.792C406.085 46.5573 406.154 46.344 406.293 46.152C406.431 45.9547 406.629 45.8 406.885 45.688C407.146 45.576 407.445 45.52 407.781 45.52C408.282 45.52 408.685 45.648 408.989 45.904C409.298 46.1547 409.463 46.4987 409.485 46.936H408.573C408.557 46.7387 408.477 46.5813 408.333 46.464C408.189 46.3467 407.994 46.288 407.749 46.288C407.509 46.288 407.325 46.3333 407.197 46.424C407.069 46.5147 407.005 46.6347 407.005 46.784C407.005 46.9013 407.047 47 407.133 47.08C407.218 47.16 407.322 47.224 407.445 47.272C407.567 47.3147 407.749 47.3707 407.989 47.44C408.309 47.5253 408.57 47.6133 408.773 47.704C408.981 47.7893 409.159 47.9173 409.309 48.088C409.458 48.2587 409.535 48.4853 409.541 48.768C409.541 49.0187 409.471 49.2427 409.333 49.44C409.194 49.6373 408.997 49.792 408.741 49.904C408.49 50.016 408.194 50.072 407.853 50.072ZM411.571 46.24C411.726 46.0373 411.937 45.8667 412.203 45.728C412.47 45.5893 412.771 45.52 413.107 45.52C413.491 45.52 413.841 45.616 414.155 45.808C414.475 45.9947 414.726 46.2587 414.907 46.6C415.089 46.9413 415.179 47.3333 415.179 47.776C415.179 48.2187 415.089 48.616 414.907 48.968C414.726 49.3147 414.475 49.5867 414.155 49.784C413.841 49.976 413.491 50.072 413.107 50.072C412.771 50.072 412.473 50.0053 412.211 49.872C411.95 49.7333 411.737 49.5627 411.571 49.36V52.096H410.659V45.592H411.571V46.24ZM414.251 47.776C414.251 47.472 414.187 47.2107 414.059 46.992C413.937 46.768 413.771 46.6 413.563 46.488C413.361 46.3707 413.142 46.312 412.907 46.312C412.678 46.312 412.459 46.3707 412.251 46.488C412.049 46.6053 411.883 46.776 411.755 47C411.633 47.224 411.571 47.488 411.571 47.792C411.571 48.096 411.633 48.3627 411.755 48.592C411.883 48.816 412.049 48.9867 412.251 49.104C412.459 49.2213 412.678 49.28 412.907 49.28C413.142 49.28 413.361 49.2213 413.563 49.104C413.771 48.9813 413.937 48.8053 414.059 48.576C414.187 48.3467 414.251 48.08 414.251 47.776ZM415.911 47.776C415.911 47.3333 416.001 46.9413 416.183 46.6C416.369 46.2587 416.62 45.9947 416.935 45.808C417.255 45.616 417.607 45.52 417.991 45.52C418.337 45.52 418.639 45.5893 418.895 45.728C419.156 45.8613 419.364 46.0293 419.519 46.232V45.592H420.439V50H419.519V49.344C419.364 49.552 419.153 49.7253 418.887 49.864C418.62 50.0027 418.316 50.072 417.975 50.072C417.596 50.072 417.249 49.976 416.935 49.784C416.62 49.5867 416.369 49.3147 416.183 48.968C416.001 48.616 415.911 48.2187 415.911 47.776ZM419.519 47.792C419.519 47.488 419.455 47.224 419.327 47C419.204 46.776 419.041 46.6053 418.839 46.488C418.636 46.3707 418.417 46.312 418.183 46.312C417.948 46.312 417.729 46.3707 417.527 46.488C417.324 46.6 417.159 46.768 417.031 46.992C416.908 47.2107 416.847 47.472 416.847 47.776C416.847 48.08 416.908 48.3467 417.031 48.576C417.159 48.8053 417.324 48.9813 417.527 49.104C417.735 49.2213 417.953 49.28 418.183 49.28C418.417 49.28 418.636 49.2213 418.839 49.104C419.041 48.9867 419.204 48.816 419.327 48.592C419.455 48.3627 419.519 48.096 419.519 47.792ZM421.466 47.792C421.466 47.3387 421.556 46.9413 421.738 46.6C421.924 46.2533 422.18 45.9867 422.506 45.8C422.831 45.6133 423.204 45.52 423.626 45.52C424.159 45.52 424.599 45.648 424.946 45.904C425.298 46.1547 425.535 46.5147 425.658 46.984H424.674C424.594 46.7653 424.466 46.5947 424.29 46.472C424.114 46.3493 423.892 46.288 423.626 46.288C423.252 46.288 422.954 46.4213 422.73 46.688C422.511 46.9493 422.402 47.3173 422.402 47.792C422.402 48.2667 422.511 48.6373 422.73 48.904C422.954 49.1707 423.252 49.304 423.626 49.304C424.154 49.304 424.503 49.072 424.674 48.608H425.658C425.53 49.056 425.29 49.4133 424.938 49.68C424.586 49.9413 424.148 50.072 423.626 50.072C423.204 50.072 422.831 49.9787 422.506 49.792C422.18 49.6 421.924 49.3333 421.738 48.992C421.556 48.6453 421.466 48.2453 421.466 47.792ZM430.74 47.688C430.74 47.8533 430.729 48.0027 430.708 48.136H427.34C427.367 48.488 427.497 48.7707 427.732 48.984C427.967 49.1973 428.255 49.304 428.596 49.304C429.087 49.304 429.433 49.0987 429.636 48.688H430.62C430.487 49.0933 430.244 49.4267 429.892 49.688C429.545 49.944 429.113 50.072 428.596 50.072C428.175 50.072 427.796 49.9787 427.46 49.792C427.129 49.6 426.868 49.3333 426.676 48.992C426.489 48.6453 426.396 48.2453 426.396 47.792C426.396 47.3387 426.487 46.9413 426.668 46.6C426.855 46.2533 427.113 45.9867 427.444 45.8C427.78 45.6133 428.164 45.52 428.596 45.52C429.012 45.52 429.383 45.6107 429.708 45.792C430.033 45.9733 430.287 46.2293 430.468 46.56C430.649 46.8853 430.74 47.2613 430.74 47.688ZM429.788 47.4C429.783 47.064 429.663 46.7947 429.428 46.592C429.193 46.3893 428.903 46.288 428.556 46.288C428.241 46.288 427.972 46.3893 427.748 46.592C427.524 46.7893 427.391 47.0587 427.348 47.4H429.788Z" fill="white"/>
<rect x="49.7578" y="64" width="200" height="32" rx="5" transform="rotate(5.84024 49.7578 64)" fill="#565656" fill-opacity="0.1"/>
<path d="M60.6259 74.9127L58.0213 74.6463C57.8507 74.6286 57.6783 74.6448 57.514 74.6939C57.3497 74.743 57.1967 74.824 57.0638 74.9323C56.9308 75.0405 56.8205 75.174 56.7392 75.325C56.6578 75.4759 56.6071 75.6415 56.5898 75.8121L56.3234 78.4167C56.2877 78.7618 56.3904 79.107 56.6088 79.3766C56.8272 79.6462 57.1435 79.8182 57.4885 79.8549L60.0932 80.1213C60.2646 80.139 60.4379 80.1228 60.603 80.0734C60.7682 80.0241 60.922 79.9427 61.0557 79.8338C61.1893 79.725 61.3002 79.5908 61.3819 79.4391C61.4637 79.2874 61.5147 79.121 61.532 78.9495L61.7985 76.3448C61.8323 75.9995 61.7279 75.6549 61.5082 75.3864C61.2884 75.118 60.9711 74.9476 60.6259 74.9127ZM67.8591 75.6525L65.2545 75.3861C64.9094 75.3505 64.5642 75.4531 64.2946 75.6715C64.025 75.8899 63.853 76.2062 63.8163 76.5512L63.5499 79.1559C63.5147 79.502 63.6183 79.848 63.838 80.1178C64.0578 80.3876 64.3756 80.5592 64.7217 80.5947L67.3264 80.8612C67.6717 80.895 68.0163 80.7907 68.2848 80.5709C68.5532 80.3511 68.7236 80.0338 68.7585 79.6886L69.0249 77.084C69.0426 76.9134 69.0264 76.7411 68.9773 76.5767C68.9282 76.4124 68.8472 76.2594 68.7389 76.1265C68.6307 75.9935 68.4972 75.8832 68.3462 75.8019C68.1953 75.7206 68.0298 75.6698 67.8591 75.6525ZM67.12 82.8783L64.5154 82.6119C64.1702 82.5763 63.8249 82.6789 63.5553 82.8975C63.2856 83.116 63.1137 83.4326 63.0771 83.7777L62.8107 86.3824C62.793 86.5538 62.8093 86.7271 62.8586 86.8922C62.9079 87.0574 62.9894 87.2112 63.0982 87.3448C63.2071 87.4785 63.3412 87.5894 63.4929 87.6711C63.6447 87.7529 63.8111 87.8039 63.9826 87.8212L66.5872 88.0877C66.9325 88.1215 67.2771 88.0171 67.5456 87.7974C67.814 87.5776 67.9844 87.2603 68.0194 86.9151L68.2858 84.3105C68.3034 84.1399 68.2872 83.9675 68.2381 83.8032C68.1891 83.6389 68.1081 83.4859 67.9998 83.353C67.8915 83.22 67.758 83.1097 67.6071 83.0284C67.4561 82.947 67.2907 82.8956 67.12 82.8783ZM59.8868 82.1385L57.2822 81.8721C56.9369 81.8387 56.5924 81.9434 56.3241 82.1632C56.0557 82.3831 55.8853 82.7002 55.85 83.0453L55.5836 85.6499C55.5659 85.8205 55.5821 85.9929 55.6312 86.1572C55.6803 86.3215 55.7613 86.4745 55.8695 86.6074C55.9778 86.7404 56.1113 86.8507 56.2622 86.932C56.4132 87.0134 56.5787 87.0641 56.7493 87.0814L59.354 87.3478C59.6991 87.3835 60.0443 87.2808 60.3139 87.0625C60.5835 86.8441 60.7555 86.5277 60.7922 86.1827L61.0586 83.578C61.0763 83.4066 61.06 83.2333 61.0107 83.0682C60.9614 82.903 60.88 82.7492 60.7711 82.6156C60.6623 82.4819 60.5281 82.371 60.3764 82.2893C60.2246 82.2075 60.0583 82.1559 59.8868 82.1385Z" stroke="white" stroke-opacity="0.5" stroke-linecap="round" stroke-linejoin="round"/>
<path d="M78.1322 78.7972C78.9638 78.8823 79.6664 79.1126 80.2398 79.4882C80.8212 79.8573 81.243 80.3464 81.505 80.9556C81.7744 81.5655 81.8691 82.2607 81.7893 83.0413C81.7094 83.8219 81.4759 84.4836 81.0887 85.0264C80.7095 85.5626 80.1978 85.9525 79.5537 86.1962C78.9175 86.4334 78.1837 86.5095 77.352 86.4244L74.9774 86.1815L75.7576 78.5543L78.1322 78.7972ZM77.436 85.6037C78.4208 85.7044 79.1987 85.5223 79.7697 85.0573C80.3414 84.585 80.6753 83.8783 80.7716 82.9372C80.8686 81.9889 80.6817 81.2215 80.2109 80.6352C79.7474 80.0497 79.0269 79.7069 78.0493 79.607L76.6705 79.4659L76.0571 85.4626L77.436 85.6037ZM82.7839 83.9282C82.8466 83.3153 83.0254 82.7918 83.3205 82.3576C83.6163 81.9161 83.9924 81.5897 84.449 81.3783C84.9128 81.1678 85.411 81.0897 85.9436 81.1442C86.4688 81.1979 86.9132 81.3577 87.2767 81.6234C87.6402 81.8891 87.8993 82.2031 88.0539 82.5653L88.1658 81.471L89.1726 81.574L88.5592 87.5707L87.5525 87.4678L87.6666 86.3516C87.4338 86.6816 87.1085 86.9432 86.6907 87.1363C86.2809 87.3229 85.8171 87.3898 85.2991 87.3368C84.7665 87.2823 84.2985 87.1017 83.8949 86.7951C83.4914 86.4884 83.1898 86.0853 82.9903 85.5858C82.7907 85.0862 82.7219 84.5337 82.7839 83.9282ZM87.8603 84.4585C87.9065 84.0061 87.8556 83.6029 87.7076 83.2486C87.5595 82.8944 87.3376 82.6137 87.0418 82.4065C86.7541 82.1928 86.4242 82.0669 86.0521 82.0289C85.6801 81.9908 85.3319 82.0436 85.0076 82.1874C84.6832 82.3311 84.4127 82.5615 84.196 82.8784C83.9793 83.1953 83.8478 83.5799 83.8016 84.0322C83.7546 84.4918 83.8047 84.9024 83.952 85.2639C84.1001 85.6182 84.318 85.9022 84.6057 86.1159C84.8942 86.3223 85.2245 86.4446 85.5966 86.4826C85.9686 86.5207 86.3168 86.4678 86.6411 86.3241C86.9735 86.1738 87.248 85.9402 87.4647 85.6232C87.6821 85.299 87.814 84.9108 87.8603 84.4585ZM92.4875 88.0721C92.0279 88.025 91.6236 87.9063 91.2745 87.7158C90.9261 87.518 90.6603 87.2696 90.4771 86.9708C90.2947 86.6646 90.2112 86.328 90.2266 85.961L91.2552 86.0663C91.2538 86.3683 91.3674 86.6269 91.5961 86.842C91.832 87.0578 92.1542 87.1865 92.5628 87.2283C92.9421 87.2671 93.2498 87.2138 93.4858 87.0684C93.7218 86.923 93.8529 86.7227 93.879 86.4673C93.9059 86.2047 93.8089 85.9994 93.5882 85.8515C93.3682 85.6963 93.0201 85.5317 92.544 85.3577C92.1109 85.1955 91.7581 85.0414 91.4855 84.8956C91.221 84.7432 90.9985 84.5399 90.8181 84.2855C90.6458 84.0246 90.5794 83.7009 90.6189 83.3142C90.6503 83.0078 90.7702 82.7363 90.9787 82.4996C91.1872 82.2629 91.4667 82.0888 91.8172 81.9772C92.1685 81.8583 92.5593 81.8209 92.9897 81.8649C93.6536 81.9328 94.1726 82.1555 94.5468 82.5328C94.9211 82.9102 95.0929 83.3922 95.0624 83.9788L94.0666 83.877C94.0768 83.561 93.9749 83.2963 93.7608 83.0827C93.5541 82.8699 93.2574 82.7437 92.8707 82.7042C92.5132 82.6676 92.2209 82.7151 91.9937 82.8467C91.7664 82.9782 91.6401 83.168 91.6148 83.4161C91.5946 83.6131 91.6398 83.7835 91.7504 83.9275C91.869 84.065 92.0191 84.1835 92.2006 84.2832C92.3901 84.3763 92.6514 84.4878 92.9846 84.6177C93.4031 84.7785 93.7413 84.931 93.9993 85.0753C94.258 85.2124 94.4707 85.4037 94.6372 85.6492C94.811 85.8955 94.883 86.2014 94.8529 86.5669C94.8194 86.8952 94.698 87.1814 94.4887 87.4253C94.2795 87.6693 93.9992 87.8507 93.648 87.9696C93.3048 88.0819 92.9179 88.1161 92.4875 88.0721ZM99.8256 82.5531C100.278 82.5994 100.676 82.7396 101.021 82.9739C101.366 83.2009 101.621 83.5182 101.786 83.9257C101.958 84.334 102.016 84.8154 101.959 85.3698L101.598 88.9044L100.613 88.8036L100.96 85.4113C101.021 84.8131 100.918 84.3419 100.651 83.9976C100.385 83.646 99.9925 83.4437 99.4745 83.3907C98.9493 83.337 98.513 83.4582 98.1657 83.7544C97.8258 84.0514 97.6237 84.5135 97.5595 85.1409L97.2204 88.4566L96.2245 88.3548L97.0528 80.257L98.0486 80.3589L97.7464 83.3135C97.9747 83.0272 98.2689 82.8177 98.629 82.685C98.9963 82.553 99.3952 82.5091 99.8256 82.5531ZM104.852 84.3056C105.093 83.9691 105.422 83.7078 105.839 83.522C106.256 83.3361 106.716 83.2689 107.219 83.3204C107.759 83.3756 108.231 83.5529 108.636 83.8523C109.04 84.1517 109.342 84.5475 109.542 85.0397C109.743 85.5247 109.813 86.0736 109.75 86.6864C109.688 87.2919 109.509 87.8191 109.212 88.2679C108.916 88.7167 108.535 89.0501 108.071 89.2679C107.613 89.4865 107.118 89.5686 106.586 89.5141C106.068 89.4611 105.623 89.3014 105.253 89.035C104.889 88.7693 104.627 88.4513 104.466 88.0809L104.353 89.1862L103.357 89.0843L104.185 80.9866L105.181 81.0884L104.852 84.3056ZM108.732 86.5823C108.779 86.13 108.728 85.7267 108.58 85.3725C108.432 85.0183 108.21 84.7375 107.914 84.5304C107.625 84.3239 107.295 84.2017 106.923 84.1637C106.558 84.1263 106.21 84.1828 105.877 84.3331C105.553 84.4769 105.278 84.7105 105.054 85.034C104.837 85.3509 104.706 85.7319 104.66 86.1769C104.614 86.6292 104.665 87.0361 104.812 87.3976C104.967 87.7526 105.189 88.037 105.477 88.2507C105.772 88.4579 106.103 88.5801 106.467 88.6174C106.84 88.6555 107.188 88.6026 107.512 88.4589C107.844 88.3086 108.119 88.075 108.336 87.758C108.553 87.4338 108.685 87.0419 108.732 86.5823ZM113.49 90.2203C112.928 90.1628 112.43 89.9829 111.997 89.6806C111.571 89.379 111.25 88.9813 111.035 88.4875C110.828 87.9872 110.757 87.427 110.82 86.8069C110.883 86.1941 111.069 85.6677 111.38 85.2277C111.698 84.7811 112.1 84.4573 112.585 84.2563C113.071 84.0479 113.598 83.9729 114.167 84.0311C114.736 84.0893 115.237 84.2696 115.671 84.5719C116.105 84.867 116.43 85.2614 116.644 85.7551C116.867 86.2496 116.946 86.8069 116.883 87.427C116.819 88.0471 116.625 88.5801 116.299 89.0259C115.981 89.4652 115.576 89.7886 115.083 89.9962C114.59 90.2038 114.059 90.2785 113.49 90.2203ZM113.579 89.3449C113.937 89.3814 114.281 89.3318 114.612 89.1961C114.943 89.0604 115.22 88.8345 115.444 88.5183C115.675 88.2029 115.816 87.8044 115.865 87.3229C115.914 86.8414 115.861 86.4232 115.706 86.0682C115.55 85.7132 115.328 85.4398 115.038 85.248C114.748 85.0489 114.425 84.931 114.068 84.8944C113.703 84.8571 113.359 84.9067 113.035 85.0432C112.72 85.1731 112.454 85.3965 112.237 85.7134C112.02 86.0303 111.887 86.4295 111.838 86.911C111.788 87.3998 111.833 87.8209 111.974 88.1744C112.122 88.5287 112.337 88.805 112.619 89.0034C112.902 89.1945 113.222 89.3083 113.579 89.3449ZM117.954 87.5255C118.016 86.9127 118.195 86.3892 118.49 85.955C118.786 85.5134 119.162 85.187 119.619 84.9757C120.083 84.7652 120.581 84.6871 121.113 84.7416C121.639 84.7953 122.083 84.955 122.446 85.2207C122.81 85.4864 123.069 85.8004 123.224 86.1627L123.336 85.0684L124.342 85.1714L123.729 91.1681L122.722 91.0651L122.836 89.9489C122.604 90.279 122.278 90.5406 121.86 90.7337C121.451 90.9203 120.987 90.9871 120.469 90.9341C119.936 90.8797 119.468 90.6991 119.065 90.3925C118.661 90.0858 118.36 89.6827 118.16 89.1831C117.96 88.6836 117.892 88.131 117.954 87.5255ZM123.03 88.0558C123.076 87.6035 123.025 87.2002 122.877 86.846C122.729 86.4918 122.507 86.2111 122.212 86.0039C121.924 85.7902 121.594 85.6643 121.222 85.6262C120.85 85.5882 120.502 85.641 120.177 85.7848C119.853 85.9285 119.582 86.1588 119.366 86.4758C119.149 86.7927 119.018 87.1773 118.971 87.6296C118.924 88.0892 118.974 88.4998 119.122 88.8613C119.27 89.2156 119.488 89.4995 119.775 89.7133C120.064 89.9197 120.394 90.0419 120.766 90.08C121.138 90.118 121.486 90.0652 121.811 89.9214C122.143 89.7711 122.418 89.5375 122.634 89.2206C122.852 88.8964 122.984 88.5081 123.03 88.0558ZM127.054 86.4329C127.264 86.1079 127.539 85.867 127.88 85.7101C128.227 85.554 128.635 85.4999 129.102 85.5476L128.996 86.5763L128.734 86.5494C127.618 86.4352 126.998 86.9836 126.874 88.1947L126.54 91.4556L125.544 91.3538L126.158 85.3571L127.154 85.4589L127.054 86.4329ZM129.696 88.7266C129.759 88.1138 129.938 87.5903 130.233 87.1561C130.528 86.7145 130.905 86.3881 131.361 86.1768C131.825 85.9662 132.327 85.8886 132.867 85.9438C133.334 85.9915 133.756 86.1454 134.135 86.4053C134.515 86.6579 134.793 86.9701 134.968 87.3419L135.293 84.1685L136.3 84.2714L135.471 92.3692L134.465 92.2662L134.58 91.1391C134.346 91.4764 134.024 91.742 133.614 91.9359C133.204 92.1225 132.74 92.1893 132.222 92.1364C131.69 92.0819 131.218 91.9009 130.807 91.5935C130.404 91.2869 130.102 90.8838 129.902 90.3842C129.703 89.8847 129.634 89.3321 129.696 88.7266ZM134.772 89.2569C134.819 88.8046 134.768 88.4013 134.62 88.0471C134.472 87.6929 134.25 87.4122 133.954 87.205C133.666 86.9913 133.336 86.8654 132.964 86.8273C132.592 86.7893 132.244 86.8421 131.92 86.9858C131.595 87.1296 131.325 87.3599 131.108 87.6769C130.892 87.9938 130.76 88.3784 130.714 88.8307C130.667 89.2903 130.717 89.7009 130.864 90.0624C131.012 90.4166 131.23 90.7006 131.518 90.9143C131.806 91.1208 132.137 91.243 132.509 91.2811C132.881 91.3191 133.229 91.2663 133.553 91.1225C133.886 90.9722 134.16 90.7386 134.377 90.4217C134.594 90.0975 134.726 89.7092 134.772 89.2569Z" fill="white" fill-opacity="0.5"/>
<g clip-path="url(#clip0_3856_244)">
<rect x="141" y="91" width="245" height="214" rx="14" fill="#565656" fill-opacity="0.2"/>
<rect x="141.5" y="91.5" width="244" height="213" rx="13.5" stroke="#565656" stroke-opacity="0.2"/>
<rect x="159" y="147" width="209" height="44" rx="6" fill="#565656" fill-opacity="0.2"/>
<rect x="159.5" y="147.5" width="208" height="43" rx="5.5" stroke="#565656" stroke-opacity="0.1"/>
<rect x="159" y="195" width="209" height="44" rx="6" fill="#565656" fill-opacity="0.2"/>
<rect x="159.5" y="195.5" width="208" height="43" rx="5.5" stroke="#565656" stroke-opacity="0.1"/>
<rect x="159" y="243" width="209" height="44" rx="6" fill="#565656" fill-opacity="0.2"/>
<rect x="159.5" y="243.5" width="208" height="43" rx="5.5" stroke="#565656" stroke-opacity="0.1"/>
<rect x="398" y="-231" width="234" height="400" rx="14" fill="#565656" fill-opacity="0.2"/>
<rect x="398.5" y="-230.5" width="233" height="399" rx="13.5" stroke="#565656" stroke-opacity="0.2"/>
<rect x="398" y="181" width="234" height="124" rx="14" fill="#565656" fill-opacity="0.2"/>
<rect x="398.5" y="181.5" width="233" height="123" rx="13.5" stroke="#565656" stroke-opacity="0.2"/>
<path d="M416.001 217.103C416.001 216.862 416.081 216.661 416.233 216.493C416.386 216.324 416.579 216.244 416.796 216.244V216.228L427.364 216.26C427.412 216.252 427.444 216.244 427.444 216.244C427.661 216.252 427.853 216.34 428.006 216.509C428.159 216.677 428.239 216.886 428.231 217.127C428.231 217.368 428.151 217.569 427.998 217.738C427.845 217.906 427.653 217.986 427.436 217.986V217.994L416.972 217.962C416.892 217.97 416.836 217.978 416.796 217.978C416.689 217.978 416.584 217.954 416.487 217.91C416.39 217.866 416.304 217.802 416.233 217.721C416.073 217.553 415.993 217.344 416.001 217.103ZM416.659 212.719C416.651 212.373 416.691 211.972 416.788 211.498C416.836 211.257 416.948 210.888 417.141 210.398C417.157 210.358 417.197 210.285 417.245 210.173C417.253 210.189 417.269 210.197 417.277 210.213C417.285 210.229 417.293 210.229 417.293 210.237C417.382 210.59 417.51 210.912 417.687 211.201C417.856 211.458 418.072 211.65 418.345 211.755C418.554 211.843 418.851 211.891 419.229 211.899H419.357C419.092 211.634 418.883 211.361 418.723 211.096C418.482 210.679 418.329 210.197 418.265 209.643C418.217 209.209 418.241 208.687 418.337 208.069C418.353 207.948 418.434 207.675 418.57 207.258C418.691 206.88 418.859 206.535 419.084 206.23C419.341 205.836 419.711 205.435 420.2 205.017C420.498 204.768 420.915 204.479 421.453 204.158C421.509 204.126 421.598 204.07 421.734 204.006V204.094C421.542 204.552 421.405 205.017 421.341 205.483C421.293 205.909 421.357 206.302 421.533 206.672C421.67 206.961 421.919 207.274 422.272 207.595C422.345 207.667 422.505 207.828 422.754 208.061C422.995 208.294 423.188 208.478 423.316 208.607L423.517 208.808C423.726 208.503 423.846 208.141 423.87 207.724C423.902 207.282 423.87 206.8 423.758 206.278C423.758 206.27 423.758 206.246 423.766 206.19C423.782 206.206 423.87 206.27 424.007 206.383C424.457 206.784 424.794 207.145 425.035 207.459C425.42 207.957 425.701 208.43 425.886 208.856C426.039 209.225 426.135 209.595 426.191 209.98C426.239 210.317 426.255 210.598 426.247 210.823C426.239 211.45 426.167 211.972 426.047 212.397C425.99 212.566 425.942 212.702 425.894 212.815C426.095 212.759 426.271 212.686 426.416 212.606C426.617 212.478 426.777 212.309 426.898 212.076C427.026 211.843 427.131 211.578 427.203 211.289C427.203 211.281 427.211 211.265 427.227 211.249C427.235 211.265 427.243 211.289 427.267 211.321C427.283 211.353 427.299 211.377 427.307 211.402C427.412 211.65 427.484 211.907 427.524 212.18C427.588 212.486 427.604 212.783 427.588 213.088C427.572 213.321 427.532 213.538 427.46 213.738C427.396 213.931 427.331 214.084 427.283 214.204C427.131 214.509 426.97 214.774 426.785 214.991C426.737 215.047 426.697 215.096 426.673 215.12H417.84C417.831 215.112 417.815 215.096 417.783 215.071C417.751 215.047 417.735 215.031 417.719 215.015C417.51 214.814 417.285 214.509 417.061 214.108C416.996 213.987 416.916 213.803 416.828 213.554C416.731 213.305 416.675 213.024 416.659 212.719Z" fill="white" fill-opacity="0.5"/>
<path d="M439.878 215.084C439.318 215.084 438.814 214.988 438.366 214.796C437.918 214.596 437.566 214.316 437.31 213.956C437.054 213.596 436.926 213.176 436.926 212.696H438.39C438.422 213.056 438.562 213.352 438.81 213.584C439.066 213.816 439.422 213.932 439.878 213.932C440.35 213.932 440.718 213.82 440.982 213.596C441.246 213.364 441.378 213.068 441.378 212.708C441.378 212.428 441.294 212.2 441.126 212.024C440.966 211.848 440.762 211.712 440.514 211.616C440.274 211.52 439.938 211.416 439.506 211.304C438.962 211.16 438.518 211.016 438.174 210.872C437.838 210.72 437.55 210.488 437.31 210.176C437.07 209.864 436.95 209.448 436.95 208.928C436.95 208.448 437.07 208.028 437.31 207.668C437.55 207.308 437.886 207.032 438.318 206.84C438.75 206.648 439.25 206.552 439.818 206.552C440.626 206.552 441.286 206.756 441.798 207.164C442.318 207.564 442.606 208.116 442.662 208.82H441.15C441.126 208.516 440.982 208.256 440.718 208.04C440.454 207.824 440.106 207.716 439.674 207.716C439.282 207.716 438.962 207.816 438.714 208.016C438.466 208.216 438.342 208.504 438.342 208.88C438.342 209.136 438.418 209.348 438.57 209.516C438.73 209.676 438.93 209.804 439.17 209.9C439.41 209.996 439.738 210.1 440.154 210.212C440.706 210.364 441.154 210.516 441.498 210.668C441.85 210.82 442.146 211.056 442.386 211.376C442.634 211.688 442.758 212.108 442.758 212.636C442.758 213.06 442.642 213.46 442.41 213.836C442.186 214.212 441.854 214.516 441.414 214.748C440.982 214.972 440.47 215.084 439.878 215.084ZM446.099 209.504V213.164C446.099 213.412 446.155 213.592 446.267 213.704C446.387 213.808 446.587 213.86 446.867 213.86H447.707V215H446.627C446.011 215 445.539 214.856 445.211 214.568C444.883 214.28 444.719 213.812 444.719 213.164V209.504H443.939V208.388H444.719V206.744H446.099V208.388H447.707V209.504H446.099ZM450.466 209.348C450.666 209.012 450.93 208.752 451.258 208.568C451.594 208.376 451.99 208.28 452.446 208.28V209.696H452.098C451.562 209.696 451.154 209.832 450.874 210.104C450.602 210.376 450.466 210.848 450.466 211.52V215H449.098V208.388H450.466V209.348ZM459.893 211.532C459.893 211.78 459.877 212.004 459.845 212.204H454.793C454.833 212.732 455.029 213.156 455.381 213.476C455.733 213.796 456.165 213.956 456.677 213.956C457.413 213.956 457.933 213.648 458.237 213.032H459.713C459.513 213.64 459.149 214.14 458.621 214.532C458.101 214.916 457.453 215.108 456.677 215.108C456.045 215.108 455.477 214.968 454.973 214.688C454.477 214.4 454.085 214 453.797 213.488C453.517 212.968 453.377 212.368 453.377 211.688C453.377 211.008 453.513 210.412 453.785 209.9C454.065 209.38 454.453 208.98 454.949 208.7C455.453 208.42 456.029 208.28 456.677 208.28C457.301 208.28 457.857 208.416 458.345 208.688C458.833 208.96 459.213 209.344 459.485 209.84C459.757 210.328 459.893 210.892 459.893 211.532ZM458.465 211.1C458.457 210.596 458.277 210.192 457.925 209.888C457.573 209.584 457.137 209.432 456.617 209.432C456.145 209.432 455.741 209.584 455.405 209.888C455.069 210.184 454.869 210.588 454.805 211.1H458.465ZM460.913 211.664C460.913 211 461.049 210.412 461.321 209.9C461.601 209.388 461.977 208.992 462.449 208.712C462.929 208.424 463.457 208.28 464.033 208.28C464.553 208.28 465.005 208.384 465.389 208.592C465.781 208.792 466.093 209.044 466.325 209.348V208.388H467.705V215H466.325V214.016C466.093 214.328 465.777 214.588 465.377 214.796C464.977 215.004 464.521 215.108 464.009 215.108C463.441 215.108 462.921 214.964 462.449 214.676C461.977 214.38 461.601 213.972 461.321 213.452C461.049 212.924 460.913 212.328 460.913 211.664ZM466.325 211.688C466.325 211.232 466.229 210.836 466.037 210.5C465.853 210.164 465.609 209.908 465.305 209.732C465.001 209.556 464.673 209.468 464.321 209.468C463.969 209.468 463.641 209.556 463.337 209.732C463.033 209.9 462.785 210.152 462.593 210.488C462.409 210.816 462.317 211.208 462.317 211.664C462.317 212.12 462.409 212.52 462.593 212.864C462.785 213.208 463.033 213.472 463.337 213.656C463.649 213.832 463.977 213.92 464.321 213.92C464.673 213.92 465.001 213.832 465.305 213.656C465.609 213.48 465.853 213.224 466.037 212.888C466.229 212.544 466.325 212.144 466.325 211.688ZM472.248 211.7L475.296 215H473.448L471 212.156V215H469.632V206.12H471V211.28L473.4 208.388H475.296L472.248 211.7Z" fill="white" fill-opacity="0.5"/>
<rect x="530.52" y="199" width="83.4806" height="24" rx="4" fill="#565656" fill-opacity="0.2"/>
<path d="M543.46 213.58H540.55L540.05 215H538.86L541.35 208.04H542.67L545.16 215H543.96L543.46 213.58ZM543.14 212.65L542.01 209.42L540.87 212.65H543.14ZM551.362 209.49V215H550.222V214.35C550.042 214.577 549.806 214.757 549.512 214.89C549.226 215.017 548.919 215.08 548.592 215.08C548.159 215.08 547.769 214.99 547.422 214.81C547.082 214.63 546.812 214.363 546.612 214.01C546.419 213.657 546.322 213.23 546.322 212.73V209.49H547.452V212.56C547.452 213.053 547.576 213.433 547.822 213.7C548.069 213.96 548.406 214.09 548.832 214.09C549.259 214.09 549.596 213.96 549.842 213.7C550.096 213.433 550.222 213.053 550.222 212.56V209.49H551.362ZM555.216 209.4C555.643 209.4 556.02 209.487 556.346 209.66C556.68 209.827 556.94 210.037 557.126 210.29V209.49H558.276V215.09C558.276 215.597 558.17 216.047 557.956 216.44C557.743 216.84 557.433 217.153 557.026 217.38C556.626 217.607 556.146 217.72 555.586 217.72C554.84 217.72 554.22 217.543 553.726 217.19C553.233 216.843 552.953 216.37 552.886 215.77H554.016C554.103 216.057 554.286 216.287 554.566 216.46C554.853 216.64 555.193 216.73 555.586 216.73C556.046 216.73 556.416 216.59 556.696 216.31C556.983 216.03 557.126 215.623 557.126 215.09V214.17C556.933 214.43 556.67 214.65 556.336 214.83C556.01 215.003 555.636 215.09 555.216 215.09C554.736 215.09 554.296 214.97 553.896 214.73C553.503 214.483 553.19 214.143 552.956 213.71C552.73 213.27 552.616 212.773 552.616 212.22C552.616 211.667 552.73 211.177 552.956 210.75C553.19 210.323 553.503 209.993 553.896 209.76C554.296 209.52 554.736 209.4 555.216 209.4ZM557.126 212.24C557.126 211.86 557.046 211.53 556.886 211.25C556.733 210.97 556.53 210.757 556.276 210.61C556.023 210.463 555.75 210.39 555.456 210.39C555.163 210.39 554.89 210.463 554.636 210.61C554.383 210.75 554.176 210.96 554.016 211.24C553.863 211.513 553.786 211.84 553.786 212.22C553.786 212.6 553.863 212.933 554.016 213.22C554.176 213.507 554.383 213.727 554.636 213.88C554.896 214.027 555.17 214.1 555.456 214.1C555.75 214.1 556.023 214.027 556.276 213.88C556.53 213.733 556.733 213.52 556.886 213.24C557.046 212.953 557.126 212.62 557.126 212.24ZM566.861 210.9V211.86H562.751V210.9H566.861ZM573.629 215.07C573.162 215.07 572.742 214.99 572.369 214.83C571.995 214.663 571.702 214.43 571.489 214.13C571.275 213.83 571.169 213.48 571.169 213.08H572.389C572.415 213.38 572.532 213.627 572.739 213.82C572.952 214.013 573.249 214.11 573.629 214.11C574.022 214.11 574.329 214.017 574.549 213.83C574.769 213.637 574.879 213.39 574.879 213.09C574.879 212.857 574.809 212.667 574.669 212.52C574.535 212.373 574.365 212.26 574.159 212.18C573.959 212.1 573.679 212.013 573.319 211.92C572.865 211.8 572.495 211.68 572.209 211.56C571.929 211.433 571.689 211.24 571.489 210.98C571.289 210.72 571.189 210.373 571.189 209.94C571.189 209.54 571.289 209.19 571.489 208.89C571.689 208.59 571.969 208.36 572.329 208.2C572.689 208.04 573.105 207.96 573.579 207.96C574.252 207.96 574.802 208.13 575.229 208.47C575.662 208.803 575.902 209.263 575.949 209.85H574.689C574.669 209.597 574.549 209.38 574.329 209.2C574.109 209.02 573.819 208.93 573.459 208.93C573.132 208.93 572.865 209.013 572.659 209.18C572.452 209.347 572.349 209.587 572.349 209.9C572.349 210.113 572.412 210.29 572.539 210.43C572.672 210.563 572.839 210.67 573.039 210.75C573.239 210.83 573.512 210.917 573.859 211.01C574.319 211.137 574.692 211.263 574.979 211.39C575.272 211.517 575.519 211.713 575.719 211.98C575.925 212.24 576.029 212.59 576.029 213.03C576.029 213.383 575.932 213.717 575.739 214.03C575.552 214.343 575.275 214.597 574.909 214.79C574.549 214.977 574.122 215.07 573.629 215.07ZM582.554 212.11C582.554 212.317 582.54 212.503 582.514 212.67H578.304C578.337 213.11 578.5 213.463 578.794 213.73C579.087 213.997 579.447 214.13 579.874 214.13C580.487 214.13 580.92 213.873 581.174 213.36H582.404C582.237 213.867 581.934 214.283 581.494 214.61C581.06 214.93 580.52 215.09 579.874 215.09C579.347 215.09 578.874 214.973 578.454 214.74C578.04 214.5 577.714 214.167 577.474 213.74C577.24 213.307 577.124 212.807 577.124 212.24C577.124 211.673 577.237 211.177 577.464 210.75C577.697 210.317 578.02 209.983 578.434 209.75C578.854 209.517 579.334 209.4 579.874 209.4C580.394 209.4 580.857 209.513 581.264 209.74C581.67 209.967 581.987 210.287 582.214 210.7C582.44 211.107 582.554 211.577 582.554 212.11ZM581.364 211.75C581.357 211.33 581.207 210.993 580.914 210.74C580.62 210.487 580.257 210.36 579.824 210.36C579.43 210.36 579.094 210.487 578.814 210.74C578.534 210.987 578.367 211.323 578.314 211.75H581.364ZM584.946 210.3C585.139 210.047 585.402 209.833 585.736 209.66C586.069 209.487 586.446 209.4 586.866 209.4C587.346 209.4 587.782 209.52 588.176 209.76C588.576 209.993 588.889 210.323 589.116 210.75C589.342 211.177 589.456 211.667 589.456 212.22C589.456 212.773 589.342 213.27 589.116 213.71C588.889 214.143 588.576 214.483 588.176 214.73C587.782 214.97 587.346 215.09 586.866 215.09C586.446 215.09 586.072 215.007 585.746 214.84C585.419 214.667 585.152 214.453 584.946 214.2V217.62H583.806V209.49H584.946V210.3ZM588.296 212.22C588.296 211.84 588.216 211.513 588.056 211.24C587.902 210.96 587.696 210.75 587.436 210.61C587.182 210.463 586.909 210.39 586.616 210.39C586.329 210.39 586.056 210.463 585.796 210.61C585.542 210.757 585.336 210.97 585.176 211.25C585.022 211.53 584.946 211.86 584.946 212.24C584.946 212.62 585.022 212.953 585.176 213.24C585.336 213.52 585.542 213.733 585.796 213.88C586.056 214.027 586.329 214.1 586.616 214.1C586.909 214.1 587.182 214.027 587.436 213.88C587.696 213.727 587.902 213.507 588.056 213.22C588.216 212.933 588.296 212.6 588.296 212.22Z" fill="white" fill-opacity="0.5"/>
<path fill-rule="evenodd" clip-rule="evenodd" d="M605.827 209.004C605.716 208.893 605.566 208.831 605.409 208.831C605.252 208.831 605.102 208.893 604.991 209.004L602.253 211.742L599.515 209.004C599.403 208.899 599.254 208.842 599.101 208.845C598.948 208.848 598.801 208.91 598.693 209.018C598.584 209.127 598.522 209.273 598.52 209.426C598.517 209.58 598.574 209.728 598.678 209.84L601.835 212.996C601.945 213.107 602.096 213.169 602.253 213.169C602.41 213.169 602.56 213.107 602.671 212.996L605.827 209.84C605.938 209.729 606 209.579 606 209.422C606 209.265 605.938 209.115 605.827 209.004Z" fill="white" fill-opacity="0.5"/>
<rect x="416" y="235" width="10" height="10" rx="1" fill="#69AD0B" fill-opacity="0.3"/>
<rect x="430.461" y="235" width="10" height="10" rx="1" fill="#69AD0B" fill-opacity="0.3"/>
<rect x="444.922" y="235" width="10" height="10" rx="1" fill="#69AD0B" fill-opacity="0.5"/>
<rect x="459.383" y="235" width="10" height="10" rx="1" fill="#69AD0B"/>
<rect x="473.848" y="235" width="10" height="10" rx="1" fill="#565656" fill-opacity="0.3"/>
<rect x="488.309" y="235" width="10" height="10" rx="1" fill="#69AD0B" fill-opacity="0.3"/>
<rect x="502.77" y="235" width="10" height="10" rx="1" fill="#565656" fill-opacity="0.3"/>
<rect x="517.23" y="235" width="10" height="10" rx="1" fill="#69AD0B" fill-opacity="0.3"/>
<rect x="531.691" y="235" width="10" height="10" rx="1" fill="#69AD0B" fill-opacity="0.5"/>
<rect x="546.152" y="235" width="10" height="10" rx="1" fill="#69AD0B" fill-opacity="0.3"/>
<rect x="560.617" y="235" width="10" height="10" rx="1" fill="#565656" fill-opacity="0.3"/>
<rect x="575.078" y="235" width="10" height="10" rx="1" fill="#69AD0B" fill-opacity="0.3"/>
<rect x="589.539" y="235" width="10" height="10" rx="1" fill="#69AD0B" fill-opacity="0.3"/>
<rect x="604" y="235" width="10" height="10" rx="1" fill="#565656" fill-opacity="0.3"/>
<rect x="604.5" y="235.5" width="9" height="9" rx="0.5" stroke="#565656" stroke-opacity="0.3"/>
<rect x="416" y="249" width="10" height="10" rx="1" fill="#565656" fill-opacity="0.3"/>
<rect x="430.461" y="249" width="10" height="10" rx="1" fill="#565656" fill-opacity="0.3"/>
<rect x="444.922" y="249" width="10" height="10" rx="1" fill="#565656" fill-opacity="0.3"/>
<rect x="459.383" y="249" width="10" height="10" rx="1" fill="#565656" fill-opacity="0.3"/>
<rect x="473.848" y="249" width="10" height="10" rx="1" fill="#565656" fill-opacity="0.3"/>
<rect x="488.309" y="249" width="10" height="10" rx="1" fill="#565656" fill-opacity="0.3"/>
<rect x="502.77" y="249" width="10" height="10" rx="1" fill="#565656" fill-opacity="0.3"/>
<rect x="517.23" y="249" width="10" height="10" rx="1" fill="#565656" fill-opacity="0.3"/>
<rect x="531.691" y="249" width="10" height="10" rx="1" fill="#565656" fill-opacity="0.3"/>
<rect x="546.152" y="249" width="10" height="10" rx="1" fill="#565656" fill-opacity="0.3"/>
<rect x="560.617" y="249" width="10" height="10" rx="1" fill="#565656" fill-opacity="0.3"/>
<rect x="575.078" y="249" width="10" height="10" rx="1" fill="#565656" fill-opacity="0.3"/>
<rect x="589.539" y="249" width="10" height="10" rx="1" fill="#565656" fill-opacity="0.3"/>
<rect x="604" y="249" width="10" height="10" rx="1" fill="#565656" fill-opacity="0.3"/>
<rect x="416" y="263" width="10" height="10" rx="1" fill="#565656" fill-opacity="0.3"/>
<rect x="430.461" y="263" width="10" height="10" rx="1" fill="#565656" fill-opacity="0.3"/>
<rect x="444.922" y="263" width="10" height="10" rx="1" fill="#565656" fill-opacity="0.3"/>
<rect x="459.383" y="263" width="10" height="10" rx="1" fill="#565656" fill-opacity="0.3"/>
<rect x="473.848" y="263" width="10" height="10" rx="1" fill="#565656" fill-opacity="0.3"/>
<rect x="488.309" y="263" width="10" height="10" rx="1" fill="#565656" fill-opacity="0.3"/>
<rect x="502.77" y="263" width="10" height="10" rx="1" fill="#565656" fill-opacity="0.3"/>
<rect x="517.23" y="263" width="10" height="10" rx="1" fill="#565656" fill-opacity="0.3"/>
<rect x="531.691" y="263" width="10" height="10" rx="1" fill="#565656" fill-opacity="0.3"/>
<rect x="546.152" y="263" width="10" height="10" rx="1" fill="#565656" fill-opacity="0.3"/>
<rect x="560.617" y="263" width="10" height="10" rx="1" fill="#565656" fill-opacity="0.3"/>
<rect x="575.078" y="263" width="10" height="10" rx="1" fill="#565656" fill-opacity="0.3"/>
<rect x="589.539" y="263" width="10" height="10" rx="1" fill="#565656" fill-opacity="0.3"/>
<rect x="604" y="263" width="10" height="10" rx="1" fill="#565656" fill-opacity="0.3"/>
<rect x="416" y="277" width="10" height="10" rx="1" fill="#565656" fill-opacity="0.3"/>
<rect x="430.461" y="277" width="10" height="10" rx="1" fill="#565656" fill-opacity="0.3"/>
<rect x="444.922" y="277" width="10" height="10" rx="1" fill="#565656" fill-opacity="0.3"/>
<rect x="459.383" y="277" width="10" height="10" rx="1" fill="#565656" fill-opacity="0.3"/>
<rect x="473.848" y="277" width="10" height="10" rx="1" fill="#565656" fill-opacity="0.3"/>
<rect x="488.309" y="277" width="10" height="10" rx="1" fill="#565656" fill-opacity="0.3"/>
<rect x="502.77" y="277" width="10" height="10" rx="1" fill="#565656" fill-opacity="0.3"/>
<rect x="517.23" y="277" width="10" height="10" rx="1" fill="#565656" fill-opacity="0.3"/>
<rect x="531.691" y="277" width="10" height="10" rx="1" fill="#565656" fill-opacity="0.3"/>
<rect x="546.152" y="277" width="10" height="10" rx="1" fill="#565656" fill-opacity="0.3"/>
<rect x="560.617" y="277" width="10" height="10" rx="1" fill="#565656" fill-opacity="0.3"/>
<rect x="575.078" y="277" width="10" height="10" rx="1" fill="#565656" fill-opacity="0.3"/>
<rect x="589.539" y="277" width="10" height="10" rx="1" fill="#565656" fill-opacity="0.3"/>
<rect x="604" y="277" width="10" height="10" rx="1" fill="#565656" fill-opacity="0.3"/>
</g>
<rect x="18.5" y="169.033" width="214" height="124" rx="14" transform="rotate(-10.5095 18.5 169.033)" fill="#565656" fill-opacity="0.2"/>
<rect x="19.0828" y="169.434" width="213" height="123" rx="13.5" transform="rotate(-10.5095 19.0828 169.434)" stroke="#565656" stroke-opacity="0.2"/>
<path d="M45.4697 182.845C45.574 182.826 45.6818 182.849 45.7695 182.911C45.8571 182.972 45.9174 183.066 45.9371 183.172L48.16 195.155C48.1797 195.261 48.1571 195.37 48.0972 195.459C48.0374 195.547 47.9451 195.608 47.8408 195.627C47.7365 195.647 47.6287 195.623 47.541 195.562C47.4534 195.501 47.3931 195.407 47.3734 195.301L45.1505 183.318C45.1308 183.212 45.1534 183.102 45.2133 183.014C45.2731 182.925 45.3654 182.865 45.4697 182.845ZM41.4399 185.246C41.0226 185.323 40.6537 185.566 40.4143 185.92C40.1748 186.274 40.0845 186.711 40.1631 187.135L41.3487 193.526C41.4273 193.95 41.6684 194.325 42.019 194.57C42.3697 194.815 42.801 194.909 43.2182 194.832L46.3646 194.248L44.5862 184.662L41.4399 185.246ZM50.2404 184.439C50.4491 184.401 50.6647 184.448 50.84 184.57C51.0154 184.693 51.1359 184.88 51.1752 185.092L51.2493 185.492C51.269 185.598 51.3293 185.692 51.4169 185.753C51.5046 185.814 51.6124 185.838 51.7167 185.818C51.821 185.799 51.9132 185.738 51.9731 185.65C52.033 185.561 52.0556 185.452 52.0359 185.346L51.9618 184.946C51.8832 184.523 51.6421 184.147 51.2915 183.902C50.9408 183.657 50.5095 183.563 50.0922 183.64L49.699 183.713C49.5947 183.733 49.5024 183.793 49.4426 183.882C49.3827 183.971 49.3601 184.08 49.3798 184.186C49.3994 184.292 49.4597 184.386 49.5474 184.447C49.635 184.508 49.7428 184.532 49.8472 184.512L50.2404 184.439ZM51.7224 192.428C51.931 192.389 52.1155 192.268 52.2352 192.091C52.3549 191.914 52.4001 191.695 52.3608 191.483L52.2867 191.084C52.2671 190.978 52.2896 190.869 52.3495 190.78C52.4094 190.691 52.5016 190.631 52.6059 190.611C52.7102 190.592 52.8181 190.616 52.9057 190.677C52.9934 190.738 53.0536 190.832 53.0733 190.938L53.1474 191.337C53.226 191.761 53.1356 192.198 52.8962 192.553C52.6568 192.907 52.2879 193.149 51.8706 193.227L51.4773 193.3C51.373 193.319 51.2652 193.296 51.1775 193.234C51.0899 193.173 51.0296 193.079 51.0099 192.973C50.9903 192.867 51.0129 192.758 51.0727 192.67C51.1326 192.581 51.2248 192.52 51.3291 192.501L51.7224 192.428ZM51.8649 186.617C51.7606 186.636 51.6684 186.697 51.6085 186.786C51.5487 186.874 51.5261 186.983 51.5457 187.089L51.9903 189.486C52.01 189.592 52.0702 189.686 52.1579 189.747C52.2456 189.808 52.3534 189.832 52.4577 189.813C52.562 189.793 52.6542 189.733 52.7141 189.644C52.774 189.555 52.7965 189.446 52.7769 189.34L52.3323 186.944C52.3126 186.838 52.2524 186.744 52.1647 186.682C52.0771 186.621 51.9692 186.598 51.8649 186.617ZM48.1258 184.005C48.2301 183.986 48.3379 184.009 48.4256 184.071C48.5133 184.132 48.5735 184.226 48.5932 184.332C48.6128 184.438 48.5903 184.547 48.5304 184.636C48.4705 184.724 48.3783 184.785 48.274 184.804L47.4874 184.95C47.3831 184.969 47.2753 184.946 47.1876 184.885C47.1 184.823 47.0397 184.729 47.02 184.624C47.0004 184.518 47.023 184.408 47.0828 184.32C47.1427 184.231 47.2349 184.171 47.3392 184.151L48.1258 184.005ZM50.2234 193.119C50.2037 193.013 50.1434 192.919 50.0558 192.858C49.9681 192.797 49.8603 192.773 49.756 192.793L48.9694 192.939C48.8651 192.958 48.7729 193.019 48.713 193.107C48.6531 193.196 48.6306 193.305 48.6502 193.411C48.6699 193.517 48.7301 193.611 48.8178 193.672C48.9054 193.733 49.0133 193.757 49.1176 193.738L49.9042 193.592C50.0085 193.572 50.1007 193.512 50.1606 193.423C50.2204 193.335 50.243 193.225 50.2234 193.119Z" fill="white" fill-opacity="0.5"/>
<path d="M65.8122 181.269L66.0158 182.366L63.833 182.771L65.1507 189.874L63.8056 190.123L62.488 183.02L60.2934 183.427L60.0899 182.33L65.8122 181.269ZM67.7666 185.995C67.6455 185.342 67.672 184.74 67.846 184.186C68.0279 183.632 68.3254 183.174 68.7384 182.813C69.1578 182.442 69.6507 182.204 70.217 182.099C70.7283 182.004 71.1917 182.024 71.6072 182.158C72.0291 182.284 72.3818 182.474 72.6654 182.731L72.4903 181.787L73.8471 181.535L75.0532 188.037L73.6963 188.288L73.5168 187.321C73.3456 187.67 73.0823 187.983 72.727 188.261C72.3716 188.538 71.9423 188.723 71.4389 188.817C70.8804 188.92 70.3428 188.874 69.8262 188.677C69.3082 188.472 68.864 188.139 68.4939 187.679C68.1302 187.209 67.8877 186.648 67.7666 185.995ZM73.0922 185.032C73.009 184.583 72.8424 184.212 72.5923 183.916C72.3501 183.619 72.0635 183.412 71.7325 183.295C71.4015 183.177 71.063 183.15 70.7169 183.215C70.3708 183.279 70.0644 183.425 69.7976 183.654C69.5293 183.874 69.3314 184.167 69.2039 184.533C69.0828 184.889 69.0639 185.291 69.1471 185.739C69.2302 186.188 69.3936 186.564 69.6373 186.869C69.8888 187.172 70.1808 187.386 70.5133 187.512C70.8522 187.628 71.1907 187.655 71.5289 187.592C71.875 187.528 72.1815 187.381 72.4483 187.153C72.7151 186.924 72.9083 186.628 73.0279 186.264C73.1539 185.891 73.1754 185.48 73.0922 185.032ZM79.3271 187.354C78.8158 187.448 78.3389 187.443 77.8963 187.338C77.4601 187.224 77.0949 187.031 76.8005 186.76C76.5047 186.482 76.3125 186.147 76.2238 185.757L77.616 185.498C77.6907 185.769 77.8635 185.977 78.1345 186.122C78.4119 186.258 78.7315 186.292 79.0934 186.225C79.4709 186.155 79.7488 186.03 79.9271 185.851C80.1117 185.662 80.1829 185.454 80.1406 185.225C80.0953 184.982 79.9438 184.823 79.6859 184.748C79.4359 184.673 79.0461 184.611 78.5164 184.563C78.0039 184.519 77.5826 184.463 77.2525 184.394C76.9224 184.325 76.6192 184.182 76.343 183.965C76.0746 183.746 75.901 183.425 75.8222 183C75.758 182.654 75.8019 182.32 75.9538 181.999C76.1044 181.67 76.3531 181.388 76.7 181.153C77.0548 180.916 77.4799 180.752 77.9755 180.66C78.7149 180.523 79.3438 180.601 79.8621 180.896C80.3869 181.181 80.7249 181.643 80.876 182.282L79.531 182.531C79.4534 182.245 79.2923 182.035 79.0479 181.901C78.8034 181.767 78.5002 181.734 78.1384 181.801C77.7844 181.867 77.5255 181.984 77.3615 182.153C77.1975 182.322 77.136 182.516 77.1768 182.736C77.2089 182.909 77.2989 183.043 77.4466 183.138C77.5943 183.232 77.7652 183.298 77.9593 183.336C78.1519 183.365 78.4346 183.398 78.8076 183.435C79.3028 183.473 79.7123 183.531 80.0361 183.609C80.3662 183.678 80.6647 183.818 80.9316 184.029C81.1986 184.24 81.3746 184.553 81.4598 184.968C81.5284 185.338 81.4874 185.688 81.3369 186.016C81.1864 186.345 80.9377 186.628 80.5908 186.863C80.2517 187.097 79.8305 187.26 79.3271 187.354ZM85.3483 182.77L88.9471 185.459L87.1301 185.796L84.2044 183.446L84.7231 186.243L83.3781 186.492L81.7584 177.761L83.1034 177.512L84.0446 182.585L85.8769 179.304L87.7411 178.958L85.3483 182.77ZM97.8977 177.843C97.9751 178.26 97.9497 178.671 97.8216 179.077C97.6936 179.483 97.4351 179.845 97.0463 180.161C96.656 180.469 96.1226 180.686 95.4461 180.812L93.9595 181.087L94.5767 184.415L93.2317 184.664L91.7105 176.464L94.5422 175.939C95.1714 175.822 95.7228 175.834 96.1963 175.974C96.6762 176.104 97.0566 176.335 97.3376 176.665C97.6264 176.994 97.8131 177.386 97.8977 177.843ZM95.2426 179.714C95.7539 179.62 96.1142 179.435 96.3236 179.16C96.5315 178.877 96.5961 178.524 96.5173 178.099C96.3509 177.202 95.7604 176.848 94.7457 177.036L93.2591 177.312L93.756 179.99L95.2426 179.714ZM100.691 177.532C100.826 177.165 101.038 176.861 101.327 176.621C101.622 176.371 101.994 176.204 102.443 176.121L102.701 177.513L102.359 177.577C101.832 177.674 101.455 177.882 101.23 178.201C101.012 178.518 100.964 179.007 101.087 179.668L101.722 183.089L100.377 183.339L99.1705 176.838L100.516 176.588L100.691 177.532ZM104.351 174.986C104.107 175.031 103.887 174.986 103.692 174.852C103.496 174.717 103.375 174.528 103.33 174.284C103.285 174.04 103.329 173.821 103.464 173.625C103.598 173.429 103.788 173.308 104.032 173.263C104.267 173.219 104.483 173.265 104.679 173.399C104.875 173.534 104.996 173.723 105.041 173.967C105.086 174.211 105.041 174.43 104.907 174.626C104.772 174.822 104.587 174.942 104.351 174.986ZM105.172 175.724L106.378 182.226L105.033 182.475L103.827 175.974L105.172 175.724ZM111.111 181.457C110.497 181.571 109.917 181.536 109.371 181.353C108.823 181.162 108.36 180.841 107.984 180.39C107.606 179.931 107.355 179.367 107.231 178.699C107.108 178.038 107.145 177.425 107.341 176.86C107.537 176.295 107.862 175.828 108.314 175.459C108.766 175.09 109.303 174.848 109.925 174.733C110.546 174.618 111.134 174.651 111.688 174.833C112.243 175.015 112.713 175.334 113.099 175.792C113.485 176.249 113.739 176.808 113.862 177.469C113.984 178.129 113.943 178.743 113.739 179.31C113.535 179.877 113.2 180.35 112.733 180.729C112.273 181.099 111.732 181.342 111.111 181.457ZM110.894 180.289C111.24 180.225 111.548 180.083 111.816 179.862C112.092 179.64 112.294 179.346 112.421 178.981C112.549 178.615 112.569 178.197 112.481 177.725C112.394 177.253 112.229 176.872 111.989 176.583C111.746 176.287 111.461 176.083 111.131 175.974C110.802 175.864 110.464 175.841 110.118 175.905C109.772 175.97 109.464 176.112 109.196 176.333C108.936 176.552 108.75 176.843 108.638 177.205C108.525 177.56 108.512 177.973 108.599 178.445C108.729 179.145 109.007 179.655 109.432 179.975C109.864 180.285 110.352 180.39 110.894 180.289ZM116.237 174.648C116.373 174.281 116.585 173.977 116.874 173.737C117.169 173.487 117.541 173.32 117.989 173.237L118.248 174.629L117.905 174.693C117.378 174.79 117.002 174.998 116.776 175.317C116.558 175.634 116.511 176.123 116.633 176.784L117.268 180.205L115.923 180.455L114.717 173.954L116.062 173.704L116.237 174.648ZM119.898 172.102C119.654 172.147 119.434 172.102 119.238 171.968C119.042 171.833 118.922 171.644 118.877 171.4C118.831 171.156 118.876 170.936 119.011 170.741C119.145 170.545 119.334 170.424 119.578 170.379C119.814 170.335 120.03 170.381 120.226 170.515C120.422 170.65 120.542 170.839 120.587 171.083C120.633 171.327 120.588 171.546 120.453 171.742C120.319 171.938 120.134 172.058 119.898 172.102ZM120.718 172.84L121.924 179.341L120.579 179.591L119.373 173.09L120.718 172.84ZM124.385 173.295L125.052 176.894C125.098 177.138 125.185 177.304 125.316 177.394C125.453 177.475 125.659 177.489 125.934 177.438L126.76 177.285L126.968 178.406L125.906 178.603C125.301 178.715 124.81 178.66 124.435 178.436C124.06 178.213 123.814 177.783 123.695 177.146L123.028 173.547L122.261 173.689L122.057 172.592L122.824 172.45L122.524 170.833L123.881 170.582L124.181 172.198L125.762 171.905L125.966 173.002L124.385 173.295ZM132.982 170.565L130.767 180.862L129.375 181.12L130.109 177.713L126.363 171.793L127.861 171.515L130.609 176.131L131.59 170.824L132.982 170.565ZM139.681 167.565C140.554 167.403 141.348 167.431 142.064 167.648C142.786 167.856 143.382 168.241 143.853 168.805C144.33 169.359 144.646 170.053 144.8 170.887C144.955 171.721 144.908 172.478 144.66 173.159C144.42 173.838 144 174.404 143.401 174.857C142.808 175.301 142.075 175.603 141.202 175.765L138.523 176.262L137.002 168.062L139.681 167.565ZM140.998 174.668C141.958 174.49 142.645 174.094 143.06 173.48C143.475 172.866 143.595 172.087 143.42 171.143C143.243 170.191 142.85 169.496 142.239 169.055C141.629 168.615 140.844 168.484 139.884 168.662L138.551 168.91L139.665 174.915L140.998 174.668ZM146.335 167.197C146.091 167.243 145.871 167.198 145.675 167.063C145.48 166.929 145.359 166.74 145.314 166.496C145.269 166.252 145.313 166.032 145.448 165.836C145.582 165.64 145.772 165.52 146.015 165.475C146.251 165.431 146.467 165.476 146.663 165.611C146.859 165.745 146.979 165.935 147.025 166.178C147.07 166.422 147.025 166.642 146.891 166.838C146.756 167.034 146.571 167.154 146.335 167.197ZM147.155 167.936L148.361 174.437L147.016 174.687L145.81 168.186L147.155 167.936ZM152.635 173.754C152.123 173.849 151.646 173.844 151.204 173.739C150.768 173.625 150.402 173.432 150.108 173.161C149.812 172.882 149.62 172.548 149.531 172.157L150.924 171.899C150.998 172.17 151.171 172.378 151.442 172.523C151.719 172.659 152.039 172.693 152.401 172.626C152.778 172.556 153.056 172.431 153.235 172.252C153.419 172.063 153.49 171.854 153.448 171.626C153.403 171.382 153.251 171.223 152.993 171.149C152.743 171.073 152.354 171.011 151.824 170.963C151.311 170.92 150.89 170.864 150.56 170.795C150.23 170.726 149.927 170.583 149.651 170.366C149.382 170.147 149.209 169.825 149.13 169.4C149.066 169.054 149.109 168.721 149.261 168.4C149.412 168.071 149.661 167.789 150.008 167.553C150.362 167.317 150.787 167.152 151.283 167.06C152.022 166.923 152.651 167.002 153.17 167.296C153.694 167.581 154.032 168.043 154.184 168.683L152.839 168.932C152.761 168.645 152.6 168.435 152.355 168.302C152.111 168.168 151.808 168.135 151.446 168.202C151.092 168.268 150.833 168.385 150.669 168.554C150.505 168.722 150.444 168.917 150.484 169.137C150.516 169.31 150.606 169.444 150.754 169.539C150.902 169.633 151.073 169.699 151.267 169.736C151.459 169.766 151.742 169.799 152.115 169.835C152.61 169.874 153.02 169.932 153.344 170.01C153.674 170.079 153.972 170.219 154.239 170.43C154.506 170.641 154.682 170.954 154.767 171.369C154.836 171.739 154.795 172.088 154.644 172.417C154.494 172.746 154.245 173.028 153.898 173.264C153.559 173.497 153.138 173.661 152.635 173.754ZM157.252 167.198L157.92 170.797C157.965 171.04 158.053 171.207 158.184 171.297C158.321 171.377 158.527 171.392 158.802 171.341L159.628 171.188L159.836 172.308L158.774 172.505C158.168 172.618 157.678 172.562 157.303 172.339C156.928 172.116 156.681 171.685 156.563 171.048L155.896 167.45L155.129 167.592L154.925 166.495L155.692 166.352L155.392 164.736L156.749 164.484L157.049 166.101L158.63 165.807L158.833 166.905L157.252 167.198ZM161.518 166.248C161.653 165.881 161.865 165.577 162.154 165.337C162.449 165.087 162.821 164.92 163.27 164.837L163.528 166.229L163.186 166.293C162.659 166.39 162.282 166.598 162.057 166.917C161.839 167.234 161.791 167.723 161.914 168.384L162.548 171.805L161.203 172.055L159.997 165.554L161.342 165.304L161.518 166.248ZM165.178 163.702C164.934 163.747 164.714 163.702 164.518 163.568C164.323 163.433 164.202 163.244 164.157 163C164.112 162.756 164.156 162.537 164.291 162.341C164.425 162.145 164.615 162.024 164.858 161.979C165.094 161.935 165.31 161.981 165.506 162.115C165.702 162.25 165.822 162.439 165.868 162.683C165.913 162.927 165.868 163.146 165.734 163.342C165.599 163.538 165.414 163.658 165.178 163.702ZM165.998 164.44L167.204 170.942L165.859 171.191L164.653 164.69L165.998 164.44ZM169.417 164.807C169.586 164.45 169.85 164.137 170.207 163.867C170.57 163.588 170.995 163.404 171.483 163.313C172.057 163.207 172.602 163.248 173.117 163.437C173.632 163.626 174.071 163.952 174.433 164.414C174.794 164.867 175.035 165.421 175.156 166.074C175.277 166.726 175.252 167.337 175.081 167.906C174.908 168.467 174.613 168.937 174.195 169.315C173.784 169.684 173.295 169.922 172.728 170.027C172.225 170.12 171.758 170.105 171.329 169.981C170.907 169.856 170.553 169.661 170.268 169.397L170.443 170.341L169.098 170.59L167.479 161.859L168.824 161.61L169.417 164.807ZM173.787 166.327C173.704 165.879 173.538 165.511 173.29 165.224C173.048 164.927 172.758 164.724 172.42 164.616C172.089 164.498 171.751 164.472 171.405 164.536C171.066 164.599 170.76 164.745 170.485 164.975C170.219 165.204 170.021 165.5 169.894 165.866C169.774 166.23 169.756 166.636 169.839 167.084C169.922 167.533 170.086 167.909 170.329 168.214C170.579 168.509 170.87 168.716 171.201 168.833C171.54 168.949 171.878 168.976 172.217 168.913C172.563 168.849 172.869 168.703 173.136 168.474C173.409 168.236 173.605 167.932 173.723 167.56C173.849 167.187 173.871 166.776 173.787 166.327ZM181.904 161.49L183.11 167.991L181.765 168.24L181.623 167.474C181.46 167.78 181.22 168.045 180.903 168.266C180.593 168.478 180.245 168.62 179.859 168.692C179.348 168.786 178.868 168.766 178.42 168.629C177.979 168.491 177.602 168.236 177.289 167.863C176.983 167.488 176.776 167.006 176.667 166.416L175.957 162.593L177.291 162.346L177.963 165.968C178.071 166.55 178.299 166.971 178.649 167.232C178.997 167.485 179.422 167.564 179.926 167.471C180.429 167.378 180.798 167.151 181.032 166.79C181.273 166.42 181.339 165.944 181.231 165.362L180.559 161.739L181.904 161.49ZM185.579 161.943L186.247 165.542C186.292 165.786 186.38 165.952 186.511 166.042C186.647 166.122 186.854 166.137 187.129 166.086L187.955 165.933L188.163 167.054L187.101 167.251C186.495 167.363 186.005 167.307 185.63 167.084C185.255 166.861 185.008 166.431 184.89 165.793L184.222 162.195L183.456 162.337L183.252 161.24L184.019 161.097L183.719 159.481L185.076 159.229L185.376 160.846L186.957 160.552L187.16 161.65L185.579 161.943ZM188.849 159.311C188.605 159.356 188.385 159.311 188.189 159.177C187.993 159.042 187.873 158.853 187.828 158.609C187.782 158.365 187.827 158.145 187.962 157.95C188.096 157.754 188.285 157.633 188.529 157.588C188.765 157.544 188.981 157.59 189.177 157.724C189.373 157.859 189.493 158.048 189.539 158.292C189.584 158.535 189.539 158.755 189.405 158.951C189.27 159.147 189.085 159.267 188.849 159.311ZM189.669 160.049L190.875 166.55L189.53 166.8L188.324 160.299L189.669 160.049ZM195.609 165.782C194.995 165.896 194.415 165.861 193.868 165.678C193.32 165.487 192.858 165.165 192.481 164.715C192.103 164.256 191.852 163.692 191.728 163.024C191.606 162.363 191.643 161.75 191.839 161.185C192.035 160.619 192.359 160.152 192.812 159.784C193.264 159.415 193.801 159.173 194.422 159.058C195.044 158.942 195.632 158.976 196.186 159.158C196.741 159.34 197.211 159.659 197.597 160.116C197.982 160.574 198.237 161.133 198.359 161.794C198.482 162.454 198.441 163.068 198.237 163.635C198.033 164.201 197.698 164.675 197.231 165.054C196.771 165.424 196.23 165.667 195.609 165.782ZM195.392 164.614C195.738 164.55 196.045 164.407 196.313 164.187C196.59 163.965 196.791 163.671 196.919 163.306C197.046 162.94 197.066 162.522 196.979 162.05C196.891 161.578 196.727 161.197 196.486 160.908C196.244 160.611 195.958 160.408 195.629 160.298C195.299 160.189 194.961 160.166 194.615 160.23C194.269 160.294 193.962 160.437 193.694 160.657C193.433 160.877 193.247 161.167 193.136 161.53C193.022 161.884 193.01 162.298 193.097 162.77C193.227 163.47 193.505 163.98 193.93 164.299C194.362 164.61 194.849 164.715 195.392 164.614ZM202.475 157.564C202.986 157.469 203.462 157.491 203.903 157.628C204.351 157.765 204.728 158.021 205.034 158.395C205.339 158.77 205.547 159.252 205.656 159.842L206.367 163.676L205.034 163.924L204.36 160.29C204.252 159.708 204.024 159.29 203.676 159.037C203.327 158.777 202.9 158.693 202.397 158.787C201.893 158.88 201.522 159.112 201.281 159.482C201.047 159.843 200.984 160.314 201.092 160.896L201.766 164.53L200.421 164.78L199.215 158.278L200.56 158.029L200.698 158.772C200.868 158.464 201.109 158.204 201.419 157.992C201.738 157.778 202.09 157.635 202.475 157.564Z" fill="white"/>
<path d="M50.1712 213.441L51.1854 218.908L50.2887 219.074L49.8451 216.683L47.273 217.16L47.7165 219.552L46.8198 219.718L45.8057 214.251L46.7024 214.085L47.1373 216.429L49.7094 215.952L49.2745 213.608L50.1712 213.441ZM52.0426 213.672C51.8801 213.702 51.7335 213.672 51.603 213.583C51.4724 213.493 51.3921 213.367 51.3619 213.204C51.3318 213.042 51.3615 212.895 51.4512 212.765C51.5409 212.634 51.667 212.554 51.8296 212.523C51.9869 212.494 52.1308 212.525 52.2614 212.614C52.3919 212.704 52.4723 212.83 52.5024 212.993C52.5326 213.155 52.5028 213.302 52.4131 213.432C52.3235 213.563 52.1999 213.643 52.0426 213.672ZM52.5896 214.164L53.3936 218.498L52.4969 218.665L51.6929 214.331L52.5896 214.164ZM55.6311 213.527C55.9667 213.465 56.2756 213.478 56.5579 213.567C56.8444 213.649 57.0795 213.776 57.2633 213.948L57.1466 213.319L58.0512 213.151L58.8683 217.556C58.9422 217.955 58.924 218.324 58.8136 218.665C58.7042 219.01 58.506 219.302 58.2192 219.54C57.9377 219.776 57.5767 219.936 57.1362 220.017C56.5489 220.126 56.0354 220.078 55.5958 219.872C55.1572 219.671 54.8679 219.34 54.7279 218.877L55.6167 218.713C55.7267 218.925 55.9045 219.08 56.15 219.175C56.4018 219.275 56.6823 219.296 56.9917 219.239C57.3535 219.171 57.6241 219.007 57.8035 218.746C57.9882 218.484 58.0416 218.143 57.9637 217.724L57.8295 217C57.7154 217.233 57.5403 217.444 57.3044 217.635C57.0727 217.819 56.7917 217.941 56.4614 218.003C56.0838 218.073 55.7202 218.042 55.3706 217.912C55.0252 217.775 54.7291 217.554 54.4823 217.247C54.2398 216.934 54.0782 216.56 53.9975 216.124C53.9167 215.689 53.9344 215.287 54.0504 214.919C54.1717 214.549 54.37 214.244 54.6453 214.003C54.925 213.756 55.2535 213.597 55.6311 213.527ZM57.5479 215.482C57.4924 215.183 57.3813 214.935 57.2146 214.738C57.0532 214.541 56.8621 214.402 56.6414 214.324C56.4208 214.246 56.1951 214.228 55.9643 214.271C55.7336 214.313 55.5293 214.411 55.3514 214.563C55.1726 214.71 55.0407 214.906 54.9557 215.149C54.875 215.387 54.8623 215.655 54.9178 215.954C54.9732 216.253 55.0822 216.504 55.2446 216.707C55.4123 216.909 55.607 217.052 55.8286 217.135C56.0545 217.213 56.2802 217.231 56.5057 217.189C56.7364 217.146 56.9407 217.048 57.1186 216.896C57.2964 216.744 57.4253 216.546 57.505 216.304C57.589 216.055 57.6033 215.781 57.5479 215.482ZM61.5887 212.422C61.919 212.36 62.2258 212.377 62.509 212.471C62.7975 212.564 63.0409 212.735 63.2393 212.986C63.4429 213.236 63.5812 213.557 63.6542 213.951L64.1284 216.507L63.2396 216.672L62.7901 214.249C62.7182 213.861 62.5662 213.583 62.3342 213.414C62.1013 213.241 61.817 213.185 61.4814 213.247C61.1458 213.309 60.8978 213.464 60.7375 213.711C60.5814 213.951 60.5393 214.265 60.6113 214.653L61.0608 217.076L60.164 217.242L59.0843 211.422L59.981 211.255L60.3501 213.245C60.4682 213.034 60.6333 212.857 60.8455 212.714C61.063 212.571 61.3107 212.473 61.5887 212.422ZM70.6884 211.319C70.7399 211.597 70.723 211.872 70.6376 212.143C70.5523 212.413 70.38 212.654 70.1207 212.865C69.8605 213.07 69.5049 213.215 69.054 213.299L68.0629 213.483L68.4744 215.701L67.5777 215.867L66.5635 210.4L68.4513 210.05C68.8708 209.972 69.2384 209.98 69.5541 210.073C69.874 210.161 70.1276 210.314 70.3149 210.534C70.5075 210.754 70.6319 211.015 70.6884 211.319ZM68.9183 212.567C69.2591 212.504 69.4993 212.381 69.6389 212.198C69.7776 212.009 69.8206 211.773 69.7681 211.49C69.6572 210.892 69.2635 210.656 68.587 210.782L67.5959 210.966L67.9272 212.751L68.9183 212.567ZM72.5962 211.104C72.6864 210.859 72.8279 210.657 73.0205 210.496C73.2174 210.33 73.4653 210.218 73.7642 210.163L73.9364 211.091L73.7083 211.134C73.3569 211.199 73.106 211.337 72.9556 211.55C72.8103 211.761 72.7786 212.087 72.8603 212.528L73.2835 214.809L72.3868 214.975L71.5828 210.641L72.4795 210.475L72.5962 211.104ZM75.0824 209.398C74.9198 209.428 74.7732 209.398 74.6427 209.308C74.5121 209.219 74.4318 209.093 74.4016 208.93C74.3715 208.768 74.4012 208.621 74.4909 208.49C74.5806 208.36 74.7068 208.28 74.8693 208.249C75.0266 208.22 75.1706 208.25 75.3011 208.34C75.4317 208.43 75.512 208.556 75.5422 208.718C75.5723 208.881 75.5426 209.028 75.4529 209.158C75.3632 209.289 75.2397 209.369 75.0824 209.398ZM75.6294 209.89L76.4334 214.224L75.5367 214.391L74.7327 210.057L75.6294 209.89ZM79.6348 213.704C79.2258 213.78 78.8391 213.756 78.4747 213.634C78.1093 213.507 77.8011 213.293 77.55 212.992C77.298 212.686 77.1307 212.31 77.048 211.865C76.9663 211.424 76.9908 211.015 77.1216 210.639C77.2524 210.262 77.4686 209.95 77.7701 209.705C78.0717 209.459 78.4296 209.298 78.8439 209.221C79.2581 209.144 79.6501 209.166 80.0197 209.287C80.3894 209.409 80.7029 209.622 80.9601 209.927C81.2174 210.231 81.3868 210.604 81.4686 211.045C81.5503 211.485 81.5231 211.894 81.3871 212.272C81.251 212.65 81.0275 212.965 80.7164 213.218C80.4096 213.465 80.0491 213.627 79.6348 213.704ZM79.4904 212.925C79.7211 212.882 79.9259 212.787 80.1047 212.64C80.2888 212.492 80.4233 212.296 80.5083 212.053C80.5933 211.809 80.6066 211.53 80.5483 211.215C80.4899 210.901 80.3805 210.647 80.22 210.454C80.0585 210.257 79.8679 210.121 79.6482 210.048C79.4285 209.975 79.2033 209.96 78.9726 210.002C78.7419 210.045 78.5371 210.14 78.3582 210.287C78.1846 210.433 78.0606 210.627 77.9861 210.869C77.9106 211.105 77.9021 211.381 77.9604 211.695C78.047 212.162 78.2321 212.502 78.5157 212.715C78.8037 212.922 79.1285 212.992 79.4904 212.925ZM83.0983 209.156C83.1885 208.911 83.3299 208.709 83.5226 208.548C83.7195 208.381 83.9673 208.27 84.2662 208.215L84.4384 209.143L84.2103 209.185C83.859 209.25 83.6081 209.389 83.4576 209.602C83.3124 209.813 83.2807 210.139 83.3624 210.579L83.7855 212.86L82.8888 213.027L82.0848 208.693L82.9815 208.526L83.0983 209.156ZM85.5844 207.45C85.4219 207.48 85.2753 207.45 85.1448 207.36C85.0142 207.271 84.9339 207.144 84.9037 206.982C84.8735 206.819 84.9033 206.673 84.993 206.542C85.0827 206.412 85.2088 206.331 85.3714 206.301C85.5287 206.272 85.6726 206.302 85.8032 206.392C85.9337 206.482 86.0141 206.608 86.0442 206.77C86.0744 206.933 86.0446 207.079 85.9549 207.21C85.8652 207.34 85.7417 207.42 85.5844 207.45ZM86.1314 207.942L86.9354 212.276L86.0387 212.442L85.2347 208.108L86.1314 207.942ZM88.6217 208.237L89.0667 210.636C89.0969 210.798 89.1555 210.91 89.2425 210.969C89.3338 211.023 89.4712 211.033 89.6548 210.999L90.2054 210.896L90.344 211.644L89.6361 211.775C89.2323 211.85 88.9054 211.813 88.6554 211.664C88.4054 211.515 88.2409 211.228 88.1622 210.804L87.7171 208.405L87.2058 208.499L87.0701 207.768L87.5814 207.673L87.3815 206.595L88.2861 206.428L88.486 207.505L89.54 207.31L89.6757 208.041L88.6217 208.237ZM94.399 206.408L92.9223 213.273L91.9941 213.445L92.484 211.174L89.9863 207.227L90.9852 207.042L92.8173 210.119L93.4708 206.58L94.399 206.408Z" fill="white" fill-opacity="0.3"/>
<path d="M48.1303 227.103L47.9026 225.876L50.3568 225.421L51.9524 234.022L50.5955 234.274L49.2276 226.899L48.1303 227.103ZM53.1127 229.242C52.8602 227.881 52.8913 226.777 53.206 225.93C53.5271 225.073 54.25 224.54 55.3749 224.331C56.4997 224.122 57.3617 224.361 57.9609 225.047C58.5665 225.724 58.9956 226.743 59.248 228.104C59.5033 229.481 59.4712 230.601 59.1516 231.466C58.8384 232.321 58.1194 232.854 56.9946 233.062C55.8697 233.271 55.0038 233.033 54.3967 232.348C53.796 231.654 53.368 230.619 53.1127 229.242ZM57.9265 228.349C57.8083 227.712 57.6651 227.181 57.4969 226.757C57.3365 226.331 57.1049 226.004 56.8022 225.775C56.4979 225.539 56.098 225.466 55.6025 225.558C55.1069 225.65 54.7596 225.861 54.5604 226.191C54.3598 226.513 54.2571 226.902 54.2522 227.359C54.2553 227.814 54.3159 228.36 54.4341 228.997C54.5567 229.658 54.6989 230.205 54.8607 230.639C55.0226 231.072 55.2549 231.404 55.5576 231.632C55.8683 231.859 56.2714 231.927 56.7669 231.835C57.2625 231.743 57.6106 231.536 57.8112 231.214C58.0197 230.891 58.1217 230.498 58.1172 230.035C58.1127 229.572 58.0491 229.01 57.9265 228.349Z" fill="white" fill-opacity="0.7"/>
<path d="M124.321 199.686L125.335 205.152L124.439 205.319L123.744 201.575L122.771 205.628L122.15 205.743L119.78 202.31L120.474 206.054L119.578 206.22L118.564 200.754L119.531 200.574L122.246 204.505L123.362 199.864L124.321 199.686ZM130.196 201.899C130.226 202.062 130.243 202.211 130.246 202.346L126.934 202.96C127.025 203.301 127.205 203.555 127.474 203.722C127.744 203.889 128.047 203.941 128.382 203.879C128.865 203.79 129.168 203.525 129.293 203.084L130.26 202.904C130.203 203.327 130.025 203.699 129.727 204.02C129.432 204.335 129.031 204.54 128.522 204.634C128.108 204.711 127.719 204.688 127.354 204.566C126.994 204.438 126.689 204.223 126.438 203.923C126.191 203.616 126.026 203.24 125.943 202.794C125.861 202.348 125.877 201.941 125.993 201.572C126.114 201.197 126.319 200.888 126.611 200.644C126.907 200.399 127.267 200.238 127.692 200.159C128.101 200.083 128.482 200.104 128.835 200.223C129.188 200.342 129.484 200.548 129.722 200.84C129.96 201.127 130.118 201.48 130.196 201.899ZM129.207 201.79C129.141 201.46 128.973 201.217 128.706 201.061C128.438 200.905 128.134 200.858 127.793 200.921C127.484 200.979 127.237 201.127 127.054 201.367C126.87 201.602 126.788 201.891 126.808 202.235L129.207 201.79ZM130.926 201.853C130.846 201.418 130.863 201.016 130.979 200.647C131.101 200.278 131.299 199.972 131.574 199.731C131.854 199.484 132.185 199.325 132.568 199.254C132.851 199.202 133.141 199.213 133.437 199.288C133.737 199.357 133.987 199.479 134.188 199.653L133.8 197.561L134.704 197.393L135.784 203.214L134.879 203.382L134.758 202.729C134.65 202.966 134.478 203.177 134.241 203.362C134.009 203.546 133.726 203.669 133.39 203.731C133.013 203.801 132.649 203.771 132.299 203.641C131.954 203.504 131.658 203.282 131.411 202.976C131.169 202.663 131.007 202.288 130.926 201.853ZM134.477 201.211C134.421 200.912 134.31 200.664 134.143 200.467C133.982 200.269 133.791 200.131 133.57 200.053C133.35 199.974 133.124 199.957 132.893 199.999C132.662 200.042 132.458 200.14 132.28 200.292C132.101 200.439 131.97 200.635 131.885 200.878C131.804 201.115 131.791 201.384 131.847 201.683C131.902 201.981 132.011 202.232 132.173 202.436C132.341 202.638 132.536 202.781 132.757 202.864C132.983 202.942 133.209 202.959 133.435 202.918C133.665 202.875 133.87 202.777 134.047 202.625C134.225 202.473 134.354 202.275 134.434 202.032C134.518 201.784 134.532 201.51 134.477 201.211ZM136.639 197.978C136.476 198.008 136.329 197.979 136.199 197.889C136.068 197.799 135.988 197.673 135.958 197.511C135.928 197.348 135.957 197.202 136.047 197.071C136.137 196.94 136.263 196.86 136.426 196.83C136.583 196.801 136.727 196.831 136.857 196.921C136.988 197.01 137.068 197.136 137.098 197.299C137.129 197.462 137.099 197.608 137.009 197.739C136.919 197.869 136.796 197.949 136.639 197.978ZM137.186 198.471L137.99 202.805L137.093 202.971L136.289 198.637L137.186 198.471ZM142.419 197.5L143.223 201.834L142.326 202L142.231 201.489C142.123 201.694 141.963 201.87 141.752 202.017C141.545 202.159 141.313 202.253 141.056 202.301C140.715 202.364 140.395 202.35 140.096 202.259C139.802 202.168 139.551 201.997 139.342 201.748C139.139 201.499 139 201.177 138.927 200.784L138.455 198.235L139.343 198.071L139.791 200.485C139.863 200.873 140.016 201.154 140.249 201.328C140.481 201.497 140.765 201.55 141.1 201.487C141.436 201.425 141.682 201.274 141.838 201.033C141.998 200.787 142.042 200.469 141.97 200.081L141.522 197.666L142.419 197.5ZM148.967 196.212C149.307 196.149 149.625 196.163 149.918 196.255C150.217 196.346 150.469 196.517 150.672 196.766C150.881 197.015 151.022 197.336 151.095 197.729L151.569 200.286L150.68 200.451L150.231 198.028C150.159 197.64 150.007 197.362 149.775 197.193C149.542 197.019 149.258 196.964 148.922 197.026C148.587 197.088 148.339 197.243 148.178 197.489C148.022 197.73 147.98 198.044 148.052 198.432L148.502 200.855L147.613 201.02L147.163 198.597C147.091 198.209 146.939 197.931 146.707 197.762C146.474 197.588 146.19 197.533 145.855 197.595C145.519 197.657 145.271 197.812 145.111 198.058C144.955 198.299 144.913 198.613 144.985 199.001L145.434 201.424L144.537 201.59L143.733 197.256L144.63 197.09L144.722 197.585C144.836 197.38 144.996 197.206 145.203 197.065C145.41 196.923 145.642 196.829 145.899 196.781C146.245 196.717 146.568 196.733 146.868 196.829C147.168 196.925 147.417 197.099 147.615 197.35C147.698 197.063 147.864 196.818 148.114 196.614C148.362 196.406 148.647 196.271 148.967 196.212ZM158.126 195.099C158.178 195.377 158.161 195.651 158.076 195.922C157.99 196.193 157.818 196.433 157.559 196.644C157.299 196.85 156.943 196.994 156.492 197.078L155.501 197.262L155.912 199.48L155.016 199.646L154.002 194.18L155.889 193.829C156.309 193.752 156.676 193.759 156.992 193.853C157.312 193.94 157.566 194.093 157.753 194.314C157.946 194.533 158.07 194.795 158.126 195.099ZM156.356 196.346C156.697 196.283 156.937 196.16 157.077 195.977C157.216 195.788 157.259 195.553 157.206 195.269C157.095 194.672 156.702 194.435 156.025 194.561L155.034 194.745L155.365 196.53L156.356 196.346ZM160.034 194.883C160.125 194.639 160.266 194.436 160.459 194.275C160.655 194.109 160.903 193.998 161.202 193.942L161.374 194.87L161.146 194.913C160.795 194.978 160.544 195.117 160.394 195.329C160.248 195.54 160.217 195.866 160.298 196.307L160.722 198.588L159.825 198.754L159.021 194.42L159.918 194.254L160.034 194.883ZM162.52 193.177C162.358 193.207 162.211 193.177 162.081 193.088C161.95 192.998 161.87 192.872 161.84 192.709C161.81 192.547 161.839 192.4 161.929 192.27C162.019 192.139 162.145 192.059 162.307 192.029C162.465 191.999 162.609 192.03 162.739 192.119C162.87 192.209 162.95 192.335 162.98 192.498C163.01 192.66 162.981 192.807 162.891 192.937C162.801 193.068 162.678 193.148 162.52 193.177ZM163.067 193.669L163.871 198.004L162.975 198.17L162.171 193.836L163.067 193.669ZM167.073 197.483C166.664 197.559 166.277 197.536 165.913 197.413C165.547 197.286 165.239 197.072 164.988 196.771C164.736 196.465 164.569 196.09 164.486 195.644C164.404 195.203 164.429 194.795 164.56 194.418C164.69 194.041 164.907 193.73 165.208 193.484C165.51 193.238 165.868 193.077 166.282 193C166.696 192.923 167.088 192.945 167.458 193.067C167.827 193.188 168.141 193.401 168.398 193.706C168.655 194.011 168.825 194.383 168.907 194.824C168.988 195.264 168.961 195.673 168.825 196.051C168.689 196.429 168.466 196.744 168.154 196.997C167.848 197.244 167.487 197.406 167.073 197.483ZM166.928 196.704C167.159 196.661 167.364 196.566 167.543 196.419C167.727 196.271 167.861 196.075 167.946 195.832C168.031 195.588 168.045 195.309 167.986 194.995C167.928 194.68 167.819 194.426 167.658 194.234C167.497 194.036 167.306 193.9 167.086 193.827C166.867 193.754 166.641 193.739 166.411 193.782C166.18 193.824 165.975 193.919 165.796 194.066C165.623 194.213 165.499 194.406 165.424 194.648C165.349 194.884 165.34 195.16 165.398 195.475C165.485 195.941 165.67 196.281 165.954 196.494C166.242 196.701 166.567 196.771 166.928 196.704ZM170.536 192.935C170.627 192.69 170.768 192.488 170.961 192.327C171.158 192.161 171.405 192.049 171.704 191.994L171.877 192.922L171.648 192.964C171.297 193.03 171.046 193.168 170.896 193.381C170.75 193.592 170.719 193.918 170.8 194.359L171.224 196.64L170.327 196.806L169.523 192.472L170.42 192.306L170.536 192.935ZM173.022 191.229C172.86 191.259 172.713 191.229 172.583 191.139C172.452 191.05 172.372 190.924 172.342 190.761C172.312 190.599 172.341 190.452 172.431 190.321C172.521 190.191 172.647 190.11 172.809 190.08C172.967 190.051 173.111 190.081 173.241 190.171C173.372 190.261 173.452 190.387 173.482 190.549C173.512 190.712 173.483 190.859 173.393 190.989C173.303 191.12 173.18 191.2 173.022 191.229ZM173.57 191.721L174.374 196.055L173.477 196.222L172.673 191.888L173.57 191.721ZM176.06 192.016L176.505 194.415C176.535 194.578 176.594 194.689 176.681 194.749C176.772 194.802 176.909 194.812 177.093 194.778L177.643 194.676L177.782 195.423L177.074 195.554C176.67 195.629 176.343 195.592 176.093 195.443C175.843 195.294 175.679 195.008 175.6 194.583L175.155 192.184L174.644 192.279L174.508 191.547L175.019 191.452L174.82 190.375L175.724 190.207L175.924 191.284L176.978 191.089L177.114 191.82L176.06 192.016ZM181.837 190.188L180.36 197.052L179.432 197.224L179.922 194.953L177.424 191.006L178.423 190.821L180.255 193.898L180.909 190.36L181.837 190.188Z" fill="white" fill-opacity="0.3"/>
<path d="M125.832 213.482C125.679 213.136 125.471 212.894 125.209 212.755C124.948 212.617 124.612 212.585 124.203 212.661C123.582 212.776 123.162 213.102 122.945 213.639C122.725 214.168 122.71 214.984 122.899 216.089C123.039 215.704 123.288 215.382 123.647 215.12C124.005 214.858 124.412 214.685 124.868 214.6C125.387 214.504 125.865 214.533 126.3 214.689C126.742 214.834 127.113 215.099 127.412 215.483C127.719 215.866 127.927 216.352 128.036 216.942C128.139 217.492 128.12 218.004 127.98 218.478C127.848 218.95 127.593 219.351 127.214 219.682C126.835 220.004 126.346 220.221 125.748 220.332C124.938 220.482 124.268 220.423 123.739 220.156C123.215 219.878 122.799 219.431 122.489 218.813C122.187 218.194 121.945 217.396 121.764 216.421C121.23 213.542 121.978 211.914 124.007 211.538C124.794 211.392 125.451 211.49 125.978 211.831C126.513 212.172 126.877 212.645 127.071 213.252L125.832 213.482ZM124.783 215.788C124.304 215.877 123.922 216.098 123.637 216.452C123.36 216.796 123.271 217.24 123.372 217.783C123.472 218.325 123.706 218.73 124.073 218.995C124.446 219.251 124.911 219.328 125.47 219.224C125.965 219.132 126.326 218.907 126.552 218.547C126.787 218.187 126.856 217.751 126.761 217.239C126.662 216.704 126.442 216.306 126.1 216.044C125.765 215.772 125.326 215.687 124.783 215.788Z" fill="white" fill-opacity="0.7"/>
<path d="M53.6018 251.274L55.4503 250.931L55.5845 251.655L52.8394 252.164L51.8252 246.698L52.7219 246.531L53.6018 251.274ZM58.3586 251.214C57.9496 251.29 57.5629 251.266 57.1984 251.144C56.8331 251.017 56.5248 250.803 56.2738 250.502C56.0218 250.196 55.8544 249.82 55.7718 249.375C55.69 248.934 55.7146 248.526 55.8454 248.149C55.9762 247.772 56.1923 247.46 56.4939 247.215C56.7955 246.969 57.1534 246.808 57.5676 246.731C57.9819 246.654 58.3739 246.676 58.7435 246.797C59.1132 246.919 59.4266 247.132 59.6839 247.437C59.9411 247.741 60.1106 248.114 60.1923 248.555C60.2741 248.995 60.2469 249.404 60.1109 249.782C59.9748 250.16 59.7513 250.475 59.4402 250.728C59.1334 250.975 58.7729 251.137 58.3586 251.214ZM58.2141 250.435C58.4449 250.392 58.6496 250.297 58.8285 250.15C59.0126 250.002 59.1471 249.806 59.2321 249.563C59.3171 249.319 59.3304 249.04 59.272 248.725C59.2137 248.411 59.1042 248.157 58.9438 247.964C58.7823 247.767 58.5917 247.631 58.372 247.558C58.1523 247.485 57.9271 247.47 57.6964 247.512C57.4656 247.555 57.2609 247.65 57.082 247.797C56.9084 247.943 56.7844 248.137 56.7099 248.379C56.6344 248.615 56.6258 248.891 56.6842 249.205C56.7708 249.672 56.9559 250.012 57.2395 250.225C57.5274 250.432 57.8523 250.502 58.2141 250.435ZM66.6293 245.123L66.0882 249.707L65.1444 249.882L63.6774 246.842L63.3981 250.206L62.4542 250.381L60.2973 246.298L61.2098 246.128L62.7607 249.445L63.0346 245.79L63.9707 245.616L65.4951 248.922L65.7483 245.286L66.6293 245.123ZM73.5196 244.357C73.5711 244.635 73.5542 244.91 73.4689 245.18C73.3835 245.451 73.2112 245.692 72.9519 245.903C72.6917 246.108 72.3362 246.253 71.8852 246.337L70.8941 246.52L71.3056 248.739L70.4089 248.905L69.3948 243.438L71.2825 243.088C71.7021 243.01 72.0696 243.018 72.3853 243.111C72.7052 243.198 72.9588 243.352 73.1461 243.572C73.3387 243.791 73.4632 244.053 73.5196 244.357ZM71.7495 245.605C72.0903 245.542 72.3306 245.419 72.4702 245.235C72.6088 245.047 72.6518 244.811 72.5993 244.528C72.4884 243.93 72.0947 243.694 71.4182 243.82L70.4272 244.003L70.7584 245.789L71.7495 245.605ZM75.4274 244.142C75.5176 243.897 75.6591 243.695 75.8517 243.534C76.0486 243.367 76.2965 243.256 76.5954 243.201L76.7676 244.129L76.5395 244.171C76.1881 244.237 75.9372 244.375 75.7868 244.588C75.6416 244.799 75.6098 245.125 75.6915 245.565L76.1147 247.847L75.218 248.013L74.414 243.679L75.3107 243.512L75.4274 244.142ZM77.9136 242.436C77.751 242.466 77.6045 242.436 77.4739 242.346C77.3434 242.257 77.263 242.131 77.2328 241.968C77.2027 241.805 77.2325 241.659 77.3222 241.528C77.4118 241.398 77.538 241.317 77.7005 241.287C77.8578 241.258 78.0018 241.288 78.1323 241.378C78.2629 241.468 78.3432 241.594 78.3734 241.756C78.4035 241.919 78.3738 242.065 78.2841 242.196C78.1944 242.327 78.0709 242.406 77.9136 242.436ZM78.4606 242.928L79.2646 247.262L78.3679 247.429L77.5639 243.094L78.4606 242.928ZM82.466 246.742C82.057 246.817 81.6703 246.794 81.3059 246.672C80.9405 246.544 80.6323 246.33 80.3812 246.03C80.1292 245.724 79.9619 245.348 79.8792 244.902C79.7975 244.462 79.822 244.053 79.9528 243.676C80.0836 243.3 80.2998 242.988 80.6013 242.743C80.9029 242.497 81.2608 242.335 81.6751 242.259C82.0894 242.182 82.4813 242.204 82.851 242.325C83.2206 242.446 83.5341 242.66 83.7913 242.964C84.0486 243.269 84.2181 243.642 84.2998 244.082C84.3815 244.523 84.3543 244.932 84.2183 245.31C84.0823 245.688 83.8587 246.003 83.5476 246.256C83.2408 246.503 82.8803 246.665 82.466 246.742ZM82.3216 245.963C82.5523 245.92 82.7571 245.825 82.9359 245.678C83.12 245.53 83.2545 245.334 83.3395 245.09C83.4245 244.847 83.4379 244.568 83.3795 244.253C83.3211 243.939 83.2117 243.685 83.0512 243.492C82.8897 243.294 82.6991 243.159 82.4795 243.086C82.2598 243.013 82.0345 242.997 81.8038 243.04C81.5731 243.083 81.3683 243.178 81.1895 243.325C81.0159 243.471 80.8918 243.665 80.8173 243.907C80.7418 244.143 80.7333 244.419 80.7916 244.733C80.8782 245.2 81.0633 245.54 81.347 245.753C81.6349 245.96 81.9597 246.03 82.3216 245.963ZM85.9295 242.193C86.0197 241.949 86.1611 241.746 86.3538 241.586C86.5507 241.419 86.7986 241.308 87.0975 241.253L87.2697 242.181L87.0415 242.223C86.6902 242.288 86.4393 242.427 86.2888 242.639C86.1436 242.851 86.1119 243.177 86.1936 243.617L86.6168 245.898L85.7201 246.065L84.916 241.731L85.8127 241.564L85.9295 242.193ZM88.4156 240.487C88.2531 240.518 88.1065 240.488 87.976 240.398C87.8454 240.308 87.7651 240.182 87.7349 240.02C87.7048 239.857 87.7345 239.711 87.8242 239.58C87.9139 239.449 88.04 239.369 88.2026 239.339C88.3599 239.31 88.5039 239.34 88.6344 239.43C88.765 239.519 88.8453 239.646 88.8755 239.808C88.9056 239.971 88.8758 240.117 88.7862 240.248C88.6965 240.378 88.573 240.458 88.4156 240.487ZM88.9626 240.98L89.7667 245.314L88.87 245.48L88.0659 241.146L88.9626 240.98ZM91.4529 241.275L91.8979 243.674C91.9281 243.836 91.9867 243.947 92.0737 244.007C92.165 244.061 92.3024 244.071 92.486 244.037L93.0366 243.934L93.1752 244.682L92.4673 244.813C92.0635 244.888 91.7366 244.851 91.4866 244.702C91.2366 244.553 91.0722 244.266 90.9934 243.841L90.5483 241.442L90.037 241.537L89.9013 240.806L90.4126 240.711L90.2127 239.633L91.1173 239.465L91.3172 240.543L92.3712 240.348L92.5069 241.079L91.4529 241.275ZM97.2302 239.446L95.7535 246.311L94.8253 246.483L95.3152 244.211L92.8175 240.265L93.8164 240.079L95.6485 243.157L96.302 239.618L97.2302 239.446Z" fill="white" fill-opacity="0.3"/>
<path d="M56.3121 262.126C55.4182 261.869 54.8895 261.3 54.7261 260.419C54.6473 259.994 54.6812 259.585 54.8279 259.192C54.9746 258.798 55.2414 258.46 55.6282 258.177C56.0136 257.886 56.513 257.683 57.1266 257.569C57.7322 257.457 58.2671 257.468 58.7313 257.601C59.2018 257.725 59.5761 257.945 59.8542 258.259C60.1322 258.574 60.3106 258.944 60.3894 259.368C60.4711 259.809 60.4293 260.219 60.264 260.6C60.105 260.971 59.8575 261.281 59.5213 261.531C60.0003 261.613 60.4046 261.819 60.7342 262.148C61.0624 262.47 61.2732 262.882 61.3665 263.385C61.4614 263.897 61.4155 264.373 61.2289 264.815C61.0423 265.256 60.7366 265.626 60.312 265.924C59.8873 266.223 59.38 266.427 58.79 266.536C58.2001 266.646 57.6534 266.637 57.1499 266.511C56.6543 266.383 56.2402 266.147 55.9077 265.802C55.5752 265.457 55.3615 265.028 55.2666 264.517C55.1718 264.006 55.2198 263.541 55.4108 263.123C55.6018 262.706 55.9022 262.373 56.3121 262.126ZM59.134 259.772C59.0523 259.332 58.8519 259.019 58.5328 258.834C58.2138 258.649 57.8143 258.601 57.3345 258.69C56.8625 258.778 56.5108 258.965 56.2793 259.252C56.0478 259.539 55.9736 259.907 56.0567 260.355C56.1297 260.748 56.3311 261.045 56.661 261.244C56.9973 261.434 57.3896 261.487 57.8379 261.404C58.2863 261.321 58.6326 261.126 58.8769 260.821C59.1213 260.515 59.207 260.165 59.134 259.772ZM58.0261 262.419C57.507 262.515 57.1063 262.723 56.8241 263.044C56.5483 263.356 56.4549 263.751 56.5439 264.231C56.6271 264.68 56.8523 265.016 57.2194 265.241C57.5851 265.458 58.0394 265.516 58.5821 265.415C59.117 265.316 59.5115 265.097 59.7658 264.756C60.0279 264.415 60.1181 264.024 60.0363 263.583C59.9488 263.111 59.7197 262.776 59.349 262.576C58.9863 262.375 58.5453 262.322 58.0261 262.419Z" fill="white" fill-opacity="0.7"/>
<defs>
<clipPath id="clip0_3856_244">
<rect width="384" height="232" fill="white" transform="translate(268 93)"/>
</clipPath>
</defs>
</svg>
