<svg width="17" height="16" viewBox="0 0 17 16" fill="none" xmlns="http://www.w3.org/2000/svg">
<path d="M8.24659 0C9.69482 0.000266132 11.1158 0.393658 12.358 1.13821C13.6002 1.88276 14.617 2.95055 15.2999 4.22767C15.9828 5.50478 16.3062 6.94332 16.2356 8.38984C16.165 9.83635 15.7031 11.2366 14.8991 12.4411C14.0952 13.6457 12.9793 14.6095 11.6705 15.2296C10.3618 15.8497 8.90921 16.1029 7.46783 15.9621C6.02645 15.8214 4.6503 15.2921 3.48617 14.4306C2.32205 13.5691 1.41362 12.4077 0.857787 11.0704C0.584987 10.4144 1.23859 9.7552 1.89619 10.0224C3.02325 10.4789 4.27466 10.526 5.43286 10.1555C6.59105 9.78503 7.58277 9.02034 8.23559 7.99441C8.88841 6.96849 9.16104 5.74622 9.00607 4.54012C8.85111 3.33402 8.27835 2.22037 7.38739 1.3928L7.32579 1.3288C6.88499 0.8248 7.23539 0.00640001 7.93219 0.00640001H8.14499L8.19939 0.00159998L8.24659 0Z" fill="#111111"/>
</svg>
