<svg width="56" height="56" viewBox="0 0 56 56" fill="none" xmlns="http://www.w3.org/2000/svg">
<g filter="url(#filter0_d_2385_101)">
<rect x="10" y="10" width="36" height="36" rx="7" fill="white"/>
</g>
<path d="M32.2412 30.362L29.8705 34.4681H25.1291L22.7585 30.362L25.1291 26.2558H29.8705L32.2412 30.362Z" fill="#111111"/>
<path d="M32.2412 21.7414L29.8705 25.8475H25.1291L22.7585 21.7414L25.1291 17.6352H29.8705L32.2412 21.7414Z" fill="#111111"/>
<path d="M40 26.0517L37.6293 30.1578H32.8879L30.5172 26.0517L32.8879 21.9455H37.6293L40 26.0517Z" fill="#111111"/>
<path d="M40 34.6725L37.6293 38.7787H32.8879L30.5172 34.6725L32.8879 30.5664H37.6293L40 34.6725Z" fill="#111111"/>
<path d="M24.4829 26.0517L22.1122 30.1578H17.3708L15.0002 26.0517L17.3708 21.9455H22.1122L24.4829 26.0517Z" fill="#111111"/>
<defs>
<filter id="filter0_d_2385_101" x="0" y="0" width="56" height="56" filterUnits="userSpaceOnUse" color-interpolation-filters="sRGB">
<feFlood flood-opacity="0" result="BackgroundImageFix"/>
<feColorMatrix in="SourceAlpha" type="matrix" values="0 0 0 0 0 0 0 0 0 0 0 0 0 0 0 0 0 0 127 0" result="hardAlpha"/>
<feOffset/>
<feGaussianBlur stdDeviation="5"/>
<feComposite in2="hardAlpha" operator="out"/>
<feColorMatrix type="matrix" values="0 0 0 0 1 0 0 0 0 1 0 0 0 0 1 0 0 0 0.33 0"/>
<feBlend mode="normal" in2="BackgroundImageFix" result="effect1_dropShadow_2385_101"/>
<feBlend mode="normal" in="SourceGraphic" in2="effect1_dropShadow_2385_101" result="shape"/>
</filter>
</defs>
</svg>
