<svg width="18" height="14" viewBox="0 0 18 14" fill="none" xmlns="http://www.w3.org/2000/svg">
<path d="M13.4444 13.5C13.4444 12.065 11.4542 10.902 9 10.902C6.54578 10.902 4.55556 12.065 4.55556 13.5M17 10.902C17 9.83684 15.9031 8.92148 14.3333 8.52053M1 10.902C1 9.83684 2.09689 8.92148 3.66667 8.52053M14.3333 5.04442C14.5967 4.81761 14.8114 4.54231 14.9651 4.23437C15.1189 3.92642 15.2086 3.5919 15.2292 3.25004C15.2498 2.90819 15.2008 2.56574 15.085 2.2424C14.9693 1.91906 14.789 1.6212 14.5547 1.36597C14.3204 1.11073 14.0365 0.903142 13.7196 0.755147C13.4026 0.607152 13.0587 0.521669 12.7077 0.503614C12.3567 0.485558 12.0055 0.535287 11.6743 0.64994C11.3431 0.764593 11.0384 0.941908 10.7778 1.17169M3.66667 5.04442C3.14427 4.58384 2.83019 3.94056 2.79304 3.2551C2.75589 2.56964 2.99869 1.89771 3.46841 1.3861C3.93812 0.874484 4.59657 0.56476 5.29992 0.524586C6.00327 0.484412 6.69436 0.717052 7.22222 1.17169M9 8.30403C8.29276 8.30403 7.61448 8.03031 7.11438 7.54309C6.61428 7.05588 6.33333 6.39507 6.33333 5.70604C6.33333 5.01701 6.61428 4.3562 7.11438 3.86899C7.61448 3.38177 8.29276 3.10805 9 3.10805C9.70724 3.10805 10.3855 3.38177 10.8856 3.86899C11.3857 4.3562 11.6667 5.01701 11.6667 5.70604C11.6667 6.39507 11.3857 7.05588 10.8856 7.54309C10.3855 8.03031 9.70724 8.30403 9 8.30403Z" stroke="#565656" stroke-linecap="round" stroke-linejoin="round"/>
</svg>
