<svg width="17" height="12" viewBox="0 0 17 12" fill="none" xmlns="http://www.w3.org/2000/svg">
<path d="M1 1.34615C1 1.12174 1.0878 0.906518 1.24408 0.747833C1.40036 0.589148 1.61232 0.5 1.83333 0.5H15.1667C15.3877 0.5 15.5996 0.589148 15.7559 0.747833C15.9122 0.906518 16 1.12174 16 1.34615V3.88462C16 4.10903 15.9122 4.32425 15.7559 4.48294C15.5996 4.64162 15.3877 4.73077 15.1667 4.73077H1.83333C1.61232 4.73077 1.40036 4.64162 1.24408 4.48294C1.0878 4.32425 1 4.10903 1 3.88462V1.34615ZM1 8.11538C1 7.89097 1.0878 7.67575 1.24408 7.51706C1.40036 7.35838 1.61232 7.26923 1.83333 7.26923H15.1667C15.3877 7.26923 15.5996 7.35838 15.7559 7.51706C15.9122 7.67575 16 7.89097 16 8.11538V10.6538C16 10.8783 15.9122 11.0935 15.7559 11.2522C15.5996 11.4109 15.3877 11.5 15.1667 11.5H1.83333C1.61232 11.5 1.40036 11.4109 1.24408 11.2522C1.0878 11.0935 1 10.8783 1 10.6538V8.11538Z" stroke="#565656" stroke-linecap="round" stroke-linejoin="round"/>
</svg>
