<svg width="16" height="18" viewBox="0 0 16 18" fill="none" xmlns="http://www.w3.org/2000/svg">
<path d="M6.16878 4.25L6.6137 3.14C6.68874 2.95206 6.82075 2.79041 6.99245 2.67621C7.16415 2.56201 7.36754 2.5006 7.57597 2.5H8.42442C8.63285 2.5006 8.83624 2.56201 9.00794 2.67621C9.17964 2.79041 9.31165 2.95206 9.38669 3.14L9.83161 4.25L11.3423 5.09L12.5632 4.91C12.7665 4.88333 12.9734 4.91567 13.1577 5.00292C13.3419 5.09017 13.4951 5.22838 13.5979 5.4L14.0118 6.1C14.1178 6.27435 14.1667 6.47568 14.1519 6.67742C14.1371 6.87916 14.0594 7.07183 13.929 7.23L13.1737 8.16V9.84L13.9497 10.77C14.0801 10.9282 14.1578 11.1208 14.1726 11.3226C14.1874 11.5243 14.1385 11.7257 14.0325 11.9L13.6186 12.6C13.5158 12.7716 13.3626 12.9098 13.1783 12.9971C12.9941 13.0843 12.7872 13.1167 12.5839 13.09L11.363 12.91L9.8523 13.75L9.40738 14.86C9.33235 15.0479 9.20033 15.2096 9.02863 15.3238C8.85693 15.438 8.65354 15.4994 8.44511 15.5H7.57597C7.36754 15.4994 7.16415 15.438 6.99245 15.3238C6.82075 15.2096 6.68874 15.0479 6.6137 14.86L6.16878 13.75L4.65813 12.91L3.43719 13.09C3.23389 13.1167 3.02697 13.0843 2.84274 12.9971C2.6585 12.9098 2.50526 12.7716 2.40249 12.6L1.98861 11.9C1.88256 11.7257 1.8337 11.5243 1.84847 11.3226C1.86325 11.1208 1.94098 10.9282 2.07139 10.77L2.82672 9.84V8.16L2.05069 7.23C1.92028 7.07183 1.84256 6.87916 1.82778 6.67742C1.813 6.47568 1.86186 6.27435 1.96792 6.1L2.3818 5.4C2.48457 5.22838 2.63781 5.09017 2.82204 5.00292C3.00628 4.91567 3.21319 4.88333 3.41649 4.91L4.63743 5.09L6.16878 4.25ZM5.9308 9C5.9308 9.53043 6.14883 10.0391 6.53691 10.4142C6.925 10.7893 7.45136 11 8.0002 11C8.54903 11 9.07539 10.7893 9.46348 10.4142C9.85156 10.0391 10.0696 9.53043 10.0696 9C10.0696 8.46957 9.85156 7.96086 9.46348 7.58579C9.07539 7.21071 8.54903 7 8.0002 7C7.45136 7 6.925 7.21071 6.53691 7.58579C6.14883 7.96086 5.9308 8.46957 5.9308 9Z" stroke="#565656" stroke-linecap="round" stroke-linejoin="round"/>
</svg>
