<svg width="14" height="14" viewBox="0 0 14 14" fill="none" xmlns="http://www.w3.org/2000/svg">
<path d="M4.92365 0.750001H2.30541C2.13393 0.749823 1.9641 0.783467 1.80564 0.849007C1.64718 0.914546 1.5032 1.0107 1.38195 1.13195C1.2607 1.2532 1.16455 1.39718 1.09901 1.55564C1.03347 1.7141 0.999823 1.88393 1 2.05541V4.67365C0.99964 5.0206 1.13684 5.35354 1.38154 5.5995C1.62623 5.84546 1.95846 5.98438 2.30541 5.98581H4.92365C5.09602 5.98599 5.26672 5.95217 5.426 5.88629C5.58528 5.82041 5.73 5.72377 5.85188 5.60188C5.97377 5.48 6.07041 5.33528 6.13629 5.176C6.20217 5.01672 6.23599 4.84602 6.23581 4.67365V2.05541C6.23438 1.70846 6.09546 1.37623 5.8495 1.13154C5.60354 0.886843 5.2706 0.74964 4.92365 0.750001ZM12.1946 0.750001H9.57635C9.2294 0.74964 8.89646 0.886843 8.6505 1.13154C8.40454 1.37623 8.26562 1.70846 8.26419 2.05541V4.67365C8.26437 5.0216 8.40267 5.35525 8.64871 5.60129C8.89475 5.84733 9.2284 5.98563 9.57635 5.98581H12.1946C12.5415 5.98438 12.8738 5.84546 13.1185 5.5995C13.3632 5.35354 13.5004 5.0206 13.5 4.67365V2.05541C13.5002 1.88393 13.4665 1.7141 13.401 1.55564C13.3355 1.39718 13.2393 1.2532 13.1181 1.13195C12.9968 1.0107 12.8528 0.914546 12.6944 0.849007C12.5359 0.783467 12.3661 0.749823 12.1946 0.750001ZM12.1946 8.01351H9.57635C9.22929 8.01315 8.89625 8.15045 8.65026 8.39529C8.40428 8.64013 8.26544 8.97253 8.26419 9.3196V11.9378C8.26401 12.1102 8.29783 12.2809 8.36371 12.4402C8.42959 12.5995 8.52624 12.7442 8.64812 12.8661C8.77 12.988 8.91472 13.0846 9.074 13.1505C9.23328 13.2164 9.40399 13.2502 9.57635 13.25H12.1946C12.5415 13.2486 12.8738 13.1097 13.1185 12.8637C13.3632 12.6177 13.5004 12.2848 13.5 11.9378V9.3196C13.5002 9.14812 13.4665 8.97829 13.401 8.81983C13.3355 8.66137 13.2393 8.51739 13.1181 8.39614C12.9968 8.27488 12.8528 8.17874 12.6944 8.1132C12.5359 8.04766 12.3661 8.01334 12.1946 8.01351ZM4.92365 8.01351H2.30541C1.95851 8.01548 1.62649 8.15466 1.38189 8.40065C1.13729 8.64665 0.999995 8.97945 1 9.32635V11.9446C0.999823 12.1161 1.03347 12.2859 1.09901 12.4444C1.16455 12.6028 1.2607 12.7468 1.38195 12.8681C1.5032 12.9893 1.64718 13.0855 1.80564 13.151C1.9641 13.2165 2.13393 13.2502 2.30541 13.25H4.92365C5.2706 13.2504 5.60354 13.1132 5.8495 12.8685C6.09546 12.6238 6.23438 12.2915 6.23581 11.9446V9.32635C6.23599 9.15399 6.20217 8.98328 6.13629 8.824C6.07041 8.66472 5.97377 8.52 5.85188 8.39812C5.73 8.27624 5.58528 8.17959 5.426 8.11371C5.26672 8.04783 5.09602 8.01334 4.92365 8.01351Z" stroke="#565656" stroke-linecap="round" stroke-linejoin="round"/>
</svg>
