<svg width="20" height="15" viewBox="0 0 20 15" fill="none" xmlns="http://www.w3.org/2000/svg">
<path d="M10 7.94118C11.7027 7.94118 13.2455 8.48824 14.3773 9.25324C15.4527 9.98118 16.3636 11.0629 16.3636 12.2268C16.3636 12.8656 16.0827 13.395 15.64 13.7885C15.2236 14.16 14.68 14.4009 14.12 14.565C13.0009 14.8941 11.5273 15 10 15C8.47273 15 6.99909 14.8941 5.88 14.565C5.32 14.4009 4.77636 14.16 4.35909 13.7885C3.91818 13.3959 3.63636 12.8665 3.63636 12.2276C3.63636 11.0638 4.54727 9.98206 5.62273 9.25412C6.75455 8.48824 8.29727 7.94118 10 7.94118ZM16.3636 8.82353C17.3127 8.82353 18.1745 9.12794 18.8118 9.55853C19.3936 9.95294 20 10.6085 20 11.4079C20 11.8641 19.7955 12.2426 19.4909 12.5135C19.2127 12.7615 18.8691 12.9071 18.5555 12.9988C18.1282 13.1241 17.6236 13.1885 17.1 13.2168C17.2109 12.9124 17.2727 12.5815 17.2727 12.2268C17.2727 10.8724 16.4009 9.72176 15.4255 8.92323C15.7335 8.85718 16.0481 8.82375 16.3636 8.82353ZM3.63636 8.82353C3.96182 8.82471 4.27455 8.85794 4.57455 8.92323C3.6 9.72176 2.72727 10.8724 2.72727 12.2268C2.72727 12.5815 2.78909 12.9124 2.9 13.2168C2.37636 13.1885 1.87273 13.1241 1.44455 12.9988C1.13091 12.9071 0.787273 12.7615 0.508182 12.5135C0.348206 12.3744 0.220258 12.2041 0.132692 12.0138C0.0451257 11.8234 -8.89718e-05 11.6173 1.31439e-07 11.4088C1.31439e-07 10.6103 0.605455 9.95382 1.18818 9.55941C1.90896 9.07981 2.76247 8.82326 3.63636 8.82353ZM15.9091 3.52941C16.5119 3.52941 17.0899 3.76182 17.5162 4.1755C17.9424 4.58918 18.1818 5.15026 18.1818 5.73529C18.1818 6.32033 17.9424 6.88141 17.5162 7.29509C17.0899 7.70877 16.5119 7.94118 15.9091 7.94118C15.3063 7.94118 14.7282 7.70877 14.302 7.29509C13.8758 6.88141 13.6364 6.32033 13.6364 5.73529C13.6364 5.15026 13.8758 4.58918 14.302 4.1755C14.7282 3.76182 15.3063 3.52941 15.9091 3.52941ZM4.09091 3.52941C4.69367 3.52941 5.27175 3.76182 5.69797 4.1755C6.12419 4.58918 6.36364 5.15026 6.36364 5.73529C6.36364 6.32033 6.12419 6.88141 5.69797 7.29509C5.27175 7.70877 4.69367 7.94118 4.09091 7.94118C3.48814 7.94118 2.91007 7.70877 2.48385 7.29509C2.05763 6.88141 1.81818 6.32033 1.81818 5.73529C1.81818 5.15026 2.05763 4.58918 2.48385 4.1755C2.91007 3.76182 3.48814 3.52941 4.09091 3.52941ZM10 0C10.9644 0 11.8893 0.371848 12.5713 1.03374C13.2532 1.69563 13.6364 2.59335 13.6364 3.52941C13.6364 4.46547 13.2532 5.36319 12.5713 6.02508C11.8893 6.68698 10.9644 7.05882 10 7.05882C9.03558 7.05882 8.11065 6.68698 7.4287 6.02508C6.74675 5.36319 6.36364 4.46547 6.36364 3.52941C6.36364 2.59335 6.74675 1.69563 7.4287 1.03374C8.11065 0.371848 9.03558 0 10 0Z" fill="#565656"/>
</svg>
