<svg width="20" height="16" viewBox="0 0 20 16" fill="none" xmlns="http://www.w3.org/2000/svg">
<path d="M9.70588 8.44118C11.3585 8.44118 12.8559 8.98824 13.9544 9.75324C14.9982 10.4812 15.8824 11.5629 15.8824 12.7268C15.8824 13.3656 15.6097 13.895 15.18 14.2885C14.7759 14.66 14.2482 14.9009 13.7047 15.065C12.6185 15.3941 11.1882 15.5 9.70588 15.5C8.22353 15.5 6.79324 15.3941 5.70706 15.065C5.16353 14.9009 4.63588 14.66 4.23088 14.2885C3.80294 13.8959 3.52941 13.3665 3.52941 12.7276C3.52941 11.5638 4.41353 10.4821 5.45735 9.75412C6.55588 8.98824 8.05324 8.44118 9.70588 8.44118ZM15.8824 9.32353C16.8035 9.32353 17.64 9.62794 18.2585 10.0585C18.8232 10.4529 19.4118 11.1085 19.4118 11.9079C19.4118 12.3641 19.2132 12.7426 18.9176 13.0135C18.6476 13.2615 18.3141 13.4071 18.0097 13.4988C17.595 13.6241 17.1053 13.6885 16.5971 13.7168C16.7047 13.4124 16.7647 13.0815 16.7647 12.7268C16.7647 11.3724 15.9185 10.2218 14.9718 9.42324C15.2708 9.35718 15.5761 9.32375 15.8824 9.32353ZM3.52941 9.32353C3.84529 9.32471 4.14882 9.35794 4.44 9.42324C3.49412 10.2218 2.64706 11.3724 2.64706 12.7268C2.64706 13.0815 2.70706 13.4124 2.81471 13.7168C2.30647 13.6885 1.81765 13.6241 1.40206 13.4988C1.09765 13.4071 0.764118 13.2615 0.493235 13.0135C0.337965 12.8744 0.21378 12.7041 0.128789 12.5138C0.0437985 12.3234 -8.6355e-05 12.1173 1.27573e-07 11.9088C1.27573e-07 11.1103 0.587647 10.4538 1.15324 10.0594C1.85282 9.57981 2.68122 9.32326 3.52941 9.32353ZM15.4412 4.02941C16.0262 4.02941 16.5873 4.26182 17.001 4.6755C17.4147 5.08918 17.6471 5.65026 17.6471 6.23529C17.6471 6.82033 17.4147 7.38141 17.001 7.79509C16.5873 8.20877 16.0262 8.44118 15.4412 8.44118C14.8561 8.44118 14.2951 8.20877 13.8814 7.79509C13.4677 7.38141 13.2353 6.82033 13.2353 6.23529C13.2353 5.65026 13.4677 5.08918 13.8814 4.6755C14.2951 4.26182 14.8561 4.02941 15.4412 4.02941ZM3.97059 4.02941C4.55562 4.02941 5.1167 4.26182 5.53038 4.6755C5.94407 5.08918 6.17647 5.65026 6.17647 6.23529C6.17647 6.82033 5.94407 7.38141 5.53038 7.79509C5.1167 8.20877 4.55562 8.44118 3.97059 8.44118C3.38555 8.44118 2.82448 8.20877 2.41079 7.79509C1.99711 7.38141 1.76471 6.82033 1.76471 6.23529C1.76471 5.65026 1.99711 5.08918 2.41079 4.6755C2.82448 4.26182 3.38555 4.02941 3.97059 4.02941ZM9.70588 0.5C10.6419 0.5 11.5397 0.871848 12.2016 1.53374C12.8634 2.19563 13.2353 3.09335 13.2353 4.02941C13.2353 4.96547 12.8634 5.86319 12.2016 6.52508C11.5397 7.18698 10.6419 7.55882 9.70588 7.55882C8.76982 7.55882 7.8721 7.18698 7.21021 6.52508C6.54832 5.86319 6.17647 4.96547 6.17647 4.02941C6.17647 3.09335 6.54832 2.19563 7.21021 1.53374C7.8721 0.871848 8.76982 0.5 9.70588 0.5Z" fill="white"/>
</svg>
