<svg width="12" height="14" viewBox="0 0 12 14" fill="none" xmlns="http://www.w3.org/2000/svg">
<path d="M8.50001 13.0002H1.5C1.36739 13.0002 1.24022 12.9475 1.14645 12.8537C1.05268 12.76 1 12.6328 1 12.5002V3.50001C1 3.3674 1.05268 3.24022 1.14645 3.14645C1.24022 3.05268 1.36739 3 1.5 3H6.50001L9.00001 5.50005V12.5002C9.00001 12.6328 8.94734 12.76 8.85357 12.8537C8.7598 12.9475 8.63262 13.0002 8.50001 13.0002Z" stroke="#707070" stroke-width="0.9" stroke-linecap="round" stroke-linejoin="round"/>
<path d="M3 3.00004V1.50001C3 1.3674 3.05268 1.24022 3.14645 1.14645C3.24022 1.05268 3.36739 1 3.5 1H8.50001L11 3.50005V10.5002C11 10.6328 10.9473 10.76 10.8536 10.8537C10.7598 10.9475 10.6326 11.0002 10.5 11.0002H9.00001" stroke="#707070" stroke-width="0.9" stroke-linecap="round" stroke-linejoin="round"/>
<path d="M3.5 8.50024H6.50001" stroke="#707070" stroke-width="0.9" stroke-linecap="round" stroke-linejoin="round"/>
<path d="M3.5 10.5002H6.50001" stroke="#707070" stroke-width="0.9" stroke-linecap="round" stroke-linejoin="round"/>
</svg>
