<svg width="10" height="10" viewBox="0 0 10 10" fill="none" xmlns="http://www.w3.org/2000/svg">
<path d="M9.53906 3.01367C9.54942 3.27778 9.5498 3.59264 9.5498 3.97852V6.5332C9.5498 7.0676 9.54956 7.46614 9.52246 7.78125C9.49429 8.10049 9.44017 8.32912 9.33496 8.52441C9.13969 8.88216 8.83677 9.16952 8.46875 9.34473H8.4668C8.25761 9.4453 8.01308 9.49778 7.67578 9.52344C7.34019 9.54947 6.91633 9.5498 6.34863 9.5498H3.65137C3.08367 9.5498 2.65981 9.54947 2.32422 9.52344C1.98609 9.49722 1.74205 9.44514 1.5332 9.34473H1.53125C1.20921 9.19149 0.937122 8.95221 0.743164 8.65527L0.665039 8.52441C0.586117 8.37741 0.535721 8.21227 0.503906 8.00488L0.477539 7.78223C0.450365 7.46648 0.450195 7.06837 0.450195 6.53418V3.97949C0.450195 3.59309 0.450586 3.2778 0.460938 3.01367H9.53906Z" stroke="#565656" stroke-width="0.9"/>
</svg>
