<svg width="11" height="11" viewBox="0 0 11 11" fill="none" xmlns="http://www.w3.org/2000/svg">
<path d="M5.49999 3.49987V5.49992M5.49999 7.49997H5.50499M9.43748 2.63485C9.78748 2.83385 10.0025 3.20636 9.99998 3.60887V7.25096C9.99998 7.65547 9.77848 8.02848 9.42098 8.22499L6.04599 10.36C5.87865 10.4519 5.69086 10.5 5.49999 10.5C5.30912 10.5 5.12133 10.4519 4.95399 10.36L1.579 8.22499C1.40426 8.12919 1.25838 7.98831 1.15655 7.81701C1.05472 7.64571 1.00066 7.45024 1 7.25096V3.60837C1 3.20386 1.2215 2.83135 1.579 2.63485L4.95399 0.644798C5.12626 0.549814 5.31977 0.5 5.51649 0.5C5.71321 0.5 5.90672 0.549814 6.07899 0.644798L9.45398 2.63485H9.43748Z" stroke="#A21E1E" stroke-linecap="round" stroke-linejoin="round"/>
</svg>
