<svg width="14" height="13" viewBox="0 0 14 13" fill="none" xmlns="http://www.w3.org/2000/svg">
<path d="M7.33492 0.165039C8.58786 0.165039 9.81267 0.53658 10.8545 1.23268C11.8962 1.92878 12.7082 2.91817 13.1877 4.07574C13.6672 5.23331 13.7926 6.50707 13.5482 7.73594C13.3038 8.96481 12.7004 10.0936 11.8144 10.9796C10.9285 11.8655 9.79969 12.4689 8.57082 12.7133C7.34195 12.9577 6.06819 12.8323 4.91062 12.3528C3.75305 11.8733 2.76366 11.0614 2.06756 10.0196C1.37146 8.97779 0.999922 7.75298 0.999922 6.50004C1.0017 4.82044 1.6697 3.21013 2.85736 2.02248C4.04502 0.834818 5.65532 0.166813 7.33492 0.165039ZM12.6953 6.50004C12.6937 5.07887 12.1284 3.71637 11.1235 2.71145C10.1186 1.70654 8.75609 1.14127 7.33492 1.13965V11.8604C8.75609 11.8588 10.1186 11.2935 11.1235 10.2886C12.1284 9.2837 12.6937 7.92121 12.6953 6.50004Z" fill="#989898" stroke="#989898" stroke-width="0.3"/>
</svg>
