<svg width="12" height="6" viewBox="0 0 12 6" fill="none" xmlns="http://www.w3.org/2000/svg">
<path d="M3.85645 3H8.14217" stroke="#707070" stroke-width="0.9" stroke-linecap="round" stroke-linejoin="round"/>
<path d="M4.92858 5.14295H3.14286C2.57454 5.14295 2.02949 4.91718 1.62763 4.51532C1.22576 4.11345 1 3.56839 1 3.00006C1 2.43174 1.22576 1.88668 1.62763 1.48481C2.02949 1.08295 2.57454 0.857178 3.14286 0.857178H4.92858" stroke="#707070" stroke-width="0.9" stroke-linecap="round" stroke-linejoin="round"/>
<path d="M7.07129 0.857178H8.85701C9.42533 0.857178 9.97037 1.08295 10.3722 1.48481C10.7741 1.88668 10.9999 2.43174 10.9999 3.00006C10.9999 3.56839 10.7741 4.11345 10.3722 4.51532C9.97037 4.91718 9.42533 5.14295 8.85701 5.14295H7.07129" stroke="#707070" stroke-width="0.9" stroke-linecap="round" stroke-linejoin="round"/>
</svg>
