<svg width="12" height="13" viewBox="0 0 12 13" fill="none" xmlns="http://www.w3.org/2000/svg">
<path d="M5.99999 4.29986V6.49991M5.99999 8.69996H6.00554M10.375 3.34833C10.7639 3.56724 11.0028 3.977 11 4.41976V8.42606C11 8.87102 10.7539 9.28133 10.3566 9.49749L6.60665 11.846C6.42072 11.947 6.21207 12 5.99999 12C5.78791 12 5.57925 11.947 5.39332 11.846L1.64333 9.49749C1.44917 9.39211 1.28709 9.23714 1.17395 9.04871C1.0608 8.86028 1.00074 8.64527 1 8.42606V4.41921C1 3.97425 1.24611 3.56449 1.64333 3.34833L5.39332 1.15928C5.58473 1.0548 5.79975 1 6.01832 1C6.2369 1 6.45191 1.0548 6.64332 1.15928L10.3933 3.34833H10.375Z" stroke="#8F7727" stroke-linecap="round" stroke-linejoin="round"/>
</svg>
