<svg width="14" height="14" viewBox="0 0 14 14" fill="none" xmlns="http://www.w3.org/2000/svg">
<path d="M7.33333 0.666626C9.01304 0.666626 10.6239 1.33389 11.8117 2.52162C12.9994 3.70935 13.6667 5.32025 13.6667 6.99996C13.6667 8.67966 12.9994 10.2906 11.8117 11.4783C10.6239 12.666 9.01304 13.3333 7.33333 13.3333C5.65363 13.3333 4.04272 12.666 2.85499 11.4783C1.66726 10.2906 1 8.67966 1 6.99996C1 5.32025 1.66726 3.70935 2.85499 2.52162C4.04272 1.33389 5.65363 0.666626 7.33333 0.666626ZM7.33333 1.33329C5.83044 1.33329 4.3891 1.93031 3.3264 2.99302C2.26369 4.05573 1.66667 5.49707 1.66667 6.99996C1.66667 8.50285 2.26369 9.94419 3.3264 11.0069C4.3891 12.0696 5.83044 12.6666 7.33333 12.6666C8.07749 12.6666 8.81436 12.5201 9.50187 12.2353C10.1894 11.9505 10.8141 11.5331 11.3403 11.0069C11.8665 10.4807 12.2839 9.85601 12.5687 9.1685C12.8534 8.48099 13 7.74412 13 6.99996C13 5.49707 12.403 4.05573 11.3403 2.99302C10.2776 1.93031 8.83623 1.33329 7.33333 1.33329Z" fill="#989898" stroke="#989898" stroke-width="0.5"/>
</svg>
