<svg width="40" height="40" viewBox="0 0 40 40" fill="none" xmlns="http://www.w3.org/2000/svg">
<rect width="40" height="40" rx="20" fill="#FEF9C3"/>
<path d="M16.9995 13.5C17.1321 13.5 17.2593 13.5527 17.3531 13.6464C17.4469 13.7402 17.4995 13.8674 17.4995 14V14.1687C17.7284 14.1669 17.9771 14.1662 18.2456 14.1667H21.7538C22.0222 14.1667 22.2709 14.1673 22.4998 14.1687V14C22.4998 13.8674 22.5525 13.7402 22.6462 13.6464C22.74 13.5527 22.8672 13.5 22.9998 13.5C23.1324 13.5 23.2596 13.5527 23.3534 13.6464C23.4472 13.7402 23.4998 13.8674 23.4998 14V14.2007C23.5078 14.2007 23.5156 14.2013 23.5232 14.2027C23.9965 14.2387 24.3959 14.3153 24.7606 14.4907C25.3503 14.7713 25.8363 15.2309 26.1493 15.804C26.3407 16.1587 26.4227 16.546 26.462 16.9993C26.5 17.4407 26.5 17.9873 26.5 18.6727V21.9933C26.5 22.6793 26.5 23.2267 26.462 23.6673C26.422 24.1207 26.3407 24.508 26.1493 24.862C25.8364 25.4354 25.3504 25.8952 24.7606 26.176C24.3959 26.3513 23.9965 26.428 23.5232 26.464C23.0592 26.5 22.4831 26.5 21.7538 26.5H18.2462C17.5169 26.5 16.9408 26.5 16.4768 26.464C16.0035 26.4273 15.6041 26.3513 15.2394 26.176C14.6497 25.8954 14.1637 25.4358 13.8507 24.8627C13.6593 24.508 13.5773 24.1207 13.538 23.6673C13.5 23.226 13.5 22.6793 13.5 21.994V18.6733C13.5 17.9873 13.5 17.44 13.538 16.9993C13.578 16.546 13.6593 16.1587 13.8507 15.8047C14.1636 15.2313 14.6496 14.7714 15.2394 14.4907C15.6041 14.3153 16.0035 14.2387 16.4768 14.2027L16.4995 14.2V14C16.4995 13.8674 16.5522 13.7402 16.6459 13.6464C16.7397 13.5527 16.8669 13.5 16.9995 13.5ZM16.4995 15.204C16.1148 15.2373 15.8688 15.2973 15.6728 15.392C15.273 15.581 14.9431 15.8912 14.7301 16.2787C14.6541 16.42 14.5994 16.5893 14.5634 16.8333H25.4366C25.3999 16.5893 25.3453 16.42 25.2693 16.2793C25.0565 15.8918 24.7268 15.5812 24.3272 15.392C24.1305 15.2973 23.8845 15.2373 23.4998 15.204V15.3333C23.4998 15.4659 23.4472 15.5931 23.3534 15.6869C23.2596 15.7807 23.1324 15.8333 22.9998 15.8333C22.8672 15.8333 22.74 15.7807 22.6462 15.6869C22.5525 15.5931 22.4998 15.4659 22.4998 15.3333V15.1687C22.2727 15.1669 22.0171 15.1662 21.7331 15.1667H18.2662C17.9822 15.1667 17.7267 15.1673 17.4995 15.1687V15.3333C17.4995 15.4659 17.4469 15.5931 17.3531 15.6869C17.2593 15.7807 17.1321 15.8333 16.9995 15.8333C16.8669 15.8333 16.7397 15.7807 16.6459 15.6869C16.5522 15.5931 16.4995 15.4659 16.4995 15.3333V15.204Z" fill="#EA6311"/>
</svg>
