<svg width="40" height="40" viewBox="0 0 40 40" fill="none" xmlns="http://www.w3.org/2000/svg">
<rect width="40" height="40" rx="20" fill="#DBEAFE"/>
<path fill-rule="evenodd" clip-rule="evenodd" d="M26.1699 16.1751C26.5 16.9717 26.5 17.9807 26.5 20C26.5 22.0193 26.5 23.029 26.1699 23.8249C25.7301 24.8866 24.8866 25.7301 23.8249 26.1699C23.029 26.5 22.0193 26.5 20 26.5H17.8333C15.7909 26.5 14.7689 26.5 14.1348 25.8652C13.5 25.2311 13.5 24.2091 13.5 22.1667V20C13.5 17.9807 13.5 16.9717 13.8301 16.1751C14.2699 15.1134 15.1134 14.2699 16.1751 13.8301C16.9717 13.5 17.9807 13.5 20 13.5C22.0193 13.5 23.029 13.5 23.8249 13.8301C24.8866 14.2699 25.7301 15.1134 26.1699 16.1751ZM17.1111 18.5556C17.1111 18.364 17.1872 18.1803 17.3226 18.0449C17.4581 17.9094 17.6418 17.8333 17.8333 17.8333H22.1667C22.3582 17.8333 22.5419 17.9094 22.6774 18.0449C22.8128 18.1803 22.8889 18.364 22.8889 18.5556C22.8889 18.7471 22.8128 18.9308 22.6774 19.0662C22.5419 19.2017 22.3582 19.2778 22.1667 19.2778H17.8333C17.6418 19.2778 17.4581 19.2017 17.3226 19.0662C17.1872 18.9308 17.1111 18.7471 17.1111 18.5556ZM17.1111 21.4444C17.1111 21.2529 17.1872 21.0692 17.3226 20.9338C17.4581 20.7983 17.6418 20.7222 17.8333 20.7222H20C20.1915 20.7222 20.3752 20.7983 20.5107 20.9338C20.6461 21.0692 20.7222 21.2529 20.7222 21.4444C20.7222 21.636 20.6461 21.8197 20.5107 21.9551C20.3752 22.0906 20.1915 22.1667 20 22.1667H17.8333C17.6418 22.1667 17.4581 22.0906 17.3226 21.9551C17.1872 21.8197 17.1111 21.636 17.1111 21.4444Z" fill="#4B5563"/>
</svg>
