<svg width="40" height="40" viewBox="0 0 40 40" fill="none" xmlns="http://www.w3.org/2000/svg">
<rect width="40" height="40" rx="20" fill="#FFE4E4"/>
<path d="M20.8856 13.0352C22.4489 13.7952 23.666 14.3872 25.3316 13.5888C25.4556 13.5294 25.5928 13.5019 25.7305 13.5091C25.8681 13.5163 26.0017 13.5578 26.1186 13.6299C26.2354 13.7019 26.3317 13.802 26.3985 13.9207C26.4652 14.0395 26.5001 14.1731 26.5 14.3088V21.9408C26.5002 22.0909 26.4574 22.238 26.3767 22.3654C26.2959 22.4927 26.1804 22.5951 26.0434 22.6608C23.6213 23.8208 21.6705 22.8528 20.1527 22.1C19.985 22.0159 19.8166 21.9332 19.6474 21.852C18.8081 21.4544 18.1142 21.2024 17.4081 21.236C16.7906 21.2648 16.0496 21.5216 15.125 22.3528V27.2C15.125 27.4122 15.0394 27.6157 14.887 27.7657C14.7347 27.9157 14.528 28 14.3125 28C14.097 28 13.8903 27.9157 13.738 27.7657C13.5856 27.6157 13.5 27.4122 13.5 27.2V14.3768C13.5001 14.2711 13.5215 14.1665 13.5629 14.069C13.6044 13.9715 13.665 13.8831 13.7413 13.8088C14.9779 12.604 16.152 12.0608 17.3301 12.0048C18.4733 11.9504 19.4857 12.3672 20.3526 12.7784C20.5352 12.8653 20.7126 12.9507 20.8848 13.0344L20.8856 13.0352Z" fill="#AA0808"/>
</svg>
