<svg width="40" height="40" viewBox="0 0 40 40" fill="none" xmlns="http://www.w3.org/2000/svg">
<rect width="40" height="40" rx="20" fill="#DBEAFE"/>
<path d="M22.4 17.6V20.6C22.4 21.0774 22.5896 21.5352 22.9272 21.8728C23.2648 22.2104 23.7226 22.4 24.2 22.4C24.6774 22.4 25.1352 22.2104 25.4728 21.8728C25.8104 21.5352 26 21.0774 26 20.6V20C26 18.6484 25.5436 17.3364 24.7048 16.2765C23.8661 15.2166 22.694 14.471 21.3785 14.1605C20.0631 13.85 18.6813 13.9927 17.4571 14.5655C16.2328 15.1384 15.2379 16.1078 14.6334 17.3167C14.029 18.5256 13.8504 19.9032 14.1267 21.2263C14.4029 22.5494 15.1178 23.7405 16.1555 24.6065C17.1932 25.4726 18.4929 25.9629 19.8441 25.998C21.1953 26.0331 22.5187 25.611 23.6 24.8M22.4 20C22.4 20.3152 22.3379 20.6273 22.2173 20.9184C22.0967 21.2096 21.9199 21.4742 21.6971 21.6971C21.4742 21.9199 21.2096 22.0967 20.9184 22.2173C20.6273 22.3379 20.3152 22.4 20 22.4C19.6848 22.4 19.3727 22.3379 19.0816 22.2173C18.7904 22.0967 18.5258 21.9199 18.3029 21.6971C18.0801 21.4742 17.9033 21.2096 17.7827 20.9184C17.6621 20.6273 17.6 20.3152 17.6 20C17.6 19.3635 17.8529 18.753 18.3029 18.3029C18.753 17.8529 19.3635 17.6 20 17.6C20.6365 17.6 21.247 17.8529 21.6971 18.3029C22.1471 18.753 22.4 19.3635 22.4 20Z" stroke="#4B5563" stroke-width="1.5" stroke-linecap="round" stroke-linejoin="round"/>
</svg>
