<svg>
    <defs>
            <symbol  id="logo-long"   viewBox="0 0 174 30" xmlns="http://www.w3.org/2000/svg">
                <path d="M22.5 0L30 7.4925V30H22.5V0Z" fill="inherit"/>
                <path d="M0 22.5H30V30H7.5075L0 22.5Z" fill="inherit"/>
                <path d="M15 15H22.5V22.5H15V15Z" fill="inherit"/>
                <path d="M7.5 0H15V7.5H7.5V0Z" fill="inherit"/>
                <path d="M0 7.5H7.5V15H0V7.5Z" fill="inherit"/>
                <path d="M39.975 9.01515H44.4447L48.0432 24.0909H48.1947L52.475 9.01515H57.9295L62.2099 24.0909H62.3614L65.9598 9.01515H70.4296L65.0508 29.5455H59.8235L55.278 14.2424H55.1265L50.6189 29.5455H45.3917L39.975 9.01515Z" fill="inherit"/>
                <path d="M82.802 30C80.7565 30 78.9257 29.5581 77.3096 28.6742C75.6934 27.7652 74.4308 26.5025 73.5217 24.8864C72.6379 23.2449 72.1959 21.3636 72.1959 19.2424C72.1959 17.1717 72.6505 15.3157 73.5596 13.6742C74.4939 12.0328 75.7439 10.7576 77.3096 9.84848C78.9005 8.91414 80.6555 8.44697 82.5747 8.44697C84.5697 8.44697 86.2995 8.88889 87.7641 9.77273C89.254 10.6566 90.3904 11.9192 91.1732 13.5606C91.9813 15.1768 92.3853 17.0833 92.3853 19.2803C92.3853 19.7854 92.3727 20.1894 92.3475 20.4924H76.552C76.6783 22.1591 77.3222 23.5101 78.4838 24.5455C79.6454 25.5556 81.1353 26.0606 82.9535 26.0606C84.1404 26.0606 85.1884 25.8838 86.0975 25.5303C87.0318 25.1768 87.8778 24.6086 88.6353 23.8258L91.2868 26.4394C90.3525 27.5505 89.1404 28.4217 87.6505 29.053C86.1858 29.6843 84.5697 30 82.802 30ZM88.0293 17.197C87.9283 15.7828 87.3601 14.6338 86.3247 13.75C85.2894 12.8409 84.0268 12.3864 82.5368 12.3864C80.9459 12.3864 79.5949 12.8283 78.4838 13.7121C77.398 14.596 76.7666 15.7576 76.5899 17.197H88.0293Z" fill="inherit"/>
                <path d="M107.065 30C105.752 30 104.54 29.7601 103.428 29.2803C102.317 28.8005 101.408 28.1313 100.701 27.2727H100.55V29.5455H96.2315V0H100.55V11.4015H100.701C101.358 10.4672 102.254 9.74747 103.391 9.24242C104.527 8.73737 105.764 8.48485 107.103 8.48485C108.921 8.48485 110.6 8.91414 112.141 9.77273C113.706 10.6313 114.944 11.8687 115.853 13.4848C116.787 15.0758 117.254 16.9444 117.254 19.0909C117.254 21.2121 116.8 23.1061 115.891 24.7727C114.982 26.4141 113.744 27.702 112.178 28.6364C110.638 29.5455 108.934 30 107.065 30ZM100.322 19.2045C100.322 20.4672 100.575 21.6288 101.08 22.6894C101.61 23.7247 102.355 24.5455 103.315 25.1515C104.274 25.7323 105.373 26.0227 106.61 26.0227C107.848 26.0227 108.934 25.7323 109.868 25.1515C110.827 24.5455 111.56 23.7247 112.065 22.6894C112.595 21.6288 112.86 20.4672 112.86 19.2045C112.86 17.9419 112.595 16.7929 112.065 15.7576C111.56 14.7222 110.827 13.9141 109.868 13.3333C108.934 12.7273 107.848 12.4242 106.61 12.4242C105.373 12.4242 104.274 12.7273 103.315 13.3333C102.355 13.9141 101.61 14.7222 101.08 15.7576C100.575 16.7929 100.322 17.9419 100.322 19.2045Z" fill="inherit"/>
                <path d="M131.738 30C130.425 30 129.213 29.7601 128.101 29.2803C126.99 28.8005 126.081 28.1313 125.374 27.2727H125.223V29.5455H120.905V0H125.223V11.4015H125.374C126.031 10.4672 126.927 9.74747 128.064 9.24242C129.2 8.73737 130.437 8.48485 131.776 8.48485C133.594 8.48485 135.273 8.91414 136.814 9.77273C138.379 10.6313 139.617 11.8687 140.526 13.4848C141.46 15.0758 141.927 16.9444 141.927 19.0909C141.927 21.2121 141.473 23.1061 140.564 24.7727C139.655 26.4141 138.417 27.702 136.851 28.6364C135.311 29.5455 133.607 30 131.738 30ZM124.995 19.2045C124.995 20.4672 125.248 21.6288 125.753 22.6894C126.283 23.7247 127.028 24.5455 127.988 25.1515C128.947 25.7323 130.046 26.0227 131.283 26.0227C132.521 26.0227 133.607 25.7323 134.541 25.1515C135.5 24.5455 136.233 23.7247 136.738 22.6894C137.268 21.6288 137.533 20.4672 137.533 19.2045C137.533 17.9419 137.268 16.7929 136.738 15.7576C136.233 14.7222 135.5 13.9141 134.541 13.3333C133.607 12.7273 132.521 12.4242 131.283 12.4242C130.046 12.4242 128.947 12.7273 127.988 13.3333C127.028 13.9141 126.283 14.7222 125.753 15.7576C125.248 16.7929 124.995 17.9419 124.995 19.2045Z" fill="inherit"/>
                <path d="M145.578 9.01515H149.896V29.5455H145.578V9.01515ZM145.123 4.50758C145.123 3.77525 145.375 3.15656 145.881 2.65152C146.411 2.14646 147.03 1.89394 147.737 1.89394C148.469 1.89394 149.088 2.14646 149.593 2.65152C150.098 3.15656 150.35 3.77525 150.35 4.50758C150.35 5.21465 150.098 5.83333 149.593 6.36364C149.088 6.86869 148.469 7.12121 147.737 7.12121C147.03 7.12121 146.411 6.86869 145.881 6.36364C145.375 5.83333 145.123 5.21465 145.123 4.50758Z" fill="inherit"/>
                <path d="M163.849 30C161.804 30 159.973 29.5581 158.357 28.6742C156.741 27.7652 155.478 26.5025 154.569 24.8864C153.685 23.2449 153.243 21.3636 153.243 19.2424C153.243 17.1717 153.698 15.3157 154.607 13.6742C155.541 12.0328 156.791 10.7576 158.357 9.84848C159.948 8.91414 161.703 8.44697 163.622 8.44697C165.617 8.44697 167.347 8.88889 168.811 9.77273C170.301 10.6566 171.438 11.9192 172.22 13.5606C173.029 15.1768 173.433 17.0833 173.433 19.2803C173.433 19.7854 173.42 20.1894 173.395 20.4924H157.599C157.726 22.1591 158.369 23.5101 159.531 24.5455C160.693 25.5556 162.183 26.0606 164.001 26.0606C165.188 26.0606 166.236 25.8838 167.145 25.5303C168.079 25.1768 168.925 24.6086 169.683 23.8258L172.334 26.4394C171.4 27.5505 170.188 28.4217 168.698 29.053C167.233 29.6843 165.617 30 163.849 30ZM169.077 17.197C168.976 15.7828 168.407 14.6338 167.372 13.75C166.337 12.8409 165.074 12.3864 163.584 12.3864C161.993 12.3864 160.642 12.8283 159.531 13.7121C158.445 14.596 157.814 15.7576 157.637 17.197H169.077Z" fill="inherit"/>
                </symbol>
                
                <symbol id="logo-short" viewBox="0 0 40 40" xmlns="http://www.w3.org/2000/svg">
                    <path d="M30 0L40 9.99V40H30V0Z" fill="inherit"/>
                    <path d="M0 30H40V40H10.01L0 30Z" fill="inherit"/>
                    <path d="M20 20H30V30H20V20Z" fill="inherit"/>
                    <path d="M10 0H20V10H10V0Z" fill="inherit"/>
                    <path d="M0 10H10V20H0V10Z" fill="inherit"/>
                    </symbol>
                    
        
    </defs>
  </svg>